<?xml version="1.0" standalone="no"?>
<!DOCTYPE svg PUBLIC "-//W3C//DTD SVG 20010904//EN"
 "http://www.w3.org/TR/2001/REC-SVG-20010904/DTD/svg10.dtd">
<svg version="1.0" xmlns="http://www.w3.org/2000/svg"
 width="512.000000pt" height="512.000000pt" viewBox="0 0 512.000000 512.000000"
 preserveAspectRatio="xMidYMid meet">
<metadata>
Created by potrace 1.14, written by Peter Selinger 2001-2017
</metadata>
<g transform="translate(0.000000,512.000000) scale(0.100000,-0.100000)"
fill="#000000" stroke="none">
<path d="M3394 4650 c-36 -14 -81 -77 -102 -142 -35 -107 -45 -186 -47 -377
-1 -157 2 -201 22 -295 29 -145 65 -241 119 -324 127 -192 317 -258 546 -188
155 47 300 145 460 308 245 249 306 457 159 535 -37 19 -55 22 -120 19 -42 -2
-112 -11 -156 -20 -101 -19 -222 -20 -303 -1 -159 38 -259 131 -368 342 -53
104 -76 130 -123 143 -42 12 -59 12 -87 0z m97 -352 c9 -7 38 -42 65 -78 68
-91 155 -174 222 -213 129 -75 322 -96 498 -53 152 37 151 24 -8 -140 -145
-149 -215 -204 -326 -256 -203 -96 -340 -45 -404 149 -29 90 -51 191 -64 308
-3 28 -7 55 -9 62 -9 27 -17 183 -11 207 7 29 15 32 37 14z"/>
<path d="M811 4015 c-38 -32 -55 -83 -46 -138 26 -166 178 -433 334 -587 153
-152 279 -187 418 -118 83 41 186 192 228 336 41 137 49 307 21 406 -21 71
-52 96 -118 96 -58 0 -92 -16 -150 -70 -72 -66 -133 -95 -203 -93 -76 1 -129
24 -225 98 -130 99 -201 118 -259 70z m755 -344 c-18 -134 -102 -300 -160
-315 -62 -15 -184 88 -282 240 -56 85 -62 104 -27 86 76 -39 132 -51 222 -48
81 3 172 30 219 65 15 11 29 21 31 21 2 0 1 -22 -3 -49z"/>
<path d="M2139 3216 c-170 -60 -209 -281 -70 -397 l39 -33 -63 -22 c-132 -46
-250 -110 -375 -204 l-75 -56 -50 39 c-142 108 -335 144 -500 93 -91 -28 -228
-122 -265 -182 -40 -63 -11 -147 54 -160 51 -9 81 1 122 41 94 92 236 133 344
101 38 -12 130 -69 130 -81 0 -5 -10 -21 -22 -35 -71 -78 -173 -226 -223 -323
-11 -21 -29 -39 -40 -41 -174 -31 -242 -58 -340 -136 -112 -89 -200 -255 -212
-400 -5 -60 -3 -68 21 -97 30 -36 77 -47 123 -28 40 17 59 48 67 105 13 93 45
162 109 228 23 24 53 49 67 56 14 7 38 20 55 29 16 9 30 15 31 14 1 -1 -2 -22
-7 -47 -34 -166 -44 -339 -24 -429 l7 -31 -74 0 c-267 0 -491 -206 -515 -471
-5 -52 -3 -59 25 -90 26 -29 37 -34 76 -34 62 0 92 31 111 114 28 118 82 193
171 237 65 32 148 41 213 23 65 -18 82 -31 141 -110 97 -131 252 -238 441
-308 66 -24 166 -53 196 -57 12 -1 26 -4 30 -7 10 -6 206 -36 278 -43 28 -2
131 -7 230 -10 157 -6 185 -5 213 10 67 35 78 117 23 170 -29 28 -31 28 -178
32 -224 5 -351 16 -496 45 -553 110 -783 436 -652 926 70 265 272 554 514 736
215 162 467 249 731 251 101 0 245 -10 260 -19 3 -2 21 -6 40 -9 92 -14 282
-90 375 -149 284 -181 513 -480 609 -799 33 -109 41 -163 39 -278 -3 -223
-122 -395 -363 -523 -100 -53 -307 -137 -339 -137 -28 0 -78 -49 -87 -85 -10
-40 18 -92 61 -112 76 -36 268 22 498 150 12 7 24 14 27 17 3 3 39 31 81 63
92 69 197 179 227 238 13 24 17 25 55 18 178 -35 333 -145 444 -315 63 -96
115 -119 177 -79 76 50 57 137 -63 288 -122 153 -307 270 -492 311 -26 6 -26
7 -17 53 5 27 10 101 10 166 1 64 2 117 4 117 2 0 29 -7 61 -16 150 -40 324
-7 460 85 62 42 78 76 63 132 -20 74 -99 96 -172 50 -212 -135 -434 -64 -562
179 -42 80 -105 178 -161 251 l-35 47 24 15 c83 55 249 65 361 22 147 -56 200
-41 220 64 8 45 -22 80 -99 117 -96 46 -179 62 -301 58 -113 -3 -215 -31 -305
-84 l-53 -31 -26 23 c-14 13 -28 25 -31 28 -23 23 -108 86 -171 127 -64 42
-75 53 -67 67 15 26 12 100 -5 132 -32 62 -88 96 -157 96 -65 -1 -108 -27
-150 -91 l-16 -24 -74 17 c-111 26 -169 31 -331 31 l-147 0 18 25 c23 33 39
101 35 149 -12 147 -168 247 -306 197z"/>
<path d="M2828 680 c-47 -9 -76 -34 -86 -74 -19 -72 33 -136 111 -136 121 0
165 139 64 200 -34 21 -34 21 -89 10z"/>
</g>
</svg>
