<?xml version="1.0" standalone="no"?>
<!DOCTYPE svg PUBLIC "-//W3C//DTD SVG 20010904//EN"
 "http://www.w3.org/TR/2001/REC-SVG-20010904/DTD/svg10.dtd">
<svg version="1.0" xmlns="http://www.w3.org/2000/svg"
 width="800.000000pt" height="800.000000pt" viewBox="0 0 800.000000 800.000000"
 preserveAspectRatio="xMidYMid meet">
<metadata>
Created by potrace 1.14, written by Peter Selinger 2001-2017
</metadata>
<g transform="translate(0.000000,800.000000) scale(0.100000,-0.100000)"
fill="#000000" stroke="none">
<path d="M6215 7690 c4 -11 -1 -16 -15 -17 -11 -1 -20 4 -20 10 0 9 -2 9 -8 0
-4 -7 -17 -14 -27 -16 -11 -2 -28 -7 -37 -11 -9 -4 -23 -8 -31 -10 -8 -1 -22
-10 -32 -19 -11 -11 -25 -15 -39 -12 -17 5 -18 4 -6 -4 10 -7 11 -11 3 -11 -7
0 -13 -5 -13 -11 0 -6 -17 -29 -38 -50 -31 -30 -41 -36 -52 -26 -10 9 -11 9
-6 -1 4 -7 2 -19 -4 -27 -15 -18 -34 -20 -24 -3 4 7 3 8 -5 4 -9 -6 -9 -11 1
-24 7 -9 8 -13 3 -10 -6 4 -21 -9 -35 -29 -21 -31 -25 -33 -36 -19 -11 15 -12
15 -18 1 -4 -10 -2 -14 5 -9 7 4 10 1 7 -7 -3 -8 -11 -13 -17 -11 -6 1 -10 -3
-9 -9 2 -6 -3 -14 -11 -17 -9 -3 -11 0 -6 8 5 9 4 11 -4 6 -9 -6 -9 -11 1 -24
10 -12 10 -14 1 -8 -8 4 -13 2 -13 -4 0 -6 -4 -9 -9 -5 -5 3 -11 -5 -13 -17
-2 -15 -9 -22 -20 -20 -12 2 -16 -2 -12 -13 5 -11 2 -14 -12 -8 -12 4 -15 3
-10 -5 4 -7 2 -13 -3 -13 -6 -1 -15 -2 -21 -3 -12 -1 -14 -15 -4 -24 4 -4 4
-1 -1 7 -5 10 -4 12 4 7 6 -4 9 -12 5 -17 -3 -5 -10 -7 -15 -4 -5 4 -9 -2 -9
-12 0 -14 -2 -15 -9 -5 -6 10 -10 8 -14 -8 -4 -14 -10 -19 -18 -14 -8 4 -10 3
-5 -5 4 -6 0 -14 -8 -17 -9 -3 -13 -11 -9 -17 3 -5 2 -7 -3 -4 -5 3 -20 -10
-34 -30 -21 -31 -25 -33 -36 -19 -11 15 -12 15 -18 1 -3 -9 -2 -13 4 -10 6 3
10 2 10 -3 0 -12 -53 -57 -63 -54 -5 1 -6 -2 -2 -8 3 -5 -1 -13 -9 -16 -9 -3
-13 -11 -9 -17 3 -5 1 -7 -4 -4 -6 4 -14 0 -17 -9 -4 -10 -12 -14 -22 -10 -15
6 -15 4 -3 -11 8 -9 9 -14 2 -10 -6 4 -14 1 -16 -5 -4 -10 -7 -10 -15 0 -7 11
-10 11 -15 -3 -4 -9 -3 -13 3 -10 19 12 10 -7 -19 -40 -20 -23 -32 -30 -39
-23 -8 8 -9 4 -5 -11 3 -13 1 -21 -6 -21 -7 0 -9 5 -5 12 5 7 3 8 -5 4 -7 -5
-10 -15 -6 -23 5 -14 3 -14 -12 -2 -9 8 -14 9 -10 3 7 -13 -28 -64 -44 -64 -6
0 -7 5 -3 12 4 7 3 8 -5 4 -9 -6 -9 -12 1 -24 7 -10 9 -14 4 -10 -5 4 -17 -4
-28 -17 -18 -24 -46 -36 -33 -15 3 6 -1 7 -10 3 -14 -5 -14 -8 -3 -15 10 -8
10 -11 0 -15 -6 -2 -9 -10 -5 -16 4 -7 -1 -6 -10 2 -15 12 -17 12 -11 -3 4
-10 0 -18 -10 -22 -9 -3 -13 -11 -9 -17 3 -5 1 -7 -4 -4 -6 4 -14 0 -17 -9 -3
-8 -11 -12 -17 -8 -8 5 -9 3 -5 -5 5 -8 0 -14 -13 -18 -11 -3 -18 -9 -15 -14
3 -5 0 -9 -6 -9 -6 0 -8 -5 -4 -12 6 -10 4 -10 -8 0 -13 10 -18 10 -24 1 -4
-8 -3 -9 4 -5 7 4 12 3 12 -3 0 -14 -51 -52 -61 -45 -5 3 -6 -3 -2 -12 5 -13
3 -15 -7 -9 -10 6 -12 4 -7 -10 6 -14 3 -16 -14 -12 -16 4 -19 3 -11 -5 8 -8
3 -17 -18 -33 -16 -12 -26 -26 -22 -31 4 -4 0 -3 -10 4 -12 10 -18 10 -24 1
-5 -8 -3 -9 6 -4 8 5 11 3 8 -6 -3 -8 -11 -13 -17 -11 -7 1 -10 -2 -6 -7 7
-12 -29 -33 -39 -23 -4 3 -4 -2 0 -12 6 -15 4 -17 -6 -11 -10 6 -12 4 -7 -10
6 -14 3 -16 -14 -12 -15 4 -19 3 -11 -5 7 -7 0 -19 -23 -39 -33 -29 -52 -38
-40 -19 4 6 -1 7 -11 3 -14 -5 -15 -7 0 -15 12 -7 7 -17 -35 -59 -27 -27 -54
-47 -58 -44 -5 3 -7 -4 -4 -15 3 -11 0 -21 -6 -21 -26 -3 -30 -4 -38 -13 -5
-5 -3 -6 5 -2 17 10 15 -1 -5 -35 -19 -32 -36 -39 -27 -11 5 13 4 14 -4 3 -6
-8 -8 -24 -6 -35 2 -12 -7 -32 -24 -50 -15 -16 -20 -26 -12 -22 9 5 8 2 -2 -7
-10 -8 -15 -17 -11 -20 3 -4 1 -7 -5 -7 -7 0 -12 5 -12 12 0 6 -3 9 -6 6 -3
-4 -1 -16 6 -27 8 -15 8 -21 0 -21 -6 0 -9 -3 -6 -8 2 -4 -3 -23 -12 -42 -8
-19 -16 -37 -16 -40 -14 -54 -17 -59 -34 -54 -16 5 -16 5 0 -6 19 -12 13 -44
-6 -33 -6 4 -4 -2 4 -12 14 -17 13 -18 -3 -12 -15 5 -16 4 -7 -13 13 -25 13
-33 -2 -24 -10 5 -10 4 -1 -6 8 -9 9 -20 2 -38 -5 -13 -7 -27 -4 -30 2 -3 0
-11 -6 -19 -6 -7 -8 -13 -3 -13 5 0 2 -5 -6 -10 -10 -6 -11 -10 -2 -10 6 0 12
-7 12 -16 0 -8 -4 -12 -10 -9 -6 3 -10 1 -10 -4 0 -6 5 -11 11 -11 15 0 7 -43
-11 -58 -13 -11 -13 -11 0 -7 11 4 16 -3 16 -25 1 -25 -1 -28 -12 -19 -9 7
-14 8 -14 1 0 -5 7 -13 16 -16 10 -4 14 -14 11 -26 -3 -11 -2 -20 2 -20 10 0
7 -31 -4 -49 -5 -10 -4 -12 3 -7 16 10 15 -7 0 -23 -11 -12 -10 -13 6 -7 13 4
17 2 13 -8 -3 -8 -3 -17 1 -20 9 -10 11 -37 2 -31 -4 3 -11 -2 -14 -11 -3 -8
-2 -12 4 -9 18 11 32 -5 19 -21 -10 -12 -10 -14 1 -12 7 2 15 -3 18 -11 2 -8
0 -11 -6 -7 -6 3 -14 1 -18 -5 -4 -8 -3 -9 4 -5 7 4 12 2 12 -4 0 -6 4 -9 8
-6 9 5 10 1 15 -46 2 -16 7 -31 12 -35 4 -5 5 -2 0 6 -6 10 -4 12 4 7 9 -6 9
-11 1 -21 -9 -11 -7 -17 9 -27 23 -14 27 -37 11 -56 -7 -9 -7 -9 2 -2 20 16
32 11 17 -7 -12 -15 -12 -16 3 -10 10 3 20 2 23 -3 4 -6 -2 -10 -12 -11 -12 0
-9 -4 9 -11 23 -8 26 -13 18 -28 -7 -13 -7 -21 2 -26 7 -4 8 -3 4 4 -4 7 -4
12 -1 12 10 0 44 -43 45 -55 0 -6 9 -16 20 -23 11 -7 20 -17 20 -22 0 -6 15
-24 33 -41 20 -19 27 -32 20 -35 -8 -4 -7 -10 5 -23 9 -10 21 -16 25 -13 5 2
0 11 -10 19 -13 10 -14 13 -3 10 8 -2 20 -13 26 -25 6 -12 14 -19 17 -15 4 3
7 1 7 -6 0 -7 5 -9 13 -5 8 5 7 2 -2 -9 -12 -15 -12 -17 3 -11 10 4 18 0 22
-10 3 -9 10 -13 15 -10 5 3 9 -3 9 -13 0 -12 3 -14 8 -6 6 9 12 7 22 -7 8 -11
20 -20 28 -20 7 0 10 -4 7 -10 -3 -5 2 -10 13 -10 27 0 74 -39 65 -53 -4 -7 2
-5 12 3 14 11 19 12 22 3 3 -7 11 -13 19 -13 9 0 12 -5 8 -12 -5 -8 -2 -9 10
-5 9 4 15 3 12 -2 -3 -5 1 -12 10 -15 10 -4 13 -2 8 7 -6 9 -4 9 7 1 8 -6 27
-14 43 -18 23 -6 27 -9 15 -17 -9 -5 -9 -9 -2 -9 6 0 15 5 18 10 4 7 12 7 24
0 10 -5 21 -6 25 -3 3 3 6 1 6 -5 0 -7 -5 -12 -11 -12 -5 0 -7 -5 -4 -11 5 -6
12 -4 20 7 11 16 13 16 23 -2 6 -10 12 -13 12 -6 0 17 20 15 20 -2 0 -8 7 -17
16 -20 14 -5 15 -4 5 8 -11 13 -7 14 26 9 21 -3 40 -10 43 -14 3 -4 12 -4 19
1 18 10 41 2 37 -13 -1 -7 -1 -9 1 -4 3 4 9 5 14 1 5 -3 9 -2 8 3 -4 21 3 24
19 6 9 -10 14 -14 10 -8 -4 6 4 11 18 11 15 1 21 -2 17 -10 -5 -8 -3 -8 8 -1
17 12 39 13 58 1 10 -6 12 -5 7 2 -4 7 -1 12 9 12 9 0 14 -4 10 -9 -3 -5 0
-13 6 -17 7 -4 9 -3 6 3 -12 20 52 37 65 18 5 -6 8 -6 8 2 0 6 11 10 25 8 14
-1 25 2 25 6 0 5 4 9 10 9 5 0 7 -8 3 -17 -5 -14 -2 -13 13 3 10 12 33 25 49
28 22 5 26 4 15 -4 -8 -5 -11 -10 -6 -10 5 0 18 8 29 18 12 10 17 11 12 3 -5
-9 -4 -12 3 -7 6 3 15 -2 21 -11 6 -10 11 -13 11 -6 0 6 -4 15 -10 18 -5 3
-10 11 -10 16 0 6 4 8 9 5 4 -3 25 3 46 14 21 11 42 17 46 14 5 -3 9 0 9 6 0
8 6 8 21 0 11 -7 23 -9 27 -6 3 3 0 6 -6 6 -7 0 -12 5 -12 12 0 6 3 8 7 5 3
-4 12 1 20 11 9 10 12 11 7 2 -4 -8 6 -3 22 12 19 18 38 26 51 24 12 -3 27 2
33 10 7 7 17 11 23 7 6 -4 7 -1 3 6 -6 9 -13 8 -27 -5 -10 -9 -19 -13 -19 -8
0 9 51 44 65 44 3 0 3 -5 -1 -12 -4 -7 -3 -8 4 -4 6 4 8 14 5 24 -6 15 -5 16
12 2 13 -10 16 -11 11 -2 -5 9 0 22 15 38 18 19 25 22 38 11 12 -10 13 -9 7 1
-4 7 5 26 26 47 31 33 57 48 42 23 -4 -7 -3 -8 5 -4 9 6 9 11 -1 24 -10 12
-10 14 0 8 7 -4 12 -2 12 4 0 6 4 9 9 6 5 -3 11 4 14 15 4 13 10 18 18 13 8
-4 10 -3 5 5 -4 6 0 14 8 17 9 3 13 11 9 17 -3 5 -2 8 3 5 12 -6 44 28 36 38
-4 4 -2 4 5 1 6 -4 14 -1 16 5 4 10 7 10 15 0 7 -11 10 -11 15 3 4 9 3 13 -3
10 -19 -12 -10 7 19 40 20 23 32 30 39 23 8 -8 9 -4 5 11 -4 17 -2 20 12 14
14 -5 16 -3 10 7 -6 10 -4 12 11 6 10 -4 15 -4 12 0 -11 10 12 45 24 38 7 -4
8 -3 4 5 -4 6 0 14 8 17 9 3 13 11 9 17 -3 6 -1 7 5 3 7 -4 12 -2 12 4 0 6 4
9 9 6 5 -3 11 4 14 15 4 13 10 18 18 13 8 -4 10 -3 5 5 -4 6 0 14 8 17 9 3 13
11 9 17 -3 5 -2 8 3 5 12 -6 44 28 36 38 -4 4 -2 4 5 1 6 -4 14 -1 16 5 4 10
7 10 15 0 7 -11 10 -11 15 3 4 9 3 13 -3 10 -6 -3 -10 -2 -10 3 0 12 53 57 63
54 5 -1 6 2 2 8 -3 5 1 13 9 16 9 3 13 11 9 17 -3 5 -2 8 3 5 12 -6 44 28 36
38 -4 4 -2 4 5 1 6 -4 14 -1 16 5 4 10 7 10 15 0 7 -11 10 -11 15 3 4 9 3 13
-3 10 -19 -12 -10 7 19 40 20 23 32 30 39 23 8 -8 9 -4 5 11 -4 17 -2 20 12
14 14 -5 16 -3 10 7 -6 10 -4 12 11 6 10 -4 15 -4 12 0 -11 10 12 45 24 38 7
-4 8 -3 4 5 -4 6 0 14 8 17 9 3 13 11 9 18 -3 6 -3 8 2 4 4 -4 16 4 27 17 18
24 46 36 33 15 -3 -6 1 -7 10 -3 14 5 14 8 3 15 -10 8 -10 11 0 15 6 2 9 10 6
15 -4 6 -3 9 2 6 12 -6 44 28 36 38 -4 4 -2 4 4 1 7 -4 15 0 18 9 3 8 11 12
17 8 8 -5 9 -3 5 5 -5 8 0 14 13 18 11 3 18 9 15 14 -3 5 0 9 6 9 6 0 8 5 4
12 -4 6 -3 8 3 5 6 -4 14 0 17 9 3 8 11 12 17 8 8 -4 9 -3 5 4 -7 12 28 35 38
24 4 -3 4 2 0 12 -6 15 -4 17 6 11 10 -6 12 -4 7 10 -6 14 -3 16 14 12 16 -4
19 -3 11 5 -8 8 -3 17 18 33 16 12 26 26 22 31 -4 4 0 3 10 -4 12 -10 18 -10
24 -1 5 8 3 9 -6 4 -8 -5 -11 -3 -8 6 3 8 11 13 17 11 7 -1 10 2 6 7 -7 12 29
33 39 23 4 -3 4 2 0 12 -6 15 -4 17 6 11 10 -6 12 -4 7 10 -6 14 -3 16 13 12
16 -4 19 -2 11 7 -7 8 -4 16 12 26 21 13 21 12 7 -6 -14 -18 -14 -18 3 -5 9 7
17 20 17 28 0 8 5 11 12 7 8 -5 9 -2 5 11 -6 14 -3 16 14 12 16 -4 19 -3 11 5
-9 9 -5 16 14 29 14 9 25 18 24 20 -5 11 25 59 35 55 8 -3 10 4 7 19 -2 12 1
26 7 29 5 4 8 13 5 20 -3 8 0 17 7 22 8 5 10 3 4 -7 -8 -12 -6 -12 8 0 20 16
22 22 5 19 -6 -2 -13 9 -14 25 -2 15 1 25 7 22 5 -4 9 -1 9 4 0 6 -4 11 -9 11
-5 0 -8 11 -8 25 0 13 3 22 8 19 5 -3 9 -1 9 4 0 6 -7 13 -16 16 -9 4 -14 13
-10 21 3 8 0 15 -6 15 -6 0 -5 6 3 17 8 10 9 14 2 10 -6 -4 -14 -3 -18 3 -3 5
-1 10 4 10 6 0 11 5 11 10 0 6 -3 9 -7 9 -23 -4 -32 3 -26 18 4 11 3 14 -5 9
-7 -4 -12 -4 -12 1 0 15 -57 73 -64 66 -4 -4 -4 0 0 10 5 14 2 16 -12 10 -17
-6 -17 -5 -5 11 12 15 12 17 0 14 -8 -2 -17 -7 -21 -13 -5 -6 -8 -5 -8 3 0 6
-9 12 -20 12 -11 0 -20 4 -20 10 0 5 -6 7 -14 4 -8 -3 -17 0 -22 7 -5 8 -3 10
7 4 8 -5 10 -4 6 0 -10 12 -38 15 -31 4 3 -5 1 -9 -5 -9 -5 0 -11 6 -14 13 -3
9 -7 9 -19 -1 -13 -10 -18 -9 -28 3 -7 8 -18 15 -24 14 -7 0 -6 -2 2 -6 6 -2
9 -9 6 -14 -3 -6 -11 -5 -20 2 -11 9 -14 8 -14 -2 -1 -9 -6 -7 -17 6 -13 16
-15 17 -10 3 4 -12 1 -18 -8 -19 -23 -2 -29 -4 -54 -18 -13 -7 -21 -8 -17 -2
5 7 1 9 -8 5 -9 -3 -14 -10 -11 -15 3 -4 -5 -13 -17 -20 -19 -9 -21 -9 -10 2
6 7 12 18 12 23 0 6 -7 0 -16 -12 -8 -12 -19 -20 -24 -17 -4 3 -7 -3 -6 -13 0
-9 -5 -16 -11 -15 -7 2 -12 -2 -10 -8 1 -6 -4 -14 -11 -16 -8 -3 -10 2 -6 14
5 14 4 15 -4 3 -8 -10 -7 -19 1 -30 6 -8 7 -12 3 -8 -5 5 -16 -1 -23 -12 -8
-11 -19 -18 -24 -15 -5 4 -6 -2 -2 -12 6 -15 4 -16 -8 -6 -10 8 -19 9 -29 1
-12 -8 -12 -9 3 -4 9 3 17 1 17 -4 0 -6 -5 -10 -11 -10 -5 0 -8 -4 -5 -9 10
-15 -25 -22 -43 -9 -13 10 -14 10 -3 -2 18 -21 15 -35 -5 -19 -15 13 -15 12
-5 -7 13 -25 5 -39 -15 -22 -11 8 -12 7 -7 -6 3 -9 2 -16 -2 -17 -25 -2 -47
-8 -52 -15 -4 -4 1 -4 10 -1 10 3 20 2 23 -3 6 -9 -8 -14 -27 -11 -5 0 -7 -5
-5 -12 1 -6 -6 -11 -15 -11 -10 1 -14 -4 -11 -12 3 -8 0 -14 -7 -14 -6 0 -8
-5 -4 -12 4 -7 3 -8 -4 -4 -7 4 -12 3 -12 -2 0 -21 -38 -18 -64 4 -15 13 -24
24 -19 24 4 0 -3 7 -15 16 -13 9 -21 22 -18 29 3 9 -2 11 -17 7 -20 -5 -20 -4
-8 11 7 9 10 18 5 18 -5 1 -16 2 -24 3 -8 0 -20 12 -27 26 -7 14 -13 19 -13
10 0 -11 -4 -9 -12 5 -6 11 -20 26 -30 33 -10 7 -16 18 -13 23 4 5 -1 9 -10 9
-11 0 -15 5 -12 14 4 10 0 12 -16 8 -20 -5 -20 -4 -8 11 12 16 8 22 -13 18
-16 -3 -37 22 -31 37 4 12 3 13 -10 2 -14 -12 -17 -9 -14 16 0 4 -10 12 -23
18 -12 6 -28 23 -35 36 -7 14 -13 19 -13 11 0 -8 -12 2 -27 22 -16 20 -36 39
-46 42 -9 4 -15 10 -12 15 3 4 -2 10 -10 14 -8 3 -15 13 -15 22 0 10 -3 15 -6
11 -3 -3 -21 8 -40 25 -29 26 -32 34 -22 52 9 17 8 19 -3 9 -17 -17 -28 -16
-25 1 3 20 26 46 42 46 8 0 14 7 14 16 0 11 6 14 23 9 17 -5 18 -4 7 4 -8 5
-11 13 -7 17 3 4 15 1 24 -7 17 -13 17 -13 3 5 -13 16 -12 20 3 31 9 6 15 14
14 16 -2 2 5 12 15 22 19 18 26 9 7 -10 -8 -8 -8 -13 0 -18 6 -3 11 -3 10 2
-3 17 14 53 22 47 5 -3 9 4 9 15 0 12 4 21 9 21 15 0 61 46 61 60 0 7 8 10 19
7 10 -2 25 0 32 5 11 8 10 9 -3 4 -10 -3 -18 -1 -18 4 0 6 5 10 11 10 5 0 8 4
5 9 -8 12 22 23 37 14 7 -3 9 -2 4 2 -4 5 1 18 10 29 17 20 17 20 0 7 -15 -12
-17 -12 -11 3 3 9 10 16 15 16 5 0 9 7 9 15 0 8 5 15 11 15 5 0 8 -4 5 -9 -7
-11 20 -8 31 3 4 4 1 6 -7 4 -8 -2 -14 3 -12 10 1 8 -2 11 -8 7 -6 -4 -6 3 1
19 7 14 17 22 23 19 6 -4 5 1 -3 10 -12 15 -11 20 5 39 11 12 13 18 7 14 -7
-4 -13 -3 -13 3 0 5 6 12 13 14 9 4 9 6 -1 6 -7 1 -10 6 -7 11 3 6 1 10 -5 10
-6 0 -8 5 -5 10 4 6 11 8 16 5 5 -3 6 1 3 9 -3 9 -11 13 -18 9 -6 -4 -5 1 3
10 9 11 10 17 2 17 -15 0 -14 43 2 60 10 12 9 12 -5 2 -11 -9 -18 -10 -23 -2
-3 5 -4 10 -1 10 3 0 -1 8 -9 18 -8 9 -15 20 -15 24 0 5 -15 23 -33 40 -29 30
-30 30 -3 8 17 -14 25 -18 18 -9 -6 9 -8 20 -4 24 4 5 2 5 -4 2 -7 -4 -17 0
-24 9 -7 8 -19 13 -27 10 -8 -3 -12 -2 -9 3 3 5 -1 12 -10 15 -8 3 -13 10 -10
14 3 5 -1 9 -9 9 -8 0 -12 -4 -9 -9 3 -4 0 -8 -5 -8 -6 0 -11 4 -11 9 0 13
-57 33 -93 32 -11 0 -15 5 -10 12 4 7 -1 6 -10 -2 -15 -12 -20 -12 -32 5 -10
12 -13 13 -10 4z m-525 -1434 c0 -6 -5 -4 -11 4 -9 13 -10 13 -6 0 2 -9 13
-14 26 -12 17 3 23 -3 28 -29 5 -29 7 -31 15 -14 7 16 7 14 4 -8 -2 -20 0 -25
7 -18 6 6 15 11 21 11 5 0 6 -3 3 -7 -4 -3 2 -12 13 -20 11 -8 20 -24 21 -36
0 -21 1 -21 10 -2 8 17 9 15 5 -10 -4 -28 -3 -29 11 -10 15 20 15 20 11 -1 -3
-13 0 -21 8 -21 7 0 10 5 7 11 -3 6 3 2 14 -9 11 -11 19 -23 16 -27 -2 -5 1
-8 7 -8 6 0 8 -4 5 -10 -3 -5 1 -10 9 -10 9 0 16 -5 16 -11 0 -5 5 -7 11 -3 8
5 10 -1 7 -20 -4 -21 -3 -24 8 -15 11 9 14 8 14 0 0 -7 3 -10 8 -8 4 3 16 -5
27 -16 11 -11 15 -17 10 -14 -6 3 -11 -4 -12 -16 0 -12 1 -16 4 -9 9 24 34 12
40 -20 6 -28 7 -30 15 -13 7 16 8 15 5 -7 -4 -24 -2 -26 16 -17 11 6 17 7 14
2 -4 -6 5 -16 18 -23 13 -7 22 -17 19 -22 -3 -4 0 -8 7 -8 8 0 9 -3 0 -14 -9
-11 -6 -12 16 -8 16 2 25 2 22 -2 -9 -10 34 -53 46 -47 6 3 3 -4 -5 -14 -12
-15 -12 -17 -1 -10 11 6 13 4 7 -11 -4 -10 -4 -15 0 -11 4 4 14 1 23 -5 13
-10 14 -10 4 2 -7 8 -13 18 -13 24 0 5 7 1 15 -10 28 -36 10 -104 -27 -104 -6
0 -9 -2 -6 -5 3 -3 -4 -17 -16 -30 -20 -22 -22 -23 -41 -7 -18 16 -19 16 -6 0
11 -15 10 -21 -7 -42 -11 -15 -23 -21 -28 -16 -6 6 -15 5 -24 -1 -13 -9 -12
-10 3 -5 9 3 17 1 17 -4 0 -6 -5 -10 -11 -10 -5 0 -8 -4 -5 -9 10 -15 -25 -22
-43 -9 -10 8 -8 3 4 -11 11 -14 14 -21 7 -17 -7 4 -15 1 -18 -9 -4 -9 -13 -14
-22 -10 -12 4 -12 2 -4 -8 17 -20 3 -28 -22 -15 -19 10 -20 10 -7 -5 16 -20 2
-23 -19 -4 -12 10 -12 9 -2 -4 13 -18 6 -53 -9 -43 -5 3 -9 0 -9 -5 0 -6 -4
-11 -10 -11 -5 0 -7 8 -4 18 5 14 4 14 -4 2 -7 -9 -7 -18 -1 -26 14 -17 -20
-27 -40 -12 -14 11 -14 11 -3 -3 13 -17 6 -53 -9 -43 -5 3 -9 0 -9 -5 0 -6 -4
-11 -10 -11 -5 0 -7 8 -4 18 5 14 4 15 -5 2 -6 -9 -7 -18 -1 -24 5 -5 -1 -17
-16 -28 -21 -17 -27 -18 -42 -7 -16 13 -16 12 0 -6 16 -19 15 -21 -6 -40 -12
-11 -25 -22 -28 -25 -2 -3 -13 2 -24 10 -17 14 -18 13 -6 -1 13 -17 6 -53 -9
-43 -5 3 -9 0 -9 -5 0 -6 -4 -11 -10 -11 -5 0 -7 8 -4 18 5 14 4 14 -4 2 -8
-10 -8 -18 0 -27 6 -7 6 -13 1 -13 -5 0 -24 -13 -43 -30 -18 -16 -36 -27 -40
-25 -5 3 -11 -2 -14 -11 -4 -9 -9 -14 -12 -11 -3 3 -22 -3 -41 -14 -33 -19
-35 -19 -29 -2 6 17 5 17 -8 0 -9 -12 -16 -15 -21 -7 -5 8 -10 8 -20 0 -8 -7
-20 -8 -27 -4 -10 6 -11 5 -1 -7 10 -13 5 -15 -35 -14 -26 0 -53 5 -61 9 -10
7 -12 6 -6 -4 6 -10 4 -11 -11 -6 -10 5 -29 9 -41 10 -12 1 -26 6 -30 10 -5 5
-2 6 6 1 10 -6 12 -4 7 4 -6 9 -11 9 -24 -1 -13 -11 -15 -11 -10 3 4 9 1 16
-8 16 -7 0 -11 -4 -9 -8 3 -4 -4 -5 -15 -2 -25 7 -26 20 -2 25 14 3 13 5 -6
10 -12 3 -20 2 -17 -2 3 -5 1 -11 -5 -15 -5 -3 -10 2 -11 12 0 11 -3 13 -6 5
-2 -6 -9 -9 -14 -6 -6 3 -5 12 3 22 12 14 10 14 -11 3 -13 -7 -21 -9 -17 -3 3
5 -3 12 -14 15 -11 3 -20 11 -20 19 0 10 3 9 10 -2 6 -9 10 -10 10 -3 0 16
-17 26 -25 13 -7 -11 -35 11 -35 27 0 4 -9 14 -20 21 -11 7 -20 19 -20 27 0 8
-4 15 -8 15 -12 0 -36 52 -33 69 1 8 -3 17 -9 21 -6 4 -12 13 -13 21 -2 8 -6
19 -10 26 -4 6 -3 15 3 18 8 5 7 12 -2 23 -10 12 -10 14 0 8 6 -4 12 -2 12 3
0 6 -6 11 -12 11 -9 0 -8 4 2 10 12 8 12 10 1 10 -11 0 -11 3 0 17 8 10 9 14
2 10 -8 -5 -11 0 -10 13 1 10 7 22 14 24 7 3 10 12 7 20 -3 8 0 17 6 21 8 5 8
11 -1 21 -9 11 -9 18 -1 26 6 6 8 17 5 24 -3 8 0 14 7 14 6 0 9 -4 5 -9 -3 -5
-1 -12 4 -15 5 -3 7 10 4 29 -3 22 0 35 7 35 6 0 8 5 4 13 -6 9 -4 9 8 -1 14
-11 16 -10 11 7 -5 19 5 26 30 22 5 -1 6 3 2 9 -3 6 -12 7 -18 3 -7 -4 -1 7
13 24 15 18 29 27 35 22 6 -4 17 -3 25 3 12 8 12 9 -2 4 -10 -3 -18 -1 -18 4
0 6 5 10 11 10 5 0 8 4 5 9 -10 15 25 22 43 9 10 -8 8 -3 -4 11 -11 14 -14 21
-7 17 7 -4 15 -1 18 9 4 9 13 14 22 10 12 -4 12 -2 4 8 -17 20 -3 28 22 15 19
-10 20 -10 7 5 -16 20 -2 23 19 5 12 -11 12 -10 2 3 -13 18 -6 53 9 43 5 -3 9
0 9 5 0 6 4 11 10 11 5 0 7 -8 4 -17 -5 -15 -4 -15 4 -3 7 9 7 18 1 26 -14 17
20 27 40 12 14 -11 14 -11 3 3 -13 17 -6 53 9 43 5 -3 9 0 9 5 0 6 4 11 10 11
5 0 7 -8 4 -17 -5 -15 -4 -16 5 -3 6 9 7 18 1 24 -5 5 1 17 16 28 21 17 27 18
42 7 16 -13 16 -12 0 6 -16 19 -15 21 7 41 26 23 37 22 28 -4 -4 -13 -3 -14 5
-3 5 7 16 18 23 23 11 8 10 9 -3 4 -10 -3 -18 -1 -18 4 0 6 5 10 12 10 6 0 9
2 6 5 -3 3 4 17 16 30 20 22 22 23 41 7 18 -16 19 -16 6 0 -11 15 -10 21 7 42
11 15 23 21 28 16 6 -6 15 -5 24 1 13 9 12 10 -2 5 -10 -3 -18 -1 -18 4 0 6 5
10 11 10 5 0 8 4 4 9 -3 5 4 12 15 16 11 3 20 11 20 17 0 5 6 8 14 5 9 -4 13
0 11 11 -1 9 5 20 14 23 18 7 41 -7 41 -25z m-730 -770 c0 -3 -4 -8 -10 -11
-5 -3 -10 -1 -10 4 0 6 5 11 10 11 6 0 10 -2 10 -4z m530 -536 c0 -5 -5 -10
-11 -10 -5 0 -7 5 -4 10 3 6 8 10 11 10 2 0 4 -4 4 -10z"/>
<path d="M5655 6269 c-4 -6 -5 -12 -2 -15 2 -3 7 2 10 11 7 17 1 20 -8 4z"/>
<path d="M5620 6220 c-9 -6 -10 -10 -3 -10 6 0 15 5 18 10 8 12 4 12 -15 0z"/>
<path d="M5675 6220 c-3 -5 -1 -10 4 -10 6 0 11 5 11 10 0 6 -2 10 -4 10 -3 0
-8 -4 -11 -10z"/>
<path d="M5536 6155 c-9 -26 -7 -32 5 -12 6 10 9 21 6 23 -2 3 -7 -2 -11 -11z"/>
<path d="M5486 6113 c-6 -14 -5 -15 5 -6 7 7 10 15 7 18 -3 3 -9 -2 -12 -12z"/>
<path d="M5855 6060 c-3 -6 1 -7 9 -4 18 7 21 14 7 14 -6 0 -13 -4 -16 -10z"/>
<path d="M5400 6030 c-9 -6 -10 -10 -3 -10 6 0 15 5 18 10 8 12 4 12 -15 0z"/>
<path d="M5360 5980 c-8 -5 -10 -10 -5 -10 6 0 17 5 25 10 8 5 11 10 5 10 -5
0 -17 -5 -25 -10z"/>
<path d="M5055 5681 c-3 -5 -2 -12 3 -15 5 -3 9 1 9 9 0 17 -3 19 -12 6z"/>
<path d="M6236 5658 c3 -5 10 -6 15 -3 13 9 11 12 -6 12 -8 0 -12 -4 -9 -9z"/>
<path d="M6230 5625 c-14 -8 -20 -14 -14 -15 5 0 19 7 30 15 24 18 16 19 -16
0z"/>
<path d="M4990 5579 c0 -5 5 -7 10 -4 6 3 10 8 10 11 0 2 -4 4 -10 4 -5 0 -10
-5 -10 -11z"/>
<path d="M6185 5569 c-4 -6 -5 -12 -2 -15 2 -3 7 2 10 11 7 17 1 20 -8 4z"/>
<path d="M6136 5535 c-9 -26 -7 -32 5 -12 6 10 9 21 6 23 -2 3 -7 -2 -11 -11z"/>
<path d="M5820 5220 c-8 -5 -10 -10 -5 -10 6 0 17 5 25 10 8 5 11 10 5 10 -5
0 -17 -5 -25 -10z"/>
<path d="M4975 5200 c3 -5 8 -10 11 -10 2 0 4 5 4 10 0 6 -5 10 -11 10 -5 0
-7 -4 -4 -10z"/>
<path d="M4995 5170 c3 -5 8 -10 11 -10 2 0 4 5 4 10 0 6 -5 10 -11 10 -5 0
-7 -4 -4 -10z"/>
<path d="M5785 5170 c-3 -6 1 -7 9 -4 18 7 21 14 7 14 -6 0 -13 -4 -16 -10z"/>
<path d="M5755 5160 c-3 -5 -1 -10 4 -10 6 0 11 5 11 10 0 6 -2 10 -4 10 -3 0
-8 -4 -11 -10z"/>
<path d="M5025 5130 c-3 -6 1 -7 9 -4 18 7 21 14 7 14 -6 0 -13 -4 -16 -10z"/>
<path d="M5066 5078 c3 -5 10 -6 15 -3 13 9 11 12 -6 12 -8 0 -12 -4 -9 -9z"/>
<path d="M5631 5027 c-13 -21 -12 -21 5 -5 10 10 16 20 13 22 -3 3 -11 -5 -18
-17z"/>
<path d="M5407 4959 c7 -7 15 -10 18 -7 3 3 -2 9 -12 12 -14 6 -15 5 -6 -5z"/>
<path d="M6020 7640 c-9 -6 -10 -10 -3 -10 6 0 15 5 18 10 8 12 4 12 -15 0z"/>
<path d="M5965 7599 c-4 -6 -4 -13 -1 -16 3 -3 -5 -14 -17 -25 l-22 -20 24 16
c14 8 25 25 26 36 2 23 -1 25 -10 9z"/>
<path d="M5910 7519 c0 -5 5 -7 10 -4 6 3 10 8 10 11 0 2 -4 4 -10 4 -5 0 -10
-5 -10 -11z"/>
<path d="M5819 7433 c-13 -16 -12 -17 4 -4 9 7 17 15 17 17 0 8 -8 3 -21 -13z"/>
<path d="M5670 7316 c0 -2 7 -9 15 -16 13 -11 14 -10 9 4 -5 14 -24 23 -24 12z"/>
<path d="M5499 7113 c-13 -16 -12 -17 4 -4 9 7 17 15 17 17 0 8 -8 3 -21 -13z"/>
<path d="M3093 6945 c0 -8 4 -12 9 -9 5 3 6 10 3 15 -9 13 -12 11 -12 -6z"/>
<path d="M3157 6943 c-4 -3 -2 -12 3 -18 8 -9 5 -14 -10 -18 -11 -3 -17 -1
-14 4 6 10 -26 5 -80 -12 -24 -7 -27 -6 -22 8 6 14 4 14 -10 2 -17 -14 -47
-22 -39 -10 2 4 -2 8 -10 8 -8 0 -12 -4 -9 -9 3 -4 -2 -8 -11 -8 -10 0 -14 5
-10 13 4 6 -1 3 -10 -8 -9 -11 -19 -18 -23 -17 -4 2 -15 8 -24 13 -13 7 -16 6
-12 -4 3 -8 -2 -14 -10 -14 -8 0 -13 3 -11 7 2 4 -2 7 -10 7 -8 0 -11 -5 -8
-10 4 -6 0 -8 -10 -4 -10 3 -17 2 -17 -3 0 -6 -5 -10 -11 -10 -5 0 -7 5 -3 12
4 7 3 8 -5 4 -6 -4 -18 -3 -25 3 -9 8 -13 7 -13 -4 0 -8 4 -12 8 -9 4 2 10 1
13 -4 3 -5 -17 -8 -44 -8 -26 1 -46 -2 -43 -6 7 -13 -12 -9 -26 5 -7 6 -12 8
-11 2 5 -22 -1 -29 -10 -15 -8 13 -10 12 -10 -2 0 -10 -5 -18 -11 -18 -5 0 -8
4 -4 9 3 5 1 13 -5 16 -6 4 -9 1 -8 -7 2 -7 -3 -12 -9 -10 -7 1 -13 -4 -13
-10 0 -9 -3 -8 -10 2 -8 12 -12 11 -30 -8 -17 -18 -25 -21 -36 -11 -10 8 -14
8 -14 0 0 -6 -5 -11 -11 -11 -5 0 -7 6 -3 13 4 6 -1 5 -12 -4 -33 -26 -69 -38
-87 -28 -13 8 -15 6 -11 -6 3 -8 1 -15 -5 -15 -6 0 -11 6 -12 13 0 6 -4 3 -9
-8 -5 -11 -9 -14 -9 -7 -1 7 -6 10 -11 7 -6 -4 -7 -12 -3 -18 4 -7 0 -6 -10 2
-16 12 -22 8 -18 -12 1 -5 -3 -6 -9 -2 -6 4 -17 2 -25 -5 -10 -8 -16 -7 -23 6
-8 15 -9 15 -15 0 -4 -10 -3 -15 3 -11 6 3 10 1 10 -5 0 -7 -8 -9 -20 -5 -12
4 -20 2 -20 -5 0 -6 -4 -8 -10 -5 -5 3 -10 1 -10 -6 0 -8 -7 -6 -19 5 -14 13
-21 14 -27 5 -4 -7 -3 -10 4 -5 6 3 14 1 17 -5 11 -17 -2 -21 -27 -8 -22 11
-22 11 -8 -6 14 -17 13 -17 -9 -10 -18 5 -22 4 -16 -5 6 -10 1 -12 -18 -8 -18
4 -24 1 -20 -9 5 -12 -8 -18 -31 -14 -4 1 -14 -3 -22 -10 -7 -6 -19 -7 -25 -3
-7 4 -9 3 -6 -3 4 -6 0 -14 -9 -17 -10 -4 -13 -2 -8 6 4 7 3 8 -4 4 -7 -4 -12
-14 -12 -22 0 -11 -4 -12 -19 -4 -14 7 -22 7 -27 -2 -4 -7 -3 -8 4 -4 7 4 12
3 12 -2 0 -5 -9 -12 -20 -15 -11 -3 -18 -1 -14 4 3 5 1 9 -4 9 -5 0 -12 -10
-15 -21 -4 -15 -11 -20 -21 -16 -9 4 -16 2 -16 -4 0 -6 -4 -7 -10 -4 -5 3 -10
1 -10 -6 0 -7 -3 -10 -6 -6 -4 3 -15 -4 -26 -16 -11 -12 -17 -16 -13 -9 3 6 1
12 -4 12 -6 0 -11 -4 -11 -10 0 -5 -13 -16 -30 -25 -16 -9 -30 -13 -30 -11 0
3 -11 -6 -24 -19 -15 -14 -32 -23 -45 -20 -13 2 -18 -1 -15 -9 5 -14 -42 -39
-57 -30 -5 3 -8 0 -7 -7 2 -6 -3 -14 -11 -17 -9 -3 -11 0 -6 9 5 8 4 11 -1 6
-5 -5 -9 -14 -9 -20 0 -7 -9 -11 -18 -10 -10 0 -16 -1 -13 -4 6 -6 -3 -15 -67
-66 -26 -21 -47 -35 -47 -30 0 4 -4 4 -8 -2 -13 -18 -47 -42 -38 -27 7 11 4
11 -13 0 -12 -7 -17 -14 -11 -16 14 -5 -91 -88 -107 -84 -8 2 -10 -3 -6 -14 4
-12 3 -15 -5 -10 -7 4 -22 0 -34 -8 -12 -9 -18 -16 -12 -16 5 0 16 6 24 13 12
10 12 9 0 -6 -8 -11 -21 -16 -33 -13 -14 3 -17 2 -9 -6 8 -8 4 -16 -13 -30
-14 -11 -29 -17 -34 -13 -5 3 -12 1 -15 -4 -4 -5 -1 -13 5 -17 8 -5 9 -3 4 6
-5 9 -4 11 4 6 16 -10 4 -26 -21 -26 -12 0 -19 -3 -15 -6 3 -4 0 -13 -8 -20
-17 -17 -29 -18 -19 -2 5 7 3 8 -5 4 -7 -5 -10 -10 -7 -13 9 -9 -14 -44 -25
-38 -5 4 -9 -1 -9 -9 0 -9 -7 -16 -15 -16 -9 0 -12 -6 -9 -15 5 -11 2 -13 -10
-9 -11 4 -16 1 -16 -11 0 -11 -5 -15 -15 -12 -8 4 -17 1 -21 -5 -5 -7 -2 -8 6
-3 10 6 12 4 7 -9 -4 -10 -7 -20 -7 -22 0 -2 -5 -4 -11 -4 -5 0 -7 5 -3 12 5
7 3 8 -5 4 -7 -5 -10 -14 -7 -21 7 -19 -5 -27 -21 -13 -11 8 -12 7 -7 -6 9
-24 -15 -48 -40 -40 -20 6 -20 5 -3 -8 18 -13 17 -16 -16 -45 -20 -17 -33 -33
-31 -36 3 -2 -9 -16 -25 -30 -16 -13 -27 -28 -24 -31 4 -3 2 -6 -3 -6 -6 0
-15 5 -20 10 -7 7 -11 6 -11 -4 0 -8 3 -15 6 -14 18 2 19 -4 4 -21 -9 -11 -20
-18 -25 -15 -5 3 -8 2 -7 -3 3 -20 -2 -34 -11 -28 -5 3 -10 -4 -10 -15 0 -15
-5 -20 -15 -17 -8 4 -17 1 -21 -5 -5 -7 -2 -8 6 -3 8 5 11 3 8 -6 -3 -8 -10
-14 -16 -14 -5 0 -14 -4 -19 -9 -5 -5 -3 -6 5 -2 15 9 15 4 0 -29 -6 -14 -15
-25 -20 -25 -4 0 -8 -6 -8 -14 0 -8 -4 -18 -10 -21 -6 -4 -7 1 -4 12 5 14 4
15 -4 4 -6 -8 -8 -20 -5 -28 3 -7 0 -13 -6 -13 -6 0 -11 -7 -11 -16 0 -11 -5
-14 -16 -10 -15 6 -15 4 -3 -10 12 -15 11 -16 -11 -10 -19 6 -21 5 -10 -3 13
-9 12 -12 -5 -26 -11 -9 -14 -14 -8 -10 8 4 13 0 13 -10 0 -11 -5 -15 -16 -11
-10 4 -13 2 -8 -6 5 -8 2 -9 -11 -4 -15 5 -16 4 -5 -9 8 -10 9 -15 2 -15 -7 0
-9 -7 -5 -17 5 -12 3 -14 -7 -8 -10 6 -12 4 -7 -9 4 -11 3 -15 -4 -11 -6 4
-10 1 -8 -6 3 -29 -1 -41 -14 -36 -8 3 -14 -1 -14 -9 0 -7 5 -10 11 -7 6 4 5
-1 -2 -10 -8 -9 -11 -21 -7 -28 4 -6 2 -15 -5 -19 -8 -5 -15 -19 -17 -32 -2
-18 -1 -20 7 -8 8 13 10 13 10 -2 0 -9 -6 -19 -12 -21 -10 -4 -10 -6 0 -6 16
-1 16 -68 0 -75 -7 -3 -5 -4 6 -3 17 2 25 -11 28 -50 1 -7 8 -15 15 -17 10 -4
13 -16 9 -43 -4 -26 -3 -33 3 -23 5 8 7 18 5 22 -3 4 0 8 5 8 10 0 15 -14 12
-32 0 -5 3 -8 9 -8 16 0 60 -42 54 -51 -3 -5 1 -6 9 -3 8 3 18 0 22 -5 3 -6
11 -8 17 -5 7 4 8 2 4 -4 -6 -11 6 -16 27 -13 4 0 7 -4 7 -10 0 -5 4 -8 9 -4
5 3 17 -5 25 -17 9 -12 16 -19 16 -15 0 13 57 -21 91 -55 18 -18 29 -26 25
-18 -4 9 -2 8 7 -2 8 -10 17 -15 20 -11 4 3 7 -2 7 -11 0 -13 5 -16 18 -12 14
5 13 3 -3 -10 -20 -16 -20 -16 3 -9 14 4 22 2 22 -6 0 -7 3 -10 6 -6 5 5 13 0
71 -48 13 -11 25 -29 25 -41 1 -13 9 -21 22 -21 19 -2 19 -1 4 8 -10 6 -18 14
-18 19 0 6 9 2 20 -7 18 -16 19 -18 2 -37 -12 -14 -13 -17 -2 -11 8 5 21 10
28 11 10 2 11 -1 1 -12 -9 -12 -9 -13 2 -9 8 3 23 -2 34 -11 11 -8 13 -13 5
-9 -10 4 -9 2 3 -8 9 -8 17 -20 17 -28 0 -11 2 -11 10 1 8 13 10 12 10 -2 0
-10 5 -18 10 -18 6 0 10 -7 10 -15 0 -8 6 -15 14 -15 8 0 23 -13 33 -30 9 -16
21 -30 25 -30 4 0 8 -7 8 -16 0 -9 5 -12 13 -8 9 6 9 5 -1 -8 -10 -13 -9 -18
5 -29 17 -13 17 -13 3 5 -14 18 -14 19 7 6 17 -11 19 -17 11 -27 -6 -8 -8 -16
-4 -20 3 -3 6 0 6 7 0 7 11 1 25 -14 27 -29 32 -42 13 -30 -7 5 4 -9 25 -29
20 -21 37 -47 37 -57 0 -11 5 -20 11 -20 6 0 9 -9 6 -19 -4 -15 -1 -18 12 -13
14 5 14 3 3 -10 -10 -13 -10 -18 -1 -24 8 -5 10 -3 5 7 -4 8 2 3 14 -10 11
-13 19 -30 16 -38 -3 -7 -1 -13 4 -13 6 0 10 -7 10 -15 0 -8 5 -15 10 -15 6 0
10 -5 10 -11 0 -5 -4 -8 -9 -5 -11 7 -8 -21 4 -31 4 -4 5 -2 1 5 -4 6 -2 12 3
12 6 0 11 -4 11 -10 0 -17 3 -25 17 -38 7 -7 13 -21 13 -31 0 -9 6 -23 13 -30
10 -11 9 -14 -1 -18 -8 -3 -5 -11 10 -25 13 -11 17 -17 11 -13 -18 9 -16 -3 3
-22 13 -13 13 -17 2 -24 -10 -7 -9 -9 4 -9 13 0 17 -8 14 -34 -1 -19 1 -33 5
-30 4 2 11 -5 14 -17 5 -14 2 -25 -6 -30 -11 -7 -11 -9 2 -9 9 0 19 -10 23
-22 8 -32 7 -40 -3 -34 -5 4 -8 -2 -6 -11 2 -10 4 -22 4 -26 1 -5 5 -5 11 -2
6 3 7 -1 4 -9 -3 -9 -2 -16 3 -16 5 0 10 -10 10 -22 1 -13 4 -38 8 -57 5 -23
3 -31 -4 -26 -6 3 -9 11 -6 16 4 5 1 9 -4 9 -14 0 -14 -17 -1 -25 5 -3 15 -16
22 -28 10 -20 10 -21 -6 -8 -14 12 -16 12 -10 -3 3 -9 11 -16 18 -16 6 0 4 -5
-4 -10 -8 -5 -10 -10 -4 -10 14 0 14 -31 0 -49 -9 -12 -8 -13 3 -6 11 6 13 4
8 -8 -3 -10 -2 -17 3 -17 6 0 10 -5 10 -11 0 -5 -5 -7 -12 -3 -7 5 -8 3 -2 -7
12 -19 11 -42 -1 -51 -7 -5 -7 -8 0 -8 6 0 10 -36 8 -92 -2 -139 -2 -135 -13
-118 -5 8 -10 10 -10 4 0 -6 3 -14 7 -18 11 -10 12 -36 2 -36 -5 0 -9 -5 -9
-11 0 -5 4 -7 10 -4 6 3 7 -1 4 -10 -5 -13 -9 -13 -22 -3 -12 10 -11 6 2 -15
12 -17 15 -32 9 -40 -4 -6 -8 -26 -8 -44 0 -17 -2 -30 -6 -27 -4 2 -10 -3 -13
-12 -3 -8 -2 -12 4 -9 6 3 10 1 10 -4 0 -6 -4 -11 -8 -11 -5 0 -8 -10 -7 -22
1 -13 -5 -29 -12 -37 -10 -9 -11 -17 -4 -24 7 -7 5 -15 -7 -24 -9 -8 -12 -12
-6 -9 6 3 11 -1 11 -9 0 -8 -4 -12 -9 -9 -4 3 -8 -6 -8 -20 0 -14 -6 -26 -12
-26 -10 0 -9 -3 1 -9 11 -7 9 -10 -7 -15 -20 -7 -23 -20 -9 -43 4 -6 2 -15 -4
-19 -8 -5 -9 -3 -4 6 5 9 4 11 -4 6 -9 -6 -9 -11 1 -24 11 -13 10 -15 -5 -9
-15 6 -16 4 -6 -16 12 -21 11 -21 -6 -7 -17 14 -17 14 -7 -7 9 -16 9 -24 0
-29 -7 -4 -8 -3 -4 4 5 8 1 10 -10 5 -14 -5 -14 -7 -1 -15 14 -7 14 -12 -1
-40 -9 -18 -24 -39 -32 -47 -13 -13 -13 -14 -1 -6 22 15 3 -16 -20 -33 -10 -7
-16 -18 -13 -25 2 -7 -7 -33 -20 -57 -14 -25 -32 -59 -41 -76 -9 -17 -25 -41
-35 -52 -11 -12 -20 -26 -20 -32 0 -5 -5 -10 -11 -10 -5 0 -7 -5 -4 -10 4 -6
1 -9 -7 -8 -7 2 -13 -6 -13 -16 0 -11 -6 -21 -14 -24 -9 -3 -11 0 -6 8 5 9 4
11 -4 6 -6 -4 -9 -11 -6 -16 9 -14 -6 -39 -20 -33 -10 3 -13 -1 -10 -16 4 -20
3 -20 -23 -5 -20 12 -22 12 -9 1 9 -8 17 -17 17 -21 0 -11 -62 -76 -69 -72 -3
2 -15 -2 -26 -10 -10 -8 -14 -14 -9 -14 6 0 15 5 22 12 7 7 12 9 12 5 0 -10
-69 -77 -80 -77 -5 0 -6 -7 -3 -17 4 -10 2 -14 -4 -10 -6 4 -14 -3 -18 -16 -4
-12 -8 -24 -10 -27 -1 -3 -5 -13 -9 -22 -5 -10 -13 -15 -20 -11 -7 4 -7 1 1
-7 10 -11 9 -16 -5 -27 -9 -8 -12 -12 -6 -9 17 8 9 -33 -9 -47 -16 -11 -16
-14 -2 -32 16 -19 16 -19 5 3 -6 13 -7 22 -1 22 17 0 18 -34 2 -53 -12 -14
-12 -18 -2 -15 7 2 16 -3 19 -11 2 -8 0 -11 -5 -8 -5 3 -10 0 -10 -8 0 -8 3
-12 7 -10 10 6 32 -64 24 -77 -4 -7 -4 -10 1 -6 13 12 35 -12 28 -29 -4 -10
-2 -14 4 -10 7 4 17 -6 24 -22 9 -20 16 -26 21 -18 5 8 8 7 8 -5 0 -9 9 -20
20 -23 11 -3 20 -11 20 -16 0 -6 4 -7 10 -4 5 3 10 1 10 -5 0 -7 7 -9 15 -6 9
3 18 -1 21 -9 3 -8 12 -11 21 -8 10 4 14 2 10 -4 -4 -6 0 -13 8 -16 10 -4 12
-1 9 11 -5 14 -3 13 10 -2 12 -15 16 -16 16 -5 1 8 7 3 15 -11 8 -14 14 -20
15 -14 0 23 44 32 70 15 21 -13 23 -13 13 0 -10 12 -9 15 5 15 9 1 26 5 37 9
19 7 19 7 2 -7 -18 -13 -17 -14 2 -14 11 0 17 4 15 8 -3 4 0 8 6 8 6 0 8 5 5
10 -6 9 -2 12 28 14 13 1 21 7 74 55 20 18 34 25 37 18 2 -7 5 -1 5 12 1 19 4
21 15 12 11 -9 16 -9 22 0 4 8 3 9 -4 5 -7 -4 -12 -3 -12 2 0 17 13 22 28 9
13 -10 14 -9 3 12 -8 15 -9 21 -2 17 6 -4 11 -2 11 4 0 7 7 10 14 7 10 -4 13
-1 9 9 -3 8 1 14 10 14 8 0 22 11 31 24 10 17 23 24 37 21 17 -4 19 -2 8 11
-10 12 -9 13 5 8 11 -4 16 -2 14 6 -2 7 3 15 11 18 9 3 11 0 6 -7 -5 -9 -1 -9
14 0 15 10 17 16 8 22 -8 6 -4 7 10 4 16 -4 20 -1 16 11 -4 10 -2 13 6 8 7 -5
20 2 32 18 12 15 27 23 39 21 11 -2 19 0 17 6 -1 5 21 22 49 38 40 23 54 27
64 18 10 -9 11 -9 6 1 -12 20 4 35 22 20 10 -7 14 -8 9 -3 -9 11 69 58 83 50
6 -4 7 -11 4 -17 -4 -7 -2 -8 4 -4 6 4 9 13 6 20 -3 8 0 17 7 22 8 4 10 3 5
-4 -4 -7 -3 -12 2 -12 6 0 13 7 16 16 6 15 8 15 25 0 13 -12 21 -14 26 -6 3 6
2 9 -3 8 -6 -2 -10 2 -11 7 -1 6 5 10 12 10 6 0 18 6 25 13 8 7 19 9 25 5 16
-10 67 -11 61 -1 -3 5 -17 6 -31 3 -16 -2 -23 -1 -17 5 5 5 24 12 43 15 19 3
43 11 54 17 17 9 19 8 13 -8 -5 -17 -4 -17 6 -3 19 22 44 29 58 16 10 -9 11
-9 6 0 -8 15 34 28 64 20 11 -3 18 -2 15 3 -10 17 39 19 52 2 12 -16 13 -16 7
1 -5 12 -1 17 15 18 30 2 34 3 50 13 10 6 12 5 7 -2 -9 -14 3 -15 24 -2 9 6
20 5 29 -3 10 -8 13 -8 8 -1 -4 7 0 14 8 17 9 4 12 1 9 -7 -3 -7 2 -13 10 -13
8 0 12 5 10 11 -3 7 15 12 46 12 32 1 50 -2 50 -10 0 -6 4 -5 9 3 5 8 16 11
26 7 10 -3 24 -1 31 5 9 7 14 8 14 1 0 -5 7 -13 16 -16 10 -4 13 -2 8 6 -5 8
-1 9 12 4 32 -13 55 -15 49 -5 -11 16 7 10 22 -8 8 -10 12 -12 8 -5 -5 9 3 12
29 10 20 -1 36 -6 36 -10 0 -4 5 -8 11 -8 5 0 7 4 4 10 -3 5 -1 10 4 10 6 0
11 -5 11 -11 0 -8 6 -7 17 2 9 8 14 9 11 4 -4 -6 10 -11 35 -12 55 -1 96 -8
105 -18 4 -4 -4 -4 -18 0 -28 9 -26 3 8 -14 17 -9 22 -9 20 0 -2 6 3 14 10 16
8 3 10 -1 5 -14 -6 -16 -5 -16 10 -4 15 12 20 11 35 -3 10 -9 23 -16 28 -16 5
0 2 5 -6 10 -13 8 -12 10 3 10 9 0 17 -8 18 -17 0 -11 3 -13 6 -5 2 6 9 12 14
12 6 0 7 -6 3 -12 -5 -9 -2 -9 9 1 20 16 23 2 5 -19 -11 -12 -10 -12 4 -1 12
9 27 11 45 5 16 -4 33 -6 40 -5 6 1 15 -4 19 -10 4 -7 3 -9 -4 -5 -6 3 -13 2
-16 -3 -7 -11 13 -9 33 3 10 7 12 6 6 -4 -6 -10 -4 -12 8 -7 9 3 20 0 24 -7 5
-7 19 -19 33 -25 l25 -12 -25 20 c-29 24 -23 27 14 8 14 -8 23 -17 19 -21 -4
-4 0 -4 10 0 10 3 17 1 17 -6 0 -6 5 -8 10 -5 6 3 10 1 10 -5 0 -6 5 -8 10 -5
6 3 13 -1 16 -9 3 -9 10 -16 16 -16 5 0 6 6 2 13 -5 8 -3 8 9 -2 9 -7 14 -18
10 -25 -4 -6 0 -5 9 2 13 10 18 10 24 1 5 -8 3 -9 -7 -4 -12 8 -12 6 0 -8 14
-18 26 -23 16 -8 -3 5 -1 12 5 16 5 3 10 -1 10 -10 0 -9 6 -15 13 -12 6 2 29
-7 49 -20 21 -12 42 -23 48 -23 5 0 10 -5 10 -11 0 -5 -4 -7 -10 -4 -6 3 -7
-1 -3 -10 4 -12 8 -13 13 -5 9 14 50 -3 50 -21 0 -6 5 -7 10 -4 6 3 13 -1 16
-9 3 -9 14 -16 24 -16 20 0 53 -33 43 -44 -4 -4 1 -4 11 0 15 6 17 4 11 -6 -6
-10 -4 -12 7 -7 17 6 68 -40 68 -62 0 -7 5 -9 10 -6 12 7 92 -60 82 -69 -3 -3
0 -6 7 -6 7 0 9 -5 5 -12 -5 -8 -2 -9 10 -5 14 5 17 3 12 -8 -3 -9 0 -15 10
-15 17 0 63 -49 64 -67 0 -7 6 -13 14 -13 7 0 20 -8 27 -17 12 -16 12 -17 -2
-6 -13 10 -16 10 -16 -2 0 -8 4 -12 8 -9 5 2 25 -12 46 -32 21 -20 33 -34 28
-31 -6 3 -12 -4 -12 -16 -2 -17 0 -19 7 -7 8 13 11 13 24 0 8 -8 16 -22 18
-30 2 -8 11 -22 20 -31 10 -9 18 -29 20 -46 1 -16 8 -30 15 -30 10 0 10 4 1
14 -6 7 -9 16 -6 18 3 3 16 -16 29 -42 13 -26 30 -54 37 -61 17 -19 15 -27 -3
-12 -13 11 -14 10 -9 -4 6 -15 18 -20 38 -17 5 1 6 -5 3 -14 -4 -8 -2 -15 4
-15 6 0 7 -4 4 -10 -3 -5 1 -10 9 -10 9 0 16 -8 16 -17 1 -19 30 -65 30 -47 0
6 -6 16 -12 23 -11 10 -10 11 5 6 9 -4 17 -15 17 -25 0 -11 5 -22 12 -26 8 -5
9 -2 5 9 -5 13 2 11 31 -8 20 -13 47 -26 59 -28 13 -2 35 -14 50 -27 16 -14
22 -18 16 -10 -19 20 -16 29 7 23 11 -3 17 -10 14 -15 -3 -5 3 -4 14 3 16 10
23 10 35 0 12 -9 17 -9 23 0 5 8 3 9 -6 4 -8 -5 -11 -4 -6 3 7 11 44 11 64 -2
8 -5 10 -2 5 10 -4 12 -3 15 5 10 7 -4 12 -3 12 2 0 6 7 13 16 16 15 6 15 4 3
-11 -12 -16 -12 -17 2 -6 9 7 19 10 23 6 4 -4 5 -1 2 7 -4 10 3 19 19 27 14 6
23 8 20 4 -2 -4 2 -8 9 -8 8 0 12 6 10 12 -3 7 2 18 11 25 14 12 18 11 26 -1
7 -11 9 -11 9 4 0 10 5 15 10 12 6 -3 10 -1 10 4 0 6 5 11 11 11 5 0 7 -5 3
-12 -4 -7 -3 -8 5 -4 6 4 10 15 9 23 -2 9 4 18 12 20 12 4 12 3 1 -5 -8 -6 -9
-12 -3 -16 6 -3 14 3 17 15 5 16 9 18 15 9 6 -9 10 -7 15 9 3 12 10 19 15 16
4 -3 10 2 13 10 4 8 15 12 26 10 15 -3 18 0 14 12 -4 11 -2 14 5 9 7 -4 12 -2
12 3 0 6 3 10 8 10 4 -1 14 -1 22 0 13 1 13 2 0 11 -13 9 -13 10 1 10 8 0 28
13 44 30 22 23 31 27 42 18 10 -8 12 -7 8 5 -4 8 -1 18 6 23 7 4 10 3 6 -3 -3
-5 0 -10 7 -10 8 0 12 7 8 15 -3 10 -1 13 6 8 7 -4 12 -2 12 6 0 7 18 24 39
38 22 13 37 29 34 34 -4 6 -3 8 2 4 5 -5 14 1 22 12 14 19 49 17 36 -3 -4 -6
-1 -7 6 -2 9 5 10 10 2 18 -16 16 -13 27 5 20 10 -4 17 2 21 16 4 16 11 20 27
16 16 -5 18 -4 6 4 -12 9 -12 11 3 17 9 3 14 11 10 18 -4 6 0 6 9 -2 13 -10
18 -10 24 -1 4 8 3 9 -4 5 -17 -10 -15 3 6 28 9 13 23 21 30 18 6 -2 12 3 12
12 0 19 16 21 24 4 3 -7 3 -2 0 11 -5 18 -3 23 8 18 8 -3 21 -1 29 5 11 8 10
9 -4 4 -12 -4 -17 -2 -14 6 2 7 9 12 15 11 7 -2 9 4 5 14 -5 12 -2 15 8 11 15
-6 42 16 32 26 -4 3 -1 6 6 6 7 0 10 4 7 9 -7 11 49 32 60 23 4 -4 4 -1 0 6
-4 7 -12 10 -17 7 -20 -13 -7 9 25 40 19 18 31 36 28 40 -4 4 0 5 8 3 9 -2 14
3 12 11 -2 8 3 11 12 8 11 -4 14 0 11 14 -4 18 -2 19 12 7 10 -7 14 -8 10 -1
-10 16 3 45 18 39 8 -3 11 2 8 13 -2 10 4 24 14 32 17 13 17 13 4 -4 -8 -9
-11 -20 -7 -24 3 -3 6 -1 6 6 0 7 4 10 9 7 5 -4 8 5 7 19 -2 13 1 22 5 19 5
-3 9 2 9 10 0 8 9 20 20 26 11 6 17 16 14 22 -5 7 -2 9 9 5 9 -3 19 -1 23 5 4
6 3 8 -4 4 -6 -3 -13 -2 -16 3 -4 5 3 12 14 16 11 3 20 11 20 16 0 6 -5 7 -11
3 -7 -4 -1 7 12 25 12 17 26 31 31 31 4 0 7 5 5 11 -1 6 4 14 12 17 9 3 11 0
6 -9 -5 -8 -4 -10 0 -6 13 11 15 38 3 31 -7 -5 -8 -2 -4 5 5 7 14 10 22 7 8
-3 14 -1 14 4 0 6 -6 10 -12 10 -7 1 -3 9 10 20 13 11 21 24 18 29 -6 9 11 26
26 26 3 0 10 4 15 9 5 5 3 6 -4 2 -23 -13 -14 14 12 36 14 12 25 26 25 32 0 5
-7 1 -16 -10 -14 -18 -15 -18 -4 4 8 16 17 22 28 17 13 -5 14 -3 6 5 -12 12 3
60 19 60 5 0 5 5 2 10 -3 6 -1 10 5 10 6 0 9 4 6 9 -8 12 19 33 30 23 4 -4 2
2 -6 12 -14 18 -13 19 3 13 10 -4 16 -3 12 3 -9 14 6 61 17 54 5 -3 8 0 7 7
-4 22 10 57 26 63 8 3 15 11 15 18 0 9 -3 8 -10 -2 -5 -8 -10 -10 -10 -4 0 6
10 19 23 28 12 9 15 14 7 10 -10 -5 -8 1 5 16 11 13 14 20 8 16 -7 -4 -13 -2
-13 3 0 6 5 11 10 11 6 0 10 9 10 20 0 10 8 24 18 29 9 6 11 11 5 11 -19 0 26
80 46 81 13 0 13 2 -2 8 -20 7 -24 20 -10 30 15 11 38 45 26 37 -7 -4 -13 -2
-13 3 0 6 5 11 11 11 6 0 9 7 5 15 -3 10 1 15 12 15 15 0 15 2 2 10 -13 8 -13
11 -1 19 8 5 10 14 6 22 -6 8 -4 11 7 7 8 -4 15 0 15 8 0 7 -4 11 -9 8 -4 -3
-8 -1 -8 4 0 17 13 22 29 10 10 -8 9 -4 -3 10 -19 22 -19 22 0 22 13 0 15 3 7
8 -14 9 -9 55 6 60 6 2 7 10 4 18 -3 8 1 14 8 14 11 0 11 3 -1 10 -10 6 -11
10 -3 10 7 0 12 6 10 13 -1 6 4 11 11 9 8 -1 11 2 7 8 -3 6 -11 8 -16 5 -5 -4
-9 -1 -9 4 0 6 8 11 18 11 14 0 15 2 2 10 -12 8 -12 10 -1 10 10 0 11 3 2 14
-9 11 -9 16 0 22 8 5 10 3 4 -7 -5 -8 -4 -11 0 -6 5 4 8 25 8 47 0 22 4 43 10
47 5 3 7 2 4 -4 -3 -5 0 -10 8 -10 12 0 12 3 3 15 -15 18 -19 42 -7 42 4 0 5
7 2 17 -4 10 -2 14 4 10 5 -3 10 0 10 8 0 8 -4 12 -8 10 -4 -3 -6 3 -4 12 2
10 4 20 4 23 1 3 6 -2 12 -10 9 -12 10 -11 4 5 -12 35 -10 83 6 101 12 16 12
17 -1 10 -8 -4 -4 2 10 15 l25 22 -23 -8 -24 -7 19 28 c10 16 12 25 6 21 -7
-5 -13 -4 -13 2 0 6 6 11 13 11 9 0 9 2 0 8 -7 4 -10 17 -6 30 3 12 8 20 12
18 4 -3 7 4 7 14 0 14 -3 16 -13 8 -10 -8 -12 -7 -7 6 3 9 11 16 18 16 7 0 7
3 1 8 -5 4 -11 15 -13 26 -3 14 1 17 13 12 9 -3 13 -2 10 3 -3 5 -1 12 5 16
13 8 3 25 -13 25 -8 0 -8 -3 2 -9 9 -6 10 -11 2 -15 -6 -4 -12 -2 -12 3 -1 6
-2 17 -3 24 -1 6 1 17 5 22 10 14 9 26 -3 50 l-11 20 24 -20 c16 -14 20 -15
10 -3 -7 9 -9 23 -5 29 4 8 3 9 -5 5 -8 -6 -10 0 -5 18 4 18 2 26 -7 26 -10 0
-11 2 -2 8 12 8 12 36 0 48 -4 4 3 19 15 33 17 19 18 22 4 11 -18 -13 -19 -13
-14 2 4 9 4 19 0 22 -8 9 -9 95 0 90 3 -2 10 0 13 6 4 6 1 9 -6 8 -6 -2 -14 3
-16 10 -3 6 1 12 9 12 10 0 9 3 -2 10 -12 8 -13 11 -1 19 7 5 9 10 4 12 -6 2
-13 18 -17 34 -7 29 -7 29 9 10 15 -19 16 -19 4 5 -7 14 -14 31 -15 38 -1 8
-5 16 -8 19 -3 3 -1 15 5 26 8 14 8 18 0 13 -6 -4 -11 0 -11 9 0 9 4 14 8 11
5 -3 9 1 9 8 0 9 -7 12 -16 8 -13 -4 -14 -3 -5 9 16 21 26 51 14 44 -6 -3 -10
-14 -10 -23 -1 -15 -2 -15 -11 1 -6 10 -8 25 -5 33 3 8 2 12 -4 9 -5 -3 -14 5
-21 17 -12 22 -11 22 7 9 10 -8 2 2 -18 22 -21 20 -38 42 -38 48 0 5 -4 8 -8
5 -5 -3 -16 3 -25 12 -33 36 -39 39 -87 48 -16 4 -28 9 -26 13 3 4 -14 8 -36
8 -23 1 -45 8 -49 15 -7 10 -9 10 -9 -2 0 -13 -2 -13 -9 -1 -7 11 -10 10 -14
-5 -4 -16 -5 -17 -6 -1 0 9 -6 17 -12 17 -6 0 -9 -6 -6 -14 4 -9 -3 -13 -21
-14 -56 0 -63 -2 -56 -13 5 -8 -1 -10 -20 -7 -15 3 -25 3 -22 1 2 -3 -10 -17
-27 -33 -29 -26 -33 -27 -49 -13 -10 9 -18 11 -18 5 0 -6 6 -12 13 -15 9 -3 9
-7 -2 -20 -7 -9 -17 -14 -22 -11 -5 3 -9 0 -9 -5 0 -6 -4 -11 -9 -11 -6 0 -8
10 -6 21 3 12 1 18 -3 15 -4 -4 -7 -13 -7 -19 0 -7 -9 -11 -20 -10 -19 1 -19
1 -2 -12 14 -10 15 -14 4 -18 -8 -3 -20 0 -27 6 -10 9 -11 9 -6 0 11 -20 -3
-36 -19 -23 -9 8 -14 6 -19 -5 -4 -11 -2 -14 6 -9 7 4 8 3 4 -4 -4 -7 -18 -12
-32 -12 -14 0 -23 -4 -20 -9 3 -5 -1 -11 -9 -14 -10 -4 -12 -1 -9 11 4 11 -2
8 -14 -7 -19 -23 -20 -23 -25 -5 -4 17 -5 17 -6 1 0 -10 -5 -15 -11 -12 -5 3
-7 0 -4 -9 4 -11 -2 -14 -25 -12 -16 1 -29 0 -29 -3 2 -18 -4 -22 -16 -11 -12
9 -17 7 -28 -9 -14 -22 -33 -30 -23 -8 4 6 0 5 -7 -3 -13 -14 -53 -40 -62 -40
-3 0 -11 7 -19 15 -13 13 -16 13 -21 -1 -4 -10 -2 -13 6 -8 7 5 8 3 3 -5 -4
-7 -16 -11 -26 -8 -11 3 -19 2 -19 -3 0 -4 -9 -10 -20 -13 -11 -3 -18 -1 -14
4 3 5 1 9 -5 9 -5 0 -12 -6 -15 -12 -5 -10 -7 -10 -12 0 -5 10 -10 9 -21 -5
-8 -10 -12 -13 -9 -6 7 13 -19 12 -31 -2 -4 -4 -2 -5 5 -1 6 4 12 3 12 -2 0
-5 -22 -8 -50 -8 -27 1 -50 -2 -50 -6 0 -5 -4 -8 -10 -8 -5 0 -7 8 -4 18 5 16
5 16 -6 0 -14 -23 -31 -23 -23 -1 6 15 5 16 -9 3 -9 -8 -14 -18 -12 -21 4 -8
-34 -4 -42 4 -4 3 -15 2 -25 -3 -13 -8 -21 -6 -29 7 -11 17 -11 17 -6 1 6 -19
-9 -25 -19 -8 -5 8 -12 7 -22 -1 -11 -10 -16 -10 -23 0 -6 11 -9 11 -14 0 -3
-8 -4 -4 -2 9 2 12 0 20 -5 16 -5 -3 -9 -13 -10 -22 0 -11 -2 -12 -6 -4 -2 6
-9 10 -14 7 -5 -3 -19 0 -31 6 -22 12 -22 11 -8 -6 14 -17 14 -18 -8 -6 -12 6
-26 9 -31 6 -13 -7 -42 5 -35 16 3 5 -2 6 -10 3 -9 -3 -13 -11 -9 -18 4 -7 1
-7 -9 1 -8 7 -18 10 -21 6 -4 -3 -17 2 -29 13 -12 10 -18 13 -13 5 6 -11 3
-13 -16 -8 -13 4 -29 7 -36 7 -6 0 -14 8 -16 18 -4 15 -5 14 -6 -2 -1 -20 -1
-20 -17 0 -8 10 -12 13 -8 5 4 -8 3 -12 -3 -8 -9 6 -41 14 -95 24 -16 3 -28
10 -28 15 0 6 -7 8 -15 4 -9 -3 -15 0 -15 9 0 8 -6 12 -13 9 -8 -3 -26 0 -41
6 -23 9 -26 13 -16 25 7 8 9 15 5 15 -4 0 -13 -7 -20 -16 -10 -15 -13 -15 -27
-1 -9 9 -18 13 -22 10 -3 -4 -6 2 -6 12 0 15 -2 16 -17 4 -11 -10 -14 -10 -9
-1 5 8 0 12 -13 12 -12 0 -26 9 -33 19 -10 16 -15 18 -27 8 -12 -9 -13 -9 -7
1 5 8 0 12 -16 12 -18 0 -20 2 -8 10 12 8 9 10 -14 10 -22 0 -27 4 -22 16 6
15 4 15 -11 3 -11 -9 -14 -10 -9 -1 6 11 -5 17 -26 13 -8 -1 -12 15 -9 33 1 5
-5 3 -14 -4 -13 -11 -14 -10 -9 5 6 14 3 16 -14 11 -17 -6 -20 -3 -15 16 4 18
3 20 -6 8 -10 -14 -16 -7 -12 14 1 5 -6 3 -15 -5 -12 -9 -15 -9 -10 -1 4 7 2
12 -4 12 -7 0 -9 7 -6 17 4 10 4 14 0 10 -4 -4 -14 -1 -23 6 -14 11 -15 10 -1
-7 14 -18 14 -19 -7 -6 -17 11 -19 17 -11 27 8 10 7 12 -6 7 -10 -4 -18 0 -22
10 -3 9 -12 16 -19 16 -8 0 -17 9 -20 20 -4 11 -11 18 -16 15 -5 -4 -9 0 -9 8
0 8 -7 17 -15 21 -9 3 -12 12 -9 23 5 15 4 16 -6 3 -9 -11 -13 -12 -17 -2 -2
7 -11 19 -19 26 -16 17 -19 30 -4 21 6 -3 7 1 3 10 -4 13 -8 14 -13 4 -6 -9
-12 -9 -24 3 -8 9 -17 22 -18 29 -2 8 -13 21 -26 30 -13 9 -23 19 -23 23 3 20
-1 26 -16 26 -15 0 -16 2 -3 10 11 7 11 10 2 10 -7 0 -11 4 -8 9 3 5 -4 11
-16 14 -17 5 -19 9 -9 21 9 11 9 16 0 22 -8 5 -10 3 -5 -7 4 -8 0 -5 -8 6 -9
11 -14 25 -12 32 3 7 1 12 -5 10 -6 -1 -18 8 -26 21 -15 21 -14 22 3 17 13 -5
12 -2 -4 7 -12 8 -19 17 -16 21 4 4 2 7 -5 7 -7 0 -10 4 -7 9 3 5 -1 12 -10
15 -8 3 -13 10 -9 15 3 5 1 12 -5 16 -5 3 -10 15 -10 26 0 10 -5 19 -12 19 -6
0 -3 10 8 22 13 15 14 18 3 10 -14 -10 -18 -10 -23 3 -4 11 -2 14 7 10 6 -4 4
0 -7 9 -10 8 -18 26 -18 40 0 16 -5 23 -12 19 -6 -4 -5 0 2 9 10 13 10 18 1
24 -8 5 -10 3 -4 -7 5 -8 4 -10 0 -6 -16 14 -15 39 1 33 9 -3 12 -1 9 4 -3 6
-13 10 -21 10 -13 0 -20 31 -15 69 2 7 -2 11 -7 7 -5 -3 -9 0 -9 7 0 7 -4 27
-7 46 -6 32 -6 33 11 20 13 -9 12 -6 -3 11 -12 14 -21 32 -22 40 0 8 -2 27 -5
42 -4 19 -1 31 11 39 16 10 16 10 0 5 -10 -3 -20 -1 -23 4 -4 6 -2 10 3 10 6
0 13 7 16 16 3 8 2 12 -3 9 -5 -3 -12 -1 -16 5 -3 5 -1 10 5 10 6 0 8 5 3 13
-11 18 -15 49 -5 43 5 -3 9 1 9 9 0 8 -3 12 -7 10 -4 -2 -7 11 -7 30 0 19 5
35 11 35 7 0 7 3 -1 8 -17 10 -11 45 10 60 16 13 16 15 -5 45 -12 17 -17 28
-11 24 6 -4 14 0 17 9 3 8 2 13 -3 9 -5 -3 -8 3 -6 12 2 10 4 18 5 18 1 0 3
16 5 35 2 19 7 49 10 65 4 17 8 37 10 45 2 8 4 16 5 18 2 1 3 11 4 21 0 11 5
23 10 28 5 4 7 3 3 -3 -3 -6 0 -11 8 -11 13 0 13 3 -1 18 -11 12 -12 19 -4 24
6 4 9 13 6 21 -3 8 -1 14 5 14 5 0 9 6 8 13 -3 27 2 37 19 37 9 0 13 4 7 8 -5
4 -11 13 -13 21 -3 12 -1 12 14 0 16 -13 16 -12 4 10 -11 22 -10 23 5 17 16
-6 16 -4 4 11 -11 13 -11 15 -1 9 9 -5 12 -3 11 5 -5 23 11 69 22 69 7 0 6 -6
-2 -17 -13 -15 -12 -15 8 -2 12 7 19 16 15 19 -11 8 -9 21 12 67 13 31 23 40
35 35 14 -5 14 -4 1 13 -12 15 -12 17 -1 10 11 -6 13 -4 8 10 -6 14 -3 16 14
12 16 -4 19 -3 11 5 -13 13 -4 40 11 31 6 -4 8 0 5 8 -6 16 16 41 28 31 5 -4
3 0 -4 9 -10 13 -9 19 2 29 9 6 19 9 25 6 5 -3 7 4 4 16 -4 19 -3 20 6 8 10
-13 11 -13 12 0 1 8 2 22 3 30 0 8 9 14 18 14 15 -1 16 2 7 19 -9 16 -9 19 3
14 8 -3 15 1 15 9 0 7 -4 11 -8 8 -4 -2 -5 6 -2 18 12 50 14 130 5 158 -8 21
-7 30 1 34 7 2 4 5 -5 5 -11 1 -15 6 -12 16 4 8 1 15 -5 15 -6 0 -11 7 -11 15
0 8 6 15 12 15 7 0 -4 11 -24 25 -24 16 -35 31 -32 40 4 10 0 13 -16 10 -19
-4 -20 -2 -8 12 11 14 11 16 -1 9 -9 -6 -20 0 -35 16 -11 13 -17 18 -12 11 14
-21 -1 -15 -25 10 -12 12 -19 16 -15 9 6 -10 2 -10 -19 0 -26 11 -26 12 -6 20
12 4 21 10 21 12 0 7 -32 -5 -49 -18 -12 -9 -13 -8 -9 5 4 9 1 16 -8 16 -7 0
-11 -4 -8 -9 8 -13 -21 -9 -34 4 -9 9 -12 9 -12 0 0 -9 -6 -10 -17 -5 -10 5
-27 8 -38 8 -11 0 -23 4 -27 9 -9 13 -37 16 -44 5 -3 -5 -10 -9 -15 -9 -6 0
-7 5 -4 10 3 6 1 10 -4 10 -6 0 -11 -5 -11 -11 0 -6 -6 -9 -12 -6 -7 2 -12 10
-10 16 1 7 -2 10 -8 6 -6 -3 -8 -10 -6 -13 6 -10 -76 -8 -91 1 -6 4 -15 2 -18
-3 -5 -8 -14 -5 -28 7 -11 10 -17 12 -13 6 9 -16 1 -16 -26 -2 -16 9 -19 8
-13 -2 6 -9 3 -10 -11 -5 -10 5 -23 8 -29 8 -5 0 -19 -3 -29 -8 -15 -6 -17 -4
-11 7 4 8 5 11 0 7 -4 -4 -17 -3 -29 3 -20 10 -20 10 -2 -5 13 -11 15 -16 6
-16 -7 0 -23 8 -34 17 -12 10 -15 11 -8 3 17 -20 15 -35 -3 -20 -12 10 -15 10
-15 -1 0 -12 -2 -12 -9 0 -5 8 -11 9 -15 3 -8 -14 -35 -9 -48 9 -8 11 -9 11
-4 -3 3 -12 0 -18 -10 -18 -8 0 -12 5 -9 10 4 6 1 9 -7 8 -7 -2 -12 3 -10 10
2 13 -1 15 -11 5z m257 -21 c3 -5 -1 -9 -9 -9 -8 0 -12 4 -9 9 3 4 7 8 9 8 2
0 6 -4 9 -8z m691 -182 c3 -5 1 -10 -4 -10 -6 0 -11 5 -11 10 0 6 2 10 4 10 3
0 8 -4 11 -10z m-920 -510 c-3 -5 1 -10 10 -10 9 0 14 4 11 8 -3 5 1 9 9 9 8
0 12 -4 9 -8 -2 -4 0 -10 5 -13 6 -4 4 -17 -5 -34 -7 -15 -14 -33 -14 -39 0
-7 -5 -13 -10 -13 -6 0 -10 -6 -9 -12 1 -7 -1 -30 -5 -50 -8 -35 -16 -43 -39
-39 -5 1 -6 -3 -2 -9 3 -6 11 -7 17 -4 7 5 8 2 2 -7 -5 -8 -9 -18 -9 -24 -1
-5 -7 -9 -14 -7 -7 1 -10 -2 -6 -8 3 -6 11 -8 16 -5 5 4 9 1 9 -4 0 -6 -5 -11
-11 -11 -6 0 -9 -7 -6 -15 4 -8 2 -17 -4 -20 -5 -4 -6 -11 -3 -17 5 -7 2 -8
-7 -3 -12 8 -12 6 0 -8 9 -12 10 -17 2 -17 -7 0 -9 -4 -6 -10 6 -9 -8 -14 -28
-11 -5 1 -6 -3 -2 -8 3 -6 13 -7 23 -4 14 6 15 4 5 -8 -7 -9 -11 -26 -8 -38 3
-17 0 -21 -11 -17 -11 4 -12 1 -6 -12 5 -9 7 -28 5 -42 -2 -14 -5 -42 -6 -62
-1 -25 -5 -34 -13 -27 -7 6 -11 4 -11 -6 0 -8 5 -15 11 -15 6 0 5 -5 -2 -12
-7 -7 -12 -17 -12 -22 0 -6 4 -5 9 2 5 9 8 3 7 -17 -1 -17 -4 -31 -8 -31 -5 0
-8 -5 -8 -11 0 -5 6 -7 13 -3 9 6 9 4 1 -7 -6 -8 -10 -23 -8 -33 1 -11 -2 -28
-8 -39 -6 -12 -6 -17 0 -13 11 7 9 -44 -3 -64 -5 -9 -4 -11 3 -6 8 5 11 -3 8
-26 -2 -18 1 -39 6 -45 7 -9 7 -13 -1 -13 -11 0 -11 -27 2 -47 4 -6 2 -15 -4
-19 -8 -5 -9 -3 -4 6 6 9 4 11 -5 5 -11 -7 -10 -10 1 -19 17 -13 21 -76 5 -76
-6 0 -4 -5 4 -10 18 -11 25 -64 7 -54 -7 4 -4 -2 6 -13 19 -21 24 -58 6 -48
-6 4 -8 14 -4 24 5 12 4 13 -6 4 -9 -9 -9 -16 -1 -26 7 -8 8 -18 4 -22 -4 -5
2 -5 12 -1 19 6 19 6 3 -12 -16 -18 -16 -20 3 -37 20 -18 29 -51 10 -40 -5 3
-10 1 -10 -4 0 -6 7 -11 16 -11 11 0 14 -6 9 -20 -4 -13 -2 -20 7 -20 10 0 9
-3 -2 -10 -12 -8 -12 -10 -1 -10 8 0 11 -3 8 -7 -4 -3 -2 -12 5 -20 9 -11 7
-12 -8 -8 -13 5 -12 2 4 -7 25 -15 20 -30 -6 -21 -14 4 -15 3 -2 -5 8 -6 18
-8 22 -6 4 3 8 1 8 -5 0 -5 -6 -12 -12 -14 -8 -3 -6 -6 4 -6 12 -1 15 -6 11
-18 -4 -10 -2 -14 4 -10 5 3 10 1 11 -6 2 -23 8 -42 20 -64 7 -13 10 -23 6
-23 -3 0 -1 -7 6 -15 7 -8 9 -15 5 -15 -4 0 -1 -8 6 -17 12 -14 12 -16 -1 -9
-8 4 -6 0 4 -8 20 -16 20 -16 0 -17 -18 0 -17 -1 2 -9 25 -10 36 -43 20 -61
-8 -9 -7 -11 6 -6 12 4 19 -2 27 -23 8 -25 7 -28 -7 -24 -9 3 -4 -2 11 -11 24
-14 26 -19 16 -31 -7 -8 -8 -14 -3 -13 19 3 34 -1 34 -12 0 -5 -5 -7 -12 -3
-6 4 0 -8 14 -27 15 -19 28 -41 30 -49 2 -8 10 -21 18 -28 8 -8 10 -11 5 -8
-6 2 -11 -4 -11 -14 0 -13 4 -16 12 -9 13 11 29 -15 25 -41 -2 -8 0 -12 5 -8
12 12 33 -12 27 -29 -4 -11 -2 -14 5 -9 11 6 17 -5 13 -26 0 -5 6 -8 15 -8 8
0 12 -5 9 -10 -4 -6 -11 -7 -17 -4 -7 4 -8 2 -4 -4 4 -6 13 -9 21 -5 11 4 13
1 9 -11 -4 -11 -2 -16 7 -14 7 2 15 -5 17 -16 3 -13 0 -16 -9 -11 -8 5 -10 4
-5 -4 6 -9 11 -9 21 -1 17 14 28 -23 11 -40 -8 -10 -6 -10 9 -2 18 9 24 6 40
-19 11 -16 23 -29 28 -29 4 0 7 -6 7 -14 0 -8 7 -17 16 -20 9 -4 14 -13 10
-21 -3 -8 -2 -14 2 -14 20 3 32 -3 32 -16 0 -8 4 -15 9 -15 5 0 38 -27 73 -60
52 -50 60 -62 48 -71 -12 -8 -10 -9 8 -4 24 7 29 -3 10 -25 -7 -8 -4 -7 8 3
23 19 40 12 23 -9 -8 -10 -6 -12 11 -9 17 3 20 0 16 -12 -6 -14 -4 -14 11 -2
15 12 16 12 10 -5 -6 -14 -4 -17 8 -12 9 3 13 2 10 -4 -3 -6 -1 -10 6 -10 6 0
18 -8 26 -17 8 -10 11 -12 7 -4 -5 10 -3 12 5 7 9 -6 9 -11 -1 -24 -10 -12
-10 -14 0 -8 15 9 52 -2 52 -15 0 -6 -9 -5 -22 1 -22 11 -22 10 -4 -4 14 -11
23 -13 32 -5 14 12 23 1 19 -24 -3 -15 -1 -16 11 -6 11 9 15 8 20 -5 3 -9 10
-13 16 -10 5 3 12 -4 15 -17 6 -22 7 -22 14 -3 7 18 8 17 8 -3 1 -13 6 -23 12
-23 5 0 7 5 3 12 -4 7 -3 8 4 4 7 -4 12 -15 12 -24 0 -15 2 -15 10 -2 7 11 10
11 10 2 0 -7 4 -10 10 -7 6 3 10 -2 10 -12 0 -15 2 -16 10 -3 6 10 10 11 10 3
0 -7 7 -13 15 -13 8 0 15 -5 15 -11 0 -5 4 -8 9 -4 6 3 14 -2 19 -11 5 -9 12
-15 15 -15 23 3 36 -1 55 -19 12 -11 33 -21 47 -22 20 -2 24 -6 19 -23 -6 -20
-6 -20 11 0 15 19 16 19 11 1 -6 -17 -5 -17 11 -5 15 13 16 12 11 -9 -5 -19
-4 -21 8 -11 19 16 48 3 40 -19 -5 -14 -3 -14 9 2 14 18 20 15 16 -8 -1 -5 6
-3 15 5 15 12 17 12 9 0 -6 -11 -4 -13 8 -8 12 4 17 1 17 -11 0 -14 2 -14 9
-3 7 12 13 12 24 3 7 -7 17 -9 20 -5 4 3 7 -1 7 -9 0 -9 8 -22 18 -29 14 -11
15 -11 5 1 -17 19 -16 27 2 27 8 0 15 -3 15 -6 0 -4 9 -12 21 -19 12 -8 18 -9
14 -3 -9 15 21 14 37 -1 7 -7 25 -13 41 -12 16 1 27 -4 27 -12 0 -7 4 -16 10
-19 5 -3 7 0 4 9 -5 12 0 14 23 10 15 -3 33 -7 40 -8 7 -1 16 -6 20 -11 4 -4
2 -5 -4 -1 -9 5 -11 2 -6 -10 5 -15 7 -15 15 0 5 9 14 16 19 16 6 0 8 -4 5 -9
-4 -5 4 -7 16 -3 16 4 19 2 13 -9 -8 -12 -6 -12 8 0 9 7 17 9 17 3 0 -5 7 -13
16 -16 15 -6 15 -4 3 11 -12 14 -12 16 0 8 8 -4 32 -9 54 -10 21 -1 43 -8 48
-16 6 -9 9 -10 9 -2 0 7 14 11 35 10 31 -2 33 -4 18 -14 -9 -7 -12 -13 -6 -13
7 0 19 7 27 16 15 15 21 11 16 -11 -1 -5 2 -7 5 -3 4 4 16 3 26 -2 12 -7 20
-6 25 2 4 6 3 8 -2 5 -6 -3 -16 -1 -24 4 -11 6 -4 9 23 7 29 -2 36 -6 32 -18
-4 -13 -4 -13 7 0 7 8 27 16 43 18 21 2 26 0 16 -6 -8 -6 -9 -12 -3 -16 5 -3
12 1 15 8 4 11 20 14 57 12 28 -2 53 1 57 7 3 5 14 -1 24 -14 l18 -24 -5 25
c-2 14 -2 19 2 13 3 -7 10 -13 15 -13 6 0 7 6 3 13 -5 7 0 6 11 -3 11 -9 16
-10 11 -2 -4 7 -1 12 8 12 9 0 16 -4 16 -8 0 -5 7 -9 15 -9 10 0 12 4 6 11 -7
8 2 12 27 13 20 1 56 4 80 7 30 3 40 1 36 -7 -3 -7 1 -4 9 5 10 13 17 14 25 6
13 -13 45 -20 37 -9 -2 5 2 17 10 27 15 18 15 18 9 -1 -5 -19 -5 -19 9 -3 8
10 17 15 20 12 3 -3 15 0 27 6 12 7 20 8 17 3 -4 -5 0 -10 7 -10 8 0 12 6 10
12 -6 15 29 16 38 1 5 -7 8 -5 8 5 0 16 13 21 75 31 11 2 26 9 34 16 11 10 16
10 29 0 10 -8 13 -9 9 -1 -8 12 28 29 52 24 8 -1 10 2 5 11 -6 10 -5 11 8 1 8
-7 18 -9 23 -5 4 4 3 -3 -4 -15 -6 -12 -7 -24 -3 -27 7 -4 8 -45 2 -53 -3 -3
-7 -31 -9 -59 -1 -14 -3 -15 -18 -3 -17 13 -17 13 -3 -5 16 -21 14 -73 -3 -95
-9 -11 -9 -13 0 -8 15 9 8 -36 -12 -76 -7 -15 -10 -25 -5 -22 5 3 7 -5 4 -17
-3 -13 -7 -34 -10 -48 -3 -14 -12 -31 -21 -38 -10 -7 -12 -12 -5 -12 7 0 12
-7 12 -15 0 -8 -4 -15 -8 -15 -4 0 -9 -9 -10 -20 -1 -11 -3 -29 -4 -40 -1 -11
-7 -19 -13 -16 -7 2 -12 -2 -12 -10 0 -7 3 -11 7 -9 4 2 7 -2 7 -10 0 -8 -5
-11 -10 -8 -6 4 -8 -1 -4 -11 4 -11 3 -15 -4 -10 -7 4 -9 0 -5 -14 5 -14 0
-25 -16 -37 -15 -12 -17 -15 -5 -12 9 4 17 2 17 -3 0 -6 -4 -10 -10 -10 -5 0
-15 -10 -21 -22 -12 -22 -11 -22 6 -8 17 14 17 14 5 -7 -8 -12 -19 -19 -25
-15 -5 3 -4 -2 4 -11 9 -12 10 -17 2 -17 -7 0 -9 -4 -6 -10 3 -6 -1 -10 -9
-10 -9 0 -16 -5 -16 -11 0 -5 4 -8 9 -5 5 4 7 -3 4 -14 -3 -11 -9 -20 -14 -20
-5 0 -8 -3 -7 -7 3 -16 -15 -63 -24 -63 -6 0 -8 -6 -5 -14 3 -8 -1 -17 -10
-20 -8 -4 -13 -12 -10 -20 3 -8 -2 -16 -14 -19 -13 -4 -17 -10 -12 -23 5 -13
3 -15 -8 -9 -11 7 -11 5 1 -10 12 -15 12 -17 1 -10 -11 6 -13 4 -8 -9 5 -14 3
-17 -8 -12 -8 3 -15 1 -15 -3 0 -5 5 -11 11 -13 8 -3 6 -10 -5 -20 -9 -9 -16
-21 -16 -27 0 -6 -4 -11 -10 -11 -5 0 -9 -3 -8 -7 3 -15 -35 -82 -44 -77 -4 3
-8 -2 -8 -10 0 -26 -1 -30 -12 -44 -6 -7 -16 -11 -23 -8 -6 2 -11 -5 -11 -18
1 -11 -4 -20 -10 -19 -7 1 -10 -6 -7 -17 3 -11 0 -20 -6 -20 -6 0 -10 -5 -8
-12 2 -11 -2 -13 -35 -17 -9 -1 -8 -4 2 -11 8 -5 10 -10 5 -10 -6 0 -16 -14
-22 -30 -6 -17 -17 -30 -25 -30 -10 0 -9 3 2 10 8 5 10 10 4 10 -19 0 -24 -13
-11 -28 9 -13 9 -14 0 -8 -7 4 -13 3 -13 -2 0 -19 -39 -54 -52 -46 -9 5 -8 1
2 -11 14 -17 13 -18 -2 -12 -10 3 -17 2 -15 -3 4 -15 -37 -70 -53 -70 -13 0
-13 -1 0 -10 12 -8 12 -10 -5 -10 -11 0 -27 -5 -35 -11 -13 -9 -12 -10 3 -5 9
3 17 1 17 -4 0 -10 -15 -14 -34 -11 -5 1 -6 -5 -3 -14 4 -9 1 -15 -8 -15 -9 0
-12 6 -9 17 5 15 4 15 -4 3 -7 -10 -8 -18 -1 -26 13 -16 -34 -49 -53 -38 -10
5 -10 4 -1 -6 16 -17 -3 -45 -21 -31 -8 6 -17 6 -26 -1 -12 -8 -12 -9 3 -4 11
3 17 0 17 -10 0 -8 -4 -13 -9 -10 -5 3 -26 -8 -46 -24 -21 -17 -33 -30 -27
-30 6 0 14 4 17 10 3 5 16 15 28 21 27 14 24 11 -32 -35 -32 -27 -49 -35 -65
-30 -21 6 -21 6 -1 -10 19 -16 19 -16 -8 -12 -23 4 -26 2 -18 -8 8 -10 7 -17
-4 -26 -8 -7 -15 -9 -15 -4 0 5 -7 -2 -16 -14 -12 -17 -19 -20 -29 -12 -10 8
-15 8 -21 -1 -4 -8 -3 -9 4 -5 7 4 12 2 12 -3 0 -6 -6 -11 -14 -11 -8 0 -18
-5 -22 -12 -5 -7 -2 -8 7 -3 8 5 11 4 6 -1 -5 -5 -11 -8 -13 -6 -2 1 -16 -9
-31 -22 -15 -14 -30 -23 -33 -19 -3 3 1 8 8 10 6 3 9 9 6 14 -3 6 -12 5 -22
-3 -10 -7 -14 -9 -11 -5 4 4 -7 22 -22 38 -16 17 -26 36 -22 42 3 5 2 7 -4 4
-10 -6 -73 63 -73 80 0 5 -10 13 -21 18 -12 6 -21 13 -21 17 0 4 -22 30 -51
58 -42 41 -49 53 -37 60 8 6 11 10 5 11 -30 2 -49 9 -55 19 -4 7 -11 10 -15 8
-4 -1 -13 6 -19 17 -17 29 -33 45 -40 38 -3 -4 -6 1 -6 11 0 9 -4 14 -10 11
-6 -3 -10 1 -10 9 0 9 -5 16 -11 16 -5 0 -7 5 -3 12 4 7 3 8 -5 4 -7 -5 -9
-13 -4 -20 4 -7 -1 -2 -12 11 -12 13 -26 23 -32 23 -17 0 -43 41 -36 54 4 6
-1 5 -10 -3 -14 -11 -18 -11 -23 2 -3 9 -14 19 -25 22 -11 4 -16 11 -13 17 5
7 2 9 -7 6 -19 -7 -41 16 -27 30 6 6 0 8 -18 4 -22 -4 -26 -2 -21 11 3 9 1 19
-5 23 -7 4 -8 3 -4 -4 4 -8 0 -12 -11 -12 -18 0 -66 48 -59 59 3 4 -4 7 -15 7
-19 0 -19 -1 -3 -13 10 -7 14 -13 8 -13 -15 1 -44 26 -37 33 3 4 -5 7 -19 7
-26 0 -53 22 -42 33 4 4 -3 5 -14 2 -23 -4 -66 27 -54 41 4 4 -2 2 -12 -6 -18
-13 -19 -13 -14 0 4 12 -1 16 -21 15 -14 0 -25 5 -24 12 1 6 -5 10 -15 9 -19
-3 -50 12 -70 34 -9 10 -11 10 -7 1 6 -9 1 -9 -17 3 -14 9 -28 13 -31 9 -4 -3
-7 1 -7 10 0 10 -5 17 -11 17 -5 0 -7 -4 -4 -10 3 -5 -1 -10 -9 -10 -8 0 -18
5 -22 12 -4 7 -3 8 4 4 7 -4 10 -2 6 7 -2 7 -11 14 -19 14 -8 0 -11 -5 -8 -10
4 -6 1 -7 -8 -1 -8 4 -22 10 -32 11 -10 2 -28 10 -41 18 -12 8 -25 13 -28 10
-3 -3 -26 3 -52 14 -25 11 -50 22 -54 23 -4 2 -6 7 -4 12 2 5 -3 5 -10 0 -11
-9 -32 -11 -40 -4 -4 2 -26 8 -53 13 -13 3 -19 11 -17 23 2 18 2 18 -11 2 -14
-17 -62 -14 -51 3 3 5 0 9 -5 9 -6 0 -11 -4 -11 -10 0 -6 -9 -6 -25 0 -14 5
-29 9 -33 9 -18 -3 -33 2 -28 9 3 5 -1 9 -9 9 -8 0 -12 -4 -9 -9 3 -4 1 -8 -5
-8 -5 0 -13 10 -17 22 -5 17 -8 18 -14 7 -7 -13 -24 -15 -73 -10 -5 1 -5 6 -2
12 4 6 -3 5 -14 -3 -18 -11 -23 -11 -31 2 -5 8 -7 17 -5 20 2 4 -2 7 -9 7 -7
0 -13 -6 -13 -13 0 -7 5 -10 10 -7 6 4 7 1 2 -6 -5 -9 -14 -6 -32 11 -23 22
-25 22 -38 5 -13 -18 -14 -18 -24 0 -9 15 -10 16 -11 2 0 -13 -8 -16 -32 -14
-18 1 -34 8 -36 15 -3 9 -6 9 -13 -1 -7 -11 -11 -10 -24 6 -12 16 -14 17 -9 3
4 -13 1 -18 -11 -18 -10 0 -13 4 -9 13 5 8 2 8 -9 -2 -13 -10 -20 -11 -31 -2
-10 8 -16 9 -21 1 -3 -5 -11 -10 -17 -10 -6 0 -5 7 3 18 12 15 12 16 -2 5 -9
-7 -20 -9 -24 -5 -5 4 -5 1 -1 -5 4 -8 1 -13 -8 -13 -8 0 -17 8 -19 18 -3 12
-5 10 -6 -7 -1 -24 -1 -24 -17 -5 -8 10 -13 13 -9 7 3 -7 2 -13 -4 -13 -5 0
-12 6 -14 13 -4 8 -6 7 -6 -3 -1 -11 -13 -16 -43 -17 -24 -1 -70 -4 -103 -7
-33 -4 -73 -8 -90 -9 -16 -1 -36 -6 -44 -11 -10 -6 -12 -6 -7 2 4 7 2 12 -3
12 -6 0 -11 -5 -11 -11 0 -6 -6 -9 -12 -6 -7 2 -12 10 -10 16 1 7 -2 10 -8 6
-6 -3 -7 -11 -4 -17 5 -7 -2 -9 -20 -6 -14 3 -29 1 -33 -5 -4 -6 -1 -7 8 -2
12 7 12 5 1 -6 -11 -12 -14 -12 -22 1 -7 11 -12 12 -17 3 -5 -6 -17 -13 -28
-15 -11 -1 -23 -7 -27 -13 -4 -6 -8 -2 -8 8 0 10 -7 17 -17 16 -11 0 -13 -3
-5 -6 6 -2 12 -10 12 -16 0 -5 -3 -7 -6 -4 -4 3 -15 2 -25 -3 -11 -6 -20 -6
-24 -1 -3 6 -14 8 -24 6 -16 -3 -19 1 -15 23 3 14 13 32 22 39 16 12 16 13 -1
7 -13 -5 -16 -2 -11 10 3 9 11 13 18 9 8 -4 8 -3 -1 7 -7 8 -8 22 -3 41 5 16
6 29 3 29 -3 0 0 6 6 13 6 8 7 18 3 22 -4 5 -1 5 6 1 6 -4 12 -2 12 3 0 6 -6
11 -12 12 -7 0 -4 4 7 9 11 5 15 9 9 9 -18 1 -10 49 10 64 15 11 16 16 6 22
-9 5 -11 4 -6 -3 4 -7 2 -12 -4 -12 -13 0 -2 52 14 62 8 6 8 8 0 8 -13 0 -14
31 -1 48 5 6 6 12 1 12 -5 0 -2 5 6 10 10 6 11 10 3 10 -7 0 -13 7 -13 16 0 9
5 12 13 8 9 -6 9 -5 0 7 -14 18 -8 70 10 81 9 6 9 8 0 8 -14 0 -13 66 1 89 6
10 5 12 -2 7 -16 -10 -15 7 1 23 10 11 10 13 0 7 -7 -4 -13 -3 -13 1 0 5 6 15
13 22 10 11 10 13 0 7 -7 -4 -13 -2 -13 3 0 6 6 11 13 11 9 0 9 2 0 8 -14 9
-13 52 2 52 6 0 6 3 -1 8 -16 10 -25 52 -10 46 6 -2 12 5 13 16 1 11 -3 20 -8
20 -6 0 -7 -6 -3 -12 4 -7 4 -10 -1 -6 -12 11 -16 110 -4 103 5 -4 7 -10 4
-15 -3 -5 -1 -11 4 -14 13 -8 8 19 -7 37 -10 12 -10 18 3 31 9 9 13 16 8 16
-5 0 -14 -5 -19 -10 -7 -7 -10 2 -9 27 1 21 -1 43 -4 48 -3 6 -6 18 -7 28 -1
9 -3 18 -4 20 -3 3 -9 53 -12 95 -1 17 -6 32 -10 32 -4 0 -8 5 -8 11 0 5 5 7
10 4 6 -3 10 -2 10 3 0 6 -7 12 -15 16 -8 3 -15 9 -14 13 1 4 0 10 -1 13 -2 5
-10 63 -12 88 -1 6 -4 12 -8 12 -4 0 -7 6 -8 13 -3 41 -7 57 -14 57 -4 0 -8 4
-8 9 0 6 9 8 20 6 12 -2 18 0 15 6 -4 5 -10 7 -14 4 -5 -2 -17 5 -27 16 -17
19 -17 20 2 14 18 -6 18 -6 2 8 -18 15 -24 42 -10 50 4 2 1 2 -6 1 -11 -3 -30
49 -24 69 1 4 -3 7 -9 7 -8 0 -7 5 1 15 7 9 10 18 6 22 -3 3 -6 1 -6 -5 0 -7
-5 -12 -11 -12 -5 0 -7 5 -4 10 3 6 1 10 -4 10 -6 0 -11 11 -11 25 0 14 -4 25
-8 25 -9 0 -48 91 -44 102 1 5 -2 8 -6 8 -5 0 -14 12 -21 28 l-11 27 19 -22
c16 -19 20 -20 25 -7 3 8 2 13 -2 10 -4 -2 -21 7 -37 20 -17 13 -24 24 -17 24
6 0 12 4 12 10 0 5 -8 6 -17 3 -16 -6 -17 -5 -3 12 12 15 12 17 1 10 -11 -6
-13 -4 -8 8 3 9 3 16 -1 16 -22 -4 -31 3 -25 18 5 12 3 14 -8 8 -12 -8 -12 -6
0 8 8 10 11 20 7 24 -3 3 -6 1 -6 -5 0 -7 -4 -12 -9 -12 -4 0 -8 11 -7 25 0
14 -2 24 -5 22 -13 -4 -49 36 -49 55 0 10 -5 18 -11 18 -6 0 -9 6 -6 14 3 8
-2 20 -11 28 -15 11 -16 11 -7 -2 6 -9 2 -7 -8 4 -10 11 -16 28 -13 38 4 17 2
17 -12 6 -9 -7 -14 -8 -10 -4 4 5 0 15 -10 23 -9 8 -11 12 -5 8 9 -4 11 -1 7
9 -3 9 -10 14 -14 11 -4 -2 -15 4 -25 15 -10 11 -15 20 -12 20 3 0 -5 12 -18
26 -14 15 -25 33 -25 41 0 8 -4 11 -10 8 -5 -3 -10 1 -10 10 0 10 -5 13 -12 9
-9 -5 -8 -2 1 9 12 15 12 17 -3 11 -11 -4 -16 -1 -16 11 0 9 -4 14 -9 10 -5
-3 -12 4 -16 15 -3 11 -11 19 -18 17 -6 -1 -16 8 -22 21 -5 12 -13 22 -18 22
-4 0 -5 5 -1 12 5 8 2 9 -11 4 -16 -6 -16 -4 -4 11 8 9 9 14 2 10 -6 -4 -17
-1 -25 6 -7 7 -26 22 -42 35 -16 12 -24 22 -17 22 6 0 11 4 11 10 0 5 -8 6
-17 3 -16 -6 -17 -5 -3 12 14 17 14 18 -9 6 -15 -8 -21 -9 -17 -2 4 6 0 11 -9
11 -11 0 -14 7 -11 25 3 15 1 23 -5 20 -5 -4 -7 -11 -4 -16 12 -19 -8 -8 -37
21 -16 17 -34 30 -39 30 -5 0 -9 7 -9 15 0 8 -8 15 -17 15 -25 1 -51 22 -45
38 2 7 -2 11 -10 10 -7 -2 -12 5 -11 15 0 12 -4 16 -13 13 -8 -3 -14 -1 -14 4
0 6 9 10 19 10 11 0 23 4 26 10 3 6 -1 7 -10 4 -13 -6 -14 -3 -4 19 7 15 16
24 20 21 5 -3 9 -1 9 5 0 6 8 8 18 4 14 -5 14 -3 -2 9 -19 15 -18 16 20 37 21
12 30 20 20 16 -16 -5 -17 -3 -6 10 7 8 16 13 20 10 4 -3 7 3 6 13 0 10 6 16
16 16 10 -1 16 1 13 5 -8 14 46 83 60 77 8 -3 12 0 9 7 -2 7 3 21 12 32 8 11
13 15 10 9 -3 -6 1 -11 9 -11 8 0 12 4 9 9 -8 13 37 60 53 54 7 -3 10 1 6 10
-3 7 0 14 7 14 6 0 9 4 5 9 -8 13 32 34 48 25 9 -6 8 -3 -1 8 -10 13 -10 18
-1 24 8 4 9 3 5 -4 -4 -7 -2 -12 3 -12 6 0 11 7 11 15 0 17 34 37 45 27 5 -4
6 -2 2 3 -7 13 0 23 32 50 14 11 21 14 17 8 -4 -7 -2 -13 3 -13 10 0 15 13 12
32 0 4 8 5 19 3 13 -3 17 1 13 11 -3 9 2 14 15 14 12 0 24 4 27 10 3 6 -1 7
-12 4 -10 -3 -6 2 10 11 15 9 32 13 37 10 6 -4 10 -3 9 2 -4 23 2 32 18 26 10
-4 14 -2 9 5 -3 6 2 13 13 17 11 3 22 12 25 20 3 8 12 12 21 9 8 -3 12 -11 8
-17 -3 -6 -1 -7 6 -3 8 6 9 12 2 20 -6 7 -8 16 -4 19 3 4 12 -1 20 -11 10 -13
12 -14 8 -1 -3 8 4 24 16 35 14 11 19 13 14 4 -7 -12 -6 -13 7 -3 8 7 19 9 23
5 5 -4 6 1 2 10 -7 19 16 31 31 16 6 -6 12 -6 17 3 6 8 4 10 -6 4 -8 -4 -5 1
7 12 25 24 85 58 98 55 4 -2 14 5 21 15 13 18 17 19 56 22 13 1 18 5 13 14 -5
8 -2 7 9 -2 15 -12 17 -12 11 3 -5 12 -2 15 12 9 13 -5 15 -3 9 8 -7 11 -5 11
10 -1 10 -8 16 -10 13 -5 -4 6 3 17 14 24 18 11 20 11 15 -4 -4 -9 -3 -14 3
-10 6 3 10 13 10 21 0 9 8 13 23 10 14 -2 29 4 40 18 10 11 16 15 12 8 -3 -6
10 -3 29 9 19 11 40 18 46 14 5 -3 10 -2 10 2 0 8 81 40 119 48 9 2 29 8 45
14 16 7 31 9 34 6 3 -2 12 1 20 8 9 6 13 7 9 1 -3 -6 0 -11 7 -11 8 0 12 6 9
13 -3 9 2 11 16 7 12 -3 21 -1 21 4 0 5 6 10 13 10 6 0 25 4 41 8 20 5 27 5
22 -3 -3 -6 -1 -14 5 -18 7 -4 10 -3 7 2 -9 14 15 31 40 29 12 -1 22 2 22 7 0
4 5 8 11 8 5 0 7 -5 3 -11 -3 -6 6 -3 22 7 20 14 29 15 32 6 2 -6 8 -12 13
-12 6 0 7 5 3 12 -5 8 -2 9 9 5 10 -3 17 -3 17 1 0 4 11 8 24 8 19 1 23 -2 19
-15 -5 -13 -3 -13 8 2 9 11 33 19 63 22 28 3 52 8 55 10 8 9 12 5 6 -5z m589
-741 c-3 -5 -10 -7 -15 -3 -5 3 -7 10 -3 15 3 5 10 7 15 3 5 -3 7 -10 3 -15z
m-654 -549 c0 -5 -2 -10 -4 -10 -3 0 -8 5 -11 10 -3 6 -1 10 4 10 6 0 11 -4
11 -10z m2850 -1070 c0 -5 -5 -10 -11 -10 -5 0 -7 5 -4 10 3 6 8 10 11 10 2 0
4 -4 4 -10z m-136 -761 c-3 -5 -10 -7 -15 -3 -5 3 -7 10 -3 15 3 5 10 7 15 3
5 -3 7 -10 3 -15z m-4383 -882 c-10 -9 -11 -8 -5 6 3 10 9 15 12 12 3 -3 0
-11 -7 -18z m1664 3 c3 -5 -1 -10 -9 -10 -9 0 -16 5 -16 10 0 6 4 10 9 10 6 0
13 -4 16 -10z m-940 -90 c-3 -5 -12 -10 -18 -10 -7 0 -6 4 3 10 19 12 23 12
15 0z"/>
<path d="M3215 6210 c6 -10 4 -12 -8 -7 -9 3 -18 3 -21 -1 -3 -4 4 -8 14 -9
23 -2 35 13 19 23 -8 5 -9 3 -4 -6z"/>
<path d="M3090 6199 c0 -5 5 -7 10 -4 6 3 10 8 10 11 0 2 -4 4 -10 4 -5 0 -10
-5 -10 -11z"/>
<path d="M3186 6158 c3 -5 10 -6 15 -3 13 9 11 12 -6 12 -8 0 -12 -4 -9 -9z"/>
<path d="M2760 6140 c-9 -6 -10 -10 -3 -10 6 0 15 5 18 10 8 12 4 12 -15 0z"/>
<path d="M2575 6100 c-3 -5 -1 -10 4 -10 6 0 11 5 11 10 0 6 -2 10 -4 10 -3 0
-8 -4 -11 -10z"/>
<path d="M3165 6080 c-3 -5 -1 -10 4 -10 6 0 11 5 11 10 0 6 -2 10 -4 10 -3 0
-8 -4 -11 -10z"/>
<path d="M2438 6043 c7 -3 16 -2 19 1 4 3 -2 6 -13 5 -11 0 -14 -3 -6 -6z"/>
<path d="M2146 5932 c-3 -5 1 -9 9 -9 8 0 12 4 9 9 -3 4 -7 8 -9 8 -2 0 -6 -4
-9 -8z"/>
<path d="M2074 5884 c-18 -14 -18 -14 6 -3 31 14 36 19 24 19 -6 0 -19 -7 -30
-16z"/>
<path d="M1910 5786 c0 -2 9 -6 20 -9 11 -3 18 -1 14 4 -5 9 -34 13 -34 5z"/>
<path d="M3079 5703 c-13 -16 -12 -17 4 -4 16 13 21 21 13 21 -2 0 -10 -8 -17
-17z"/>
<path d="M1620 5575 c-7 -9 -11 -17 -9 -20 3 -2 10 5 17 15 14 24 10 26 -8 5z"/>
<path d="M3053 5545 c0 -8 4 -12 9 -9 5 3 6 10 3 15 -9 13 -12 11 -12 -6z"/>
<path d="M1501 5471 c-8 -5 -9 -11 -3 -15 5 -3 12 1 16 9 6 17 6 18 -13 6z"/>
<path d="M1339 5298 c-5 -18 -6 -38 -1 -34 7 8 12 36 6 36 -2 0 -4 -1 -5 -2z"/>
<path d="M3075 5089 c-4 -6 -5 -12 -2 -15 2 -3 7 2 10 11 7 17 1 20 -8 4z"/>
<path d="M1206 4998 c3 -4 9 -8 15 -8 5 0 9 4 9 8 0 5 -7 9 -15 9 -8 0 -12 -4
-9 -9z"/>
<path d="M1420 4821 c0 -6 4 -13 10 -16 6 -3 7 1 4 9 -7 18 -14 21 -14 7z"/>
<path d="M1525 4700 c3 -5 8 -10 11 -10 2 0 4 5 4 10 0 6 -5 10 -11 10 -5 0
-7 -4 -4 -10z"/>
<path d="M1569 4683 c-13 -16 -12 -17 4 -4 9 7 17 15 17 17 0 8 -8 3 -21 -13z"/>
<path d="M3173 4651 c0 -11 5 -18 9 -15 4 3 5 11 1 19 -7 21 -12 19 -10 -4z"/>
<path d="M1655 4580 c-3 -5 -2 -17 3 -26 8 -15 10 -15 15 0 5 12 3 15 -5 10
-8 -5 -9 -2 -5 9 7 19 2 23 -8 7z"/>
<path d="M3198 4563 c7 -3 16 -2 19 1 4 3 -2 6 -13 5 -11 0 -14 -3 -6 -6z"/>
<path d="M1686 4521 c-10 -15 18 -31 34 -20 12 8 11 9 -5 7 -12 -2 -19 2 -17
10 2 14 -4 16 -12 3z"/>
<path d="M1820 4321 c0 -10 19 -25 25 -20 1 2 -3 10 -11 17 -8 7 -14 8 -14 3z"/>
<path d="M3428 4113 c7 -3 16 -2 19 1 4 3 -2 6 -13 5 -11 0 -14 -3 -6 -6z"/>
<path d="M1995 4039 c-4 -6 -5 -12 -2 -15 2 -3 7 2 10 11 7 17 1 20 -8 4z"/>
<path d="M2016 3981 c-3 -5 2 -15 12 -22 15 -12 16 -12 5 2 -7 9 -10 19 -6 22
3 4 4 7 0 7 -3 0 -8 -4 -11 -9z"/>
<path d="M3570 3926 c0 -2 8 -10 18 -17 15 -13 16 -12 3 4 -13 16 -21 21 -21
13z"/>
<path d="M3590 3886 c0 -2 7 -7 16 -10 8 -3 12 -2 9 4 -6 10 -25 14 -25 6z"/>
<path d="M3707 3767 c-3 -8 1 -14 8 -14 7 0 11 6 8 14 -3 7 -6 13 -8 13 -2 0
-5 -6 -8 -13z"/>
<path d="M3730 3736 c0 -2 7 -7 16 -10 8 -3 12 -2 9 4 -6 10 -25 14 -25 6z"/>
<path d="M3776 3705 c4 -8 10 -15 16 -15 5 0 7 -4 4 -8 -3 -5 2 -9 10 -9 11 0
9 6 -8 24 -25 27 -30 29 -22 8z"/>
<path d="M2155 3580 c-3 -5 -1 -10 4 -10 6 0 11 5 11 10 0 6 -2 10 -4 10 -3 0
-8 -4 -11 -10z"/>
<path d="M2165 3500 c3 -5 8 -10 11 -10 2 0 4 5 4 10 0 6 -5 10 -11 10 -5 0
-7 -4 -4 -10z"/>
<path d="M2210 3320 c6 -11 13 -20 16 -20 2 0 0 9 -6 20 -6 11 -13 20 -16 20
-2 0 0 -9 6 -20z"/>
<path d="M4330 3311 c0 -5 7 -12 16 -15 14 -5 15 -4 4 9 -14 17 -20 19 -20 6z"/>
<path d="M6174 3208 c-4 -7 -4 -10 1 -6 4 4 15 2 24 -5 14 -11 14 -10 2 6 -16
20 -18 21 -27 5z"/>
<path d="M4606 3182 c-3 -5 1 -9 9 -9 8 0 12 4 9 9 -3 4 -7 8 -9 8 -2 0 -6 -4
-9 -8z"/>
<path d="M6210 3140 c-9 -6 -10 -10 -3 -10 6 0 15 5 18 10 8 12 4 12 -15 0z"/>
<path d="M5699 3083 c-13 -16 -12 -17 4 -4 16 13 21 21 13 21 -2 0 -10 -8 -17
-17z"/>
<path d="M6145 2800 c-3 -6 1 -7 9 -4 18 7 21 14 7 14 -6 0 -13 -4 -16 -10z"/>
<path d="M2243 2698 c-11 -19 -13 -39 -1 -32 5 3 7 9 4 12 -3 3 -1 11 5 19 6
7 9 13 6 13 -3 0 -9 -6 -14 -12z"/>
<path d="M2603 2234 c0 -9 4 -11 12 -4 7 5 14 9 16 7 2 -1 3 0 1 2 -7 11 -29
7 -29 -5z"/>
<path d="M2667 2239 c7 -7 15 -10 18 -7 3 3 -2 9 -12 12 -14 6 -15 5 -6 -5z"/>
<path d="M3369 2203 c-13 -16 -12 -17 4 -4 9 7 17 15 17 17 0 8 -8 3 -21 -13z"/>
<path d="M2176 2187 c3 -10 9 -15 12 -12 3 3 0 11 -7 18 -10 9 -11 8 -5 -6z"/>
<path d="M3550 2159 c0 -5 5 -7 10 -4 6 3 10 8 10 11 0 2 -4 4 -10 4 -5 0 -10
-5 -10 -11z"/>
<path d="M3589 2153 c-13 -16 -12 -17 4 -4 16 13 21 21 13 21 -2 0 -10 -8 -17
-17z"/>
<path d="M3655 2140 c3 -5 8 -10 11 -10 2 0 4 5 4 10 0 6 -5 10 -11 10 -5 0
-7 -4 -4 -10z"/>
<path d="M3790 2090 c-9 -6 -10 -10 -3 -10 6 0 15 5 18 10 8 12 4 12 -15 0z"/>
<path d="M5865 2080 c-3 -6 1 -7 9 -4 18 7 21 14 7 14 -6 0 -13 -4 -16 -10z"/>
<path d="M3936 2038 c3 -5 10 -6 15 -3 13 9 11 12 -6 12 -8 0 -12 -4 -9 -9z"/>
<path d="M4005 2000 c10 -11 20 -20 23 -20 3 0 -3 9 -13 20 -10 11 -20 20 -23
20 -3 0 3 -9 13 -20z"/>
<path d="M4217 1903 c-4 -3 -7 -11 -7 -17 0 -6 5 -5 12 2 6 6 9 14 7 17 -3 3
-9 2 -12 -2z"/>
<path d="M4488 1712 c9 -10 19 -17 21 -16 6 5 -20 34 -30 34 -5 0 -1 -8 9 -18z"/>
<path d="M5555 1610 c-4 -6 -10 -8 -15 -5 -5 3 -11 1 -14 -4 -8 -13 22 -7 36
7 7 7 9 12 6 12 -4 0 -10 -5 -13 -10z"/>
<path d="M4705 1520 c3 -5 8 -10 11 -10 2 0 4 5 4 10 0 6 -5 10 -11 10 -5 0
-7 -4 -4 -10z"/>
<path d="M5436 1478 c3 -5 10 -6 15 -3 13 9 11 12 -6 12 -8 0 -12 -4 -9 -9z"/>
<path d="M4807 1429 c7 -7 15 -10 18 -7 3 3 -2 9 -12 12 -14 6 -15 5 -6 -5z"/>
<path d="M4896 1367 c3 -10 9 -15 12 -12 3 3 0 11 -7 18 -10 9 -11 8 -5 -6z"/>
<path d="M4875 1350 c3 -5 8 -10 11 -10 2 0 4 5 4 10 0 6 -5 10 -11 10 -5 0
-7 -4 -4 -10z"/>
<path d="M4920 1305 c0 -2 6 -8 13 -14 10 -8 14 -7 14 2 0 8 -6 14 -14 14 -7
0 -13 -1 -13 -2z"/>
<path d="M4965 1260 c-3 -5 -2 -10 4 -10 5 0 13 5 16 10 3 6 2 10 -4 10 -5 0
-13 -4 -16 -10z"/>
<path d="M5196 1258 c3 -5 10 -6 15 -3 13 9 11 12 -6 12 -8 0 -12 -4 -9 -9z"/>
<path d="M5073 1175 c0 -8 4 -12 9 -9 5 3 6 10 3 15 -9 13 -12 11 -12 -6z"/>
<path d="M3555 6939 c-4 -6 -5 -12 -2 -15 2 -3 7 2 10 11 7 17 1 20 -8 4z"/>
<path d="M3235 6930 c3 -5 8 -10 11 -10 2 0 4 5 4 10 0 6 -5 10 -11 10 -5 0
-7 -4 -4 -10z"/>
<path d="M3590 6936 c0 -2 7 -7 16 -10 8 -3 12 -2 9 4 -6 10 -25 14 -25 6z"/>
<path d="M3770 6919 c0 -5 5 -7 10 -4 6 3 10 8 10 11 0 2 -4 4 -10 4 -5 0 -10
-5 -10 -11z"/>
<path d="M5264 6878 l-19 -23 23 19 c21 18 27 26 19 26 -2 0 -12 -10 -23 -22z"/>
<path d="M6170 6795 c-11 -13 -10 -14 4 -9 9 3 16 10 16 15 0 13 -6 11 -20 -6z"/>
<path d="M2395 6790 c3 -5 8 -10 11 -10 2 0 4 5 4 10 0 6 -5 10 -11 10 -5 0
-7 -4 -4 -10z"/>
<path d="M6180 6746 c0 -2 8 -10 18 -17 15 -13 16 -12 3 4 -13 16 -21 21 -21
13z"/>
<path d="M4153 6635 c0 -8 4 -12 9 -9 5 3 6 10 3 15 -9 13 -12 11 -12 -6z"/>
<path d="M6326 6598 c3 -5 10 -6 15 -3 13 9 11 12 -6 12 -8 0 -12 -4 -9 -9z"/>
<path d="M6392 6534 c10 -10 20 -16 22 -13 3 3 -5 11 -17 18 -21 13 -21 12 -5
-5z"/>
<path d="M4150 6526 c0 -2 7 -7 16 -10 8 -3 12 -2 9 4 -6 10 -25 14 -25 6z"/>
<path d="M1696 6483 c-6 -14 -5 -15 5 -6 7 7 10 15 7 18 -3 3 -9 -2 -12 -12z"/>
<path d="M4150 6479 c0 -5 5 -7 10 -4 6 3 10 8 10 11 0 2 -4 4 -10 4 -5 0 -10
-5 -10 -11z"/>
<path d="M7594 6466 c3 -24 22 -40 31 -27 3 7 1 10 -6 9 -7 -2 -13 2 -14 9 0
6 -3 14 -7 18 -3 4 -5 0 -4 -9z"/>
<path d="M6466 6458 c3 -5 10 -6 15 -3 13 9 11 12 -6 12 -8 0 -12 -4 -9 -9z"/>
<path d="M4799 6413 c-13 -16 -12 -17 4 -4 16 13 21 21 13 21 -2 0 -10 -8 -17
-17z"/>
<path d="M7020 6420 c-9 -6 -10 -10 -3 -10 6 0 15 5 18 10 8 12 4 12 -15 0z"/>
<path d="M1555 6400 c3 -5 8 -10 11 -10 2 0 4 5 4 10 0 6 -5 10 -11 10 -5 0
-7 -4 -4 -10z"/>
<path d="M4054 6319 c-4 -7 -3 -9 4 -5 5 3 13 0 15 -6 4 -9 6 -10 6 -1 1 17
-16 25 -25 12z"/>
<path d="M6626 6298 c3 -5 10 -6 15 -3 13 9 11 12 -6 12 -8 0 -12 -4 -9 -9z"/>
<path d="M1394 6284 c-18 -14 -18 -15 4 -4 12 6 22 13 22 15 0 8 -5 6 -26 -11z"/>
<path d="M1360 6261 c0 -7 -5 -9 -12 -5 -7 5 -8 3 -3 -5 5 -9 10 -10 18 -2 6
6 8 14 4 18 -4 3 -7 1 -7 -6z"/>
<path d="M4634 6248 l-19 -23 23 19 c21 18 27 26 19 26 -2 0 -12 -10 -23 -22z"/>
<path d="M1315 6240 c-3 -5 -1 -10 4 -10 6 0 11 5 11 10 0 6 -2 10 -4 10 -3 0
-8 -4 -11 -10z"/>
<path d="M6754 6189 c-10 -17 9 -30 26 -18 12 9 12 10 -4 5 -13 -5 -17 -2 -12
9 6 17 0 20 -10 4z"/>
<path d="M1250 6181 c0 -7 -5 -9 -12 -5 -7 5 -8 3 -3 -5 5 -9 10 -10 18 -2 6
6 8 14 4 18 -4 3 -7 1 -7 -6z"/>
<path d="M4560 6175 c-7 -8 -17 -12 -23 -8 -6 3 -7 1 -3 -5 3 -6 -2 -15 -11
-21 -10 -6 -13 -11 -7 -11 5 0 23 14 39 30 16 17 26 30 23 30 -3 0 -11 -7 -18
-15z"/>
<path d="M1209 6143 c-13 -16 -12 -17 4 -4 16 13 21 21 13 21 -2 0 -10 -8 -17
-17z"/>
<path d="M1175 6120 c3 -5 8 -10 11 -10 2 0 4 5 4 10 0 6 -5 10 -11 10 -5 0
-7 -4 -4 -10z"/>
<path d="M7660 6106 c0 -2 7 -7 16 -10 8 -3 12 -2 9 4 -6 10 -25 14 -25 6z"/>
<path d="M7626 6034 c-9 -24 -2 -26 12 -4 7 11 8 20 3 20 -5 0 -12 -7 -15 -16z"/>
<path d="M1069 6023 c-13 -16 -12 -17 4 -4 16 13 21 21 13 21 -2 0 -10 -8 -17
-17z"/>
<path d="M3895 6020 c-3 -5 -1 -10 4 -10 6 0 11 5 11 10 0 6 -2 10 -4 10 -3 0
-8 -4 -11 -10z"/>
<path d="M7586 5981 c-4 -5 3 -7 14 -4 23 6 26 13 6 13 -8 0 -17 -4 -20 -9z"/>
<path d="M3845 5901 c-3 -5 0 -13 6 -17 7 -4 9 -3 5 4 -3 5 0 13 6 15 9 4 10
6 1 6 -6 1 -14 -3 -18 -8z"/>
<path d="M4315 5820 c3 -5 8 -10 11 -10 2 0 4 5 4 10 0 6 -5 10 -11 10 -5 0
-7 -4 -4 -10z"/>
<path d="M4315 5789 c-4 -6 -5 -12 -2 -15 2 -3 7 2 10 11 7 17 1 20 -8 4z"/>
<path d="M7349 5743 c-13 -16 -12 -17 4 -4 9 7 17 15 17 17 0 8 -8 3 -21 -13z"/>
<path d="M786 5733 c-6 -14 -5 -15 5 -6 7 7 10 15 7 18 -3 3 -9 -2 -12 -12z"/>
<path d="M3800 5746 c0 -2 7 -7 16 -10 8 -3 12 -2 9 4 -6 10 -25 14 -25 6z"/>
<path d="M733 5678 c1 -7 -4 -12 -11 -10 -8 1 -11 -2 -7 -8 5 -8 11 -7 21 1
16 13 18 29 4 29 -5 0 -9 -6 -7 -12z"/>
<path d="M3786 5661 c-4 -5 -2 -12 3 -15 5 -4 12 -2 15 3 4 5 2 12 -3 15 -5 4
-12 2 -15 -3z"/>
<path d="M689 5637 c6 -8 7 -18 3 -22 -4 -5 -1 -5 6 -1 10 6 10 11 1 22 -6 8
-14 14 -16 14 -3 0 0 -6 6 -13z"/>
<path d="M4255 5569 c-4 -6 -5 -12 -2 -15 2 -3 7 2 10 11 7 17 1 20 -8 4z"/>
<path d="M4236 5527 c3 -10 9 -15 12 -12 3 3 0 11 -7 18 -10 9 -11 8 -5 -6z"/>
<path d="M513 5385 c0 -8 4 -12 9 -9 5 3 6 10 3 15 -9 13 -12 11 -12 -6z"/>
<path d="M6884 5278 l-19 -23 23 19 c21 18 27 26 19 26 -2 0 -12 -10 -23 -22z"/>
<path d="M3770 5177 c0 -2 6 -10 14 -16 11 -9 16 -9 22 1 4 7 4 10 -1 6 -4 -4
-14 -3 -22 3 -7 6 -13 9 -13 6z"/>
<path d="M336 5102 c-3 -5 1 -9 9 -9 8 0 12 4 9 9 -3 4 -7 8 -9 8 -2 0 -6 -4
-9 -8z"/>
<path d="M6404 4798 l-19 -23 23 19 c12 11 22 21 22 23 0 8 -8 2 -26 -19z"/>
<path d="M3905 4720 c3 -5 11 -10 16 -10 6 0 7 5 4 10 -3 6 -11 10 -16 10 -6
0 -7 -4 -4 -10z"/>
<path d="M4466 4682 c-3 -4 4 -9 15 -9 23 -2 25 3 4 10 -8 4 -16 3 -19 -1z"/>
<path d="M435 4670 c-3 -5 -1 -10 4 -10 6 0 11 5 11 10 0 6 -2 10 -4 10 -3 0
-8 -4 -11 -10z"/>
<path d="M4536 4617 c3 -10 9 -15 12 -12 3 3 0 11 -7 18 -10 9 -11 8 -5 -6z"/>
<path d="M530 4600 c0 -5 5 -10 11 -10 5 0 7 5 4 10 -3 6 -8 10 -11 10 -2 0
-4 -4 -4 -10z"/>
<path d="M675 4520 c-3 -5 -1 -10 4 -10 6 0 11 5 11 10 0 6 -2 10 -4 10 -3 0
-8 -4 -11 -10z"/>
<path d="M6115 4520 c-3 -5 -1 -10 4 -10 6 0 11 5 11 10 0 6 -2 10 -4 10 -3 0
-8 -4 -11 -10z"/>
<path d="M4771 4416 c2 -2 15 -9 29 -15 24 -11 24 -11 6 3 -16 13 -49 24 -35
12z"/>
<path d="M850 4391 c0 -5 5 -13 10 -16 6 -3 10 -2 10 4 0 5 -4 13 -10 16 -5 3
-10 2 -10 -4z"/>
<path d="M5780 4320 c-9 -6 -10 -10 -3 -10 6 0 15 5 18 10 8 12 4 12 -15 0z"/>
<path d="M5815 4320 c3 -5 8 -10 11 -10 2 0 4 5 4 10 0 6 -5 10 -11 10 -5 0
-7 -4 -4 -10z"/>
<path d="M5490 4239 c0 -5 5 -7 10 -4 6 3 10 8 10 11 0 2 -4 4 -10 4 -5 0 -10
-5 -10 -11z"/>
<path d="M4260 4221 c0 -6 4 -13 10 -16 6 -3 7 1 4 9 -7 18 -14 21 -14 7z"/>
<path d="M1066 4165 c-3 -9 -2 -13 4 -10 5 3 16 -7 24 -22 8 -15 15 -23 16
-18 0 6 -8 23 -19 38 -15 23 -19 25 -25 12z"/>
<path d="M6750 4120 c0 -5 5 -10 11 -10 5 0 7 5 4 10 -3 6 -8 10 -11 10 -2 0
-4 -4 -4 -10z"/>
<path d="M6333 4085 c0 -8 4 -12 9 -9 5 3 6 10 3 15 -9 13 -12 11 -12 -6z"/>
<path d="M6290 4049 c0 -5 5 -7 10 -4 6 3 10 8 10 11 0 2 -4 4 -10 4 -5 0 -10
-5 -10 -11z"/>
<path d="M1215 3960 c3 -5 8 -10 11 -10 2 0 4 5 4 10 0 6 -5 10 -11 10 -5 0
-7 -4 -4 -10z"/>
<path d="M1240 3933 c5 -2 8 -9 4 -14 -3 -5 0 -9 6 -9 15 0 7 23 -8 26 -7 1
-8 0 -2 -3z"/>
<path d="M5850 3838 c0 -4 4 -8 9 -8 6 0 12 4 15 8 3 5 -1 9 -9 9 -8 0 -15 -4
-15 -9z"/>
<path d="M1380 3651 c0 -6 4 -13 10 -16 6 -3 7 1 4 9 -7 18 -14 21 -14 7z"/>
<path d="M1393 3607 c0 -8 6 -14 14 -14 9 0 10 4 2 14 -6 7 -12 13 -14 13 -1
0 -2 -6 -2 -13z"/>
<path d="M6926 3607 c3 -10 9 -15 12 -12 3 3 0 11 -7 18 -10 9 -11 8 -5 -6z"/>
<path d="M6930 3560 c-9 -6 -10 -10 -3 -10 6 0 15 5 18 10 8 12 4 12 -15 0z"/>
<path d="M6800 2506 c0 -2 7 -7 16 -10 8 -3 12 -2 9 4 -6 10 -25 14 -25 6z"/>
<path d="M6606 1962 c-3 -5 1 -9 9 -9 8 0 12 4 9 9 -3 4 -7 8 -9 8 -2 0 -6 -4
-9 -8z"/>
<path d="M1274 1880 c0 -13 4 -16 10 -10 7 7 7 13 0 20 -6 6 -10 3 -10 -10z"/>
<path d="M6574 1889 c-3 -6 -2 -15 3 -20 5 -5 9 -1 9 11 0 23 -2 24 -12 9z"/>
<path d="M1234 1805 c-9 -14 -20 -23 -24 -20 -5 3 -11 2 -14 -3 -3 -5 2 -9 10
-9 8 0 24 13 35 29 11 15 18 28 15 28 -3 0 -13 -11 -22 -25z"/>
<path d="M6534 1800 c0 -13 4 -16 10 -10 7 7 7 13 0 20 -6 6 -10 3 -10 -10z"/>
<path d="M1165 1740 c-3 -6 1 -7 9 -4 18 7 21 14 7 14 -6 0 -13 -4 -16 -10z"/>
<path d="M1036 1548 c3 -5 10 -6 15 -3 13 9 11 12 -6 12 -8 0 -12 -4 -9 -9z"/>
<path d="M965 1480 c-3 -6 1 -7 9 -4 18 7 21 14 7 14 -6 0 -13 -4 -16 -10z"/>
<path d="M6315 1449 c-4 -12 -3 -25 2 -29 4 -5 8 4 9 21 1 34 -2 37 -11 8z"/>
<path d="M2030 1360 c0 -5 5 -10 11 -10 5 0 7 5 4 10 -3 6 -8 10 -11 10 -2 0
-4 -4 -4 -10z"/>
<path d="M1880 1280 c-8 -5 -10 -10 -5 -10 6 0 17 5 25 10 8 5 11 10 5 10 -5
0 -17 -5 -25 -10z"/>
<path d="M1795 1241 c-3 -5 -2 -12 3 -15 5 -3 9 1 9 9 0 17 -3 19 -12 6z"/>
<path d="M3950 1220 c0 -5 5 -10 11 -10 5 0 7 5 4 10 -3 6 -8 10 -11 10 -2 0
-4 -4 -4 -10z"/>
<path d="M4042 1166 c7 -8 15 -12 17 -11 5 6 -10 25 -20 25 -5 0 -4 -6 3 -14z"/>
<path d="M1625 1121 c-3 -5 -2 -12 3 -15 5 -3 9 1 9 9 0 17 -3 19 -12 6z"/>
<path d="M4111 1114 c0 -11 3 -14 6 -6 3 7 2 16 -1 19 -3 4 -6 -2 -5 -13z"/>
<path d="M870 1099 c0 -5 5 -7 10 -4 6 3 10 8 10 11 0 2 -4 4 -10 4 -5 0 -10
-5 -10 -11z"/>
<path d="M4136 1097 c3 -10 9 -15 12 -12 3 3 0 11 -7 18 -10 9 -11 8 -5 -6z"/>
<path d="M4213 1027 c0 -8 6 -14 14 -14 9 0 10 4 2 14 -6 7 -12 13 -14 13 -1
0 -2 -6 -2 -13z"/>
<path d="M996 927 c3 -10 9 -15 12 -12 3 3 0 11 -7 18 -10 9 -11 8 -5 -6z"/>
<path d="M1415 931 c-3 -5 -2 -12 3 -15 5 -3 9 1 9 9 0 17 -3 19 -12 6z"/>
<path d="M4333 907 c0 -8 6 -14 14 -14 9 0 10 4 2 14 -6 7 -12 13 -14 13 -1 0
-2 -6 -2 -13z"/>
<path d="M1060 900 c-9 -6 -10 -10 -3 -10 6 0 15 5 18 10 8 12 4 12 -15 0z"/>
<path d="M4433 772 c-1 -22 0 -24 9 -8 6 10 6 22 2 26 -5 5 -10 -3 -11 -18z"/>
<path d="M4487 729 c4 -13 8 -18 11 -10 2 7 -1 18 -6 23 -8 8 -9 4 -5 -13z"/>
<path d="M5669 723 c-13 -16 -12 -17 4 -4 9 7 17 15 17 17 0 8 -8 3 -21 -13z"/>
<path d="M5613 685 c0 -8 4 -12 9 -9 5 3 6 10 3 15 -9 13 -12 11 -12 -6z"/>
<path d="M5479 593 c-13 -16 -12 -17 4 -4 9 7 17 15 17 17 0 8 -8 3 -21 -13z"/>
<path d="M4770 366 c0 -2 8 -10 18 -17 15 -13 16 -12 3 4 -13 16 -21 21 -21
13z"/>
<path d="M5135 360 c3 -5 8 -10 11 -10 2 0 4 5 4 10 0 6 -5 10 -11 10 -5 0 -7
-4 -4 -10z"/>
<path d="M4845 329 c-4 -6 -5 -12 -2 -15 2 -3 7 2 10 11 7 17 1 20 -8 4z"/>
</g>
</svg>
