<?xml version="1.0" standalone="no"?>
<!DOCTYPE svg PUBLIC "-//W3C//DTD SVG 20010904//EN"
 "http://www.w3.org/TR/2001/REC-SVG-20010904/DTD/svg10.dtd">
<svg version="1.0" xmlns="http://www.w3.org/2000/svg"
 width="800.000000pt" height="800.000000pt" viewBox="0 0 800.000000 800.000000"
 preserveAspectRatio="xMidYMid meet">
<metadata>
Created by potrace 1.14, written by Peter Selinger 2001-2017
</metadata>
<g transform="translate(0.000000,800.000000) scale(0.100000,-0.100000)"
fill="#000000" stroke="none">
<path d="M4119 7287 c18 -23 8 -33 -13 -12 -12 13 -16 13 -16 3 0 -9 -14 -14
-40 -15 -24 -1 -40 3 -40 9 0 7 -7 3 -16 -8 -8 -10 -13 -14 -10 -7 4 7 -1 11
-14 10 -11 -1 -20 -4 -20 -7 0 -4 -12 -7 -27 -8 -16 -1 -41 -3 -58 -6 -86 -14
-120 -15 -132 -4 -7 6 -16 8 -20 4 -3 -3 -1 -6 5 -6 7 0 12 -5 12 -11 0 -7 -7
-8 -17 -4 -10 4 -22 8 -28 9 -5 1 -17 6 -25 11 -13 8 -13 7 -1 -8 7 -9 18 -14
24 -10 5 3 7 2 4 -4 -3 -5 -20 -9 -37 -8 -16 1 -30 -2 -30 -7 0 -4 -5 -8 -11
-8 -5 0 -7 5 -4 10 3 6 1 10 -4 10 -6 0 -11 -5 -11 -11 0 -5 -4 -8 -9 -4 -5 3
-13 1 -16 -5 -5 -8 -12 -7 -23 2 -12 10 -14 10 -8 1 4 -8 2 -13 -6 -14 -19 -1
-40 -6 -62 -15 -12 -5 -17 -4 -13 3 3 5 -3 9 -15 8 -12 -1 -24 -7 -26 -13 -2
-7 -8 -10 -13 -6 -5 3 -9 1 -9 -5 0 -5 -8 -9 -17 -9 -10 0 -37 -6 -59 -15 -32
-12 -45 -13 -54 -4 -6 7 -11 8 -10 2 5 -22 -1 -29 -10 -15 -7 11 -10 11 -10 2
0 -7 -4 -10 -10 -7 -5 3 -10 2 -10 -3 0 -5 -9 -12 -20 -15 -11 -3 -18 -1 -15
3 3 5 -5 7 -17 5 -13 -3 -24 -9 -26 -15 -2 -6 -8 -8 -13 -4 -5 3 -9 1 -9 -4 0
-5 -8 -12 -17 -16 -10 -3 -25 -9 -33 -12 -12 -5 -13 -4 -2 7 6 7 12 17 12 22
0 5 -8 0 -17 -11 -27 -32 -148 -83 -163 -68 -6 6 -11 7 -10 1 5 -22 -1 -27
-17 -14 -9 8 -14 9 -10 2 11 -18 -31 -27 -51 -11 -15 11 -16 11 -4 -3 11 -14
8 -18 -20 -30 -18 -8 -36 -13 -40 -11 -5 1 -8 -3 -8 -9 0 -8 -5 -7 -16 1 -12
11 -15 11 -12 -1 2 -8 -4 -13 -14 -13 -10 1 -16 -3 -15 -8 1 -6 -4 -13 -12
-16 -8 -3 -11 0 -7 7 5 7 1 9 -8 5 -9 -3 -14 -10 -11 -14 3 -4 -2 -11 -11 -14
-8 -3 -13 -2 -10 2 3 5 -1 9 -8 9 -8 0 -12 -7 -8 -15 3 -10 1 -13 -6 -8 -7 4
-12 3 -12 -1 0 -18 -67 -40 -87 -30 -16 9 -16 9 -4 -6 12 -15 11 -17 -8 -17
-11 0 -21 -5 -21 -11 0 -5 -5 -7 -10 -4 -6 4 -7 11 -4 17 4 7 2 8 -4 4 -6 -4
-8 -14 -5 -24 6 -15 5 -15 -10 -3 -16 12 -17 12 -11 -5 4 -10 4 -16 0 -12 -5
4 -17 -2 -29 -12 -11 -11 -24 -17 -28 -14 -4 2 -11 -1 -14 -7 -4 -5 -13 -8
-21 -5 -8 3 -13 2 -13 -2 3 -19 -2 -23 -16 -12 -13 11 -14 10 -8 -6 6 -17 5
-17 -10 -5 -15 12 -17 12 -11 -2 6 -17 -31 -43 -55 -38 -7 1 -10 -2 -6 -8 3
-6 -1 -11 -9 -11 -9 0 -16 -5 -16 -12 0 -6 -7 -3 -16 8 -8 10 -12 13 -8 5 4
-8 -4 -22 -21 -37 -30 -25 -51 -32 -39 -12 4 7 3 8 -5 4 -6 -4 -9 -11 -6 -16
3 -4 -2 -13 -10 -20 -13 -11 -14 -10 -9 5 5 13 4 16 -4 11 -7 -4 -12 -14 -12
-22 0 -8 -5 -14 -11 -14 -5 0 -7 5 -3 12 4 7 3 8 -5 4 -6 -4 -9 -11 -6 -16 7
-12 -35 -40 -59 -40 -11 0 -17 -3 -13 -6 10 -10 -36 -42 -52 -36 -11 4 -13 1
-8 -12 6 -15 3 -17 -13 -13 -11 3 -18 0 -17 -7 1 -6 -4 -10 -10 -8 -7 1 -13
-5 -13 -14 0 -8 -5 -12 -10 -9 -6 4 -7 12 -4 18 4 7 3 8 -2 4 -5 -5 -10 -13
-10 -18 -1 -5 -2 -14 -3 -20 0 -5 -6 -7 -11 -4 -6 4 -7 12 -4 18 4 7 3 8 -2 4
-5 -5 -9 -16 -9 -25 0 -9 -6 -16 -13 -14 -6 1 -11 -3 -10 -10 2 -7 -2 -12 -9
-13 -6 0 -20 -10 -31 -22 -15 -18 -21 -20 -31 -10 -10 9 -11 9 -6 -4 4 -11 -1
-19 -17 -24 -13 -4 -27 -7 -31 -6 -5 1 -6 -3 -2 -9 5 -8 12 -7 23 2 15 12 16
11 3 -4 -7 -10 -22 -18 -33 -18 -10 0 -17 -3 -15 -7 3 -5 -5 -17 -16 -28 l-20
-20 13 25 c11 23 11 24 -5 9 -9 -9 -18 -25 -19 -35 -2 -10 -9 -18 -15 -17 -6
2 -15 -6 -21 -17 -14 -26 -30 -26 -25 0 2 11 0 18 -5 15 -4 -3 -7 -13 -6 -23
2 -9 -5 -24 -15 -33 -10 -9 -15 -20 -11 -24 4 -5 1 -5 -5 -1 -7 4 -13 2 -13
-4 0 -6 -4 -8 -10 -5 -5 3 -10 0 -10 -8 0 -8 -8 -21 -18 -30 -21 -19 -37 -22
-26 -5 5 7 3 8 -5 4 -7 -5 -10 -10 -7 -13 11 -11 -16 -44 -30 -39 -8 3 -12 2
-9 -3 3 -5 -13 -30 -35 -56 -22 -25 -40 -43 -40 -38 0 4 -5 0 -11 -11 -9 -15
-13 -16 -21 -5 -7 10 -8 8 -5 -8 3 -13 1 -23 -4 -23 -14 0 -48 -38 -41 -46 4
-4 -1 -4 -10 -1 -10 3 -20 1 -24 -5 -5 -7 -2 -8 6 -3 8 5 11 3 8 -6 -3 -8 -11
-13 -17 -11 -7 1 -10 -2 -6 -7 3 -6 -4 -15 -15 -21 -11 -6 -20 -17 -20 -24 0
-8 -7 -17 -16 -20 -8 -3 -12 -10 -9 -16 3 -6 -1 -7 -9 -4 -12 4 -16 0 -16 -16
0 -14 -4 -19 -12 -14 -8 5 -9 2 -5 -9 4 -10 2 -16 -6 -14 -7 1 -11 -4 -9 -11
1 -7 -5 -15 -13 -18 -8 -4 -15 -12 -15 -19 0 -17 -35 -47 -45 -38 -4 5 -5 -1
-1 -11 5 -15 4 -17 -7 -8 -11 9 -13 7 -13 -11 1 -12 -4 -21 -10 -20 -7 1 -20
-7 -30 -19 -11 -12 -13 -18 -6 -14 6 4 12 3 12 -2 0 -8 -9 -21 -49 -68 -5 -7
-7 -16 -3 -20 4 -5 -1 -2 -11 5 -15 12 -17 12 -10 -5 6 -17 5 -18 -13 -4 -18
14 -19 14 -1 -6 17 -21 17 -22 -8 -28 -15 -4 -23 -11 -19 -17 4 -8 9 -7 15 2
5 8 9 10 9 6 0 -16 -52 -76 -63 -73 -7 1 -9 1 -4 -1 15 -9 6 -25 -10 -19 -10
4 -14 4 -10 0 4 -4 1 -14 -6 -23 -11 -14 -10 -14 6 -2 22 17 22 8 -1 -15 -9
-10 -17 -20 -18 -23 0 -3 -4 -14 -9 -24 -6 -14 -10 -15 -23 -5 -14 12 -14 10
-2 -11 11 -21 10 -23 -3 -18 -11 4 -14 2 -11 -7 3 -7 -2 -20 -10 -29 -8 -8
-12 -18 -8 -22 4 -5 -2 -5 -12 -1 -15 5 -16 4 -8 -7 8 -10 6 -20 -8 -42 -11
-17 -24 -30 -29 -30 -5 0 -13 -4 -18 -9 -5 -5 -2 -6 6 -1 9 5 12 3 9 -6 -3 -8
-10 -13 -16 -12 -7 2 -9 -4 -5 -14 5 -12 3 -14 -8 -8 -11 7 -11 5 1 -10 14
-17 13 -18 -2 -12 -10 3 -20 1 -24 -5 -4 -6 -3 -8 4 -4 6 3 13 2 17 -4 3 -5 1
-10 -5 -10 -6 0 -8 -5 -5 -11 4 -6 -2 -13 -14 -16 -12 -3 -21 -10 -21 -15 0
-5 4 -7 9 -4 4 3 -10 -31 -32 -77 -22 -45 -44 -84 -49 -85 -4 -2 -6 -8 -2 -13
3 -5 0 -9 -6 -9 -6 0 -8 -4 -5 -10 3 -5 2 -10 -4 -10 -6 0 -7 -7 -4 -17 4 -10
2 -14 -4 -10 -6 4 -14 0 -17 -9 -4 -10 -2 -13 6 -8 8 5 9 2 5 -10 -4 -10 -7
-20 -7 -22 0 -2 -5 -4 -11 -4 -5 0 -7 5 -3 12 4 7 3 8 -5 4 -9 -6 -9 -11 1
-24 11 -14 10 -15 -6 -9 -16 6 -17 5 -6 -8 10 -12 10 -15 0 -15 -8 0 -10 -3
-7 -6 11 -11 -13 -45 -26 -37 -8 5 -8 2 1 -9 13 -16 7 -48 -10 -48 -5 0 -6 -5
-2 -12 5 -8 2 -9 -10 -5 -12 5 -15 3 -9 -6 18 -30 7 -44 -30 -38 -5 1 -6 -3
-2 -8 3 -6 13 -7 21 -4 14 5 15 3 3 -18 -7 -13 -12 -27 -11 -31 1 -5 -3 -8 -9
-8 -5 0 -8 -4 -4 -9 7 -13 -16 -62 -27 -55 -4 3 -5 10 -2 16 5 7 2 8 -5 3 -10
-6 -10 -11 2 -22 13 -14 13 -21 -1 -62 -18 -48 -40 -73 -56 -64 -5 4 -6 1 -2
-6 6 -9 11 -9 22 0 21 17 15 -11 -6 -29 -8 -8 -10 -11 -4 -8 7 3 9 -4 6 -20
-2 -14 -11 -28 -19 -31 -12 -5 -12 -7 -2 -14 10 -6 10 -10 0 -23 -7 -8 -9 -21
-5 -27 5 -9 0 -10 -17 -6 -22 6 -23 5 -5 -8 11 -9 15 -18 10 -27 -5 -7 -9 -17
-10 -23 0 -5 -2 -16 -2 -23 -1 -8 -7 -10 -14 -6 -8 5 -7 0 2 -11 13 -17 13
-18 -1 -13 -9 4 -16 1 -16 -8 0 -7 4 -11 9 -8 5 3 7 -5 4 -18 -11 -58 -19 -78
-30 -71 -7 4 -7 2 1 -7 7 -8 9 -19 4 -29 -5 -9 -7 -24 -6 -33 4 -25 -4 -22
-16 5 -8 18 -9 18 -5 2 2 -11 7 -29 12 -39 6 -15 4 -17 -7 -11 -11 7 -11 5 1
-10 14 -17 13 -18 -3 -12 -14 5 -16 3 -9 -11 5 -9 7 -23 6 -29 -1 -7 -2 -20
-3 -28 -1 -9 -7 -12 -18 -9 -14 4 -15 3 -5 -4 14 -9 11 -97 -4 -135 -4 -11 -8
-44 -9 -75 -4 -84 -4 -84 -17 -76 -10 6 -11 4 0 -7 16 -17 16 -32 0 -23 -9 5
-9 2 1 -9 7 -9 9 -17 4 -17 -13 0 -15 -767 -3 -775 6 -3 5 -16 0 -30 -6 -15
-6 -27 0 -30 6 -4 10 -11 10 -16 0 -6 -6 -7 -12 -3 -10 6 -10 5 -1 -7 6 -8 12
-17 12 -21 1 -5 1 -9 2 -10 8 -27 7 -48 -2 -43 -6 4 -8 14 -4 24 5 13 4 13 -6
4 -10 -10 -9 -16 3 -30 8 -10 14 -28 13 -41 -1 -12 2 -22 7 -22 4 0 8 -5 8
-11 0 -5 -4 -7 -10 -4 -13 8 0 -28 14 -37 7 -5 6 -8 -3 -8 -9 0 -10 -4 -3 -12
5 -7 12 -32 15 -55 3 -34 2 -41 -12 -36 -10 3 -9 -1 4 -9 21 -13 26 -44 12
-66 -5 -7 -5 -12 0 -11 19 3 27 -2 15 -10 -11 -6 -10 -11 3 -25 15 -15 12 -21
-8 -17 -5 1 -6 -3 -2 -9 3 -6 11 -7 17 -4 7 5 9 1 5 -9 -3 -9 -2 -19 3 -22 5
-3 8 -19 6 -35 -2 -16 0 -31 4 -32 5 -2 10 -16 12 -33 1 -16 7 -33 13 -37 6
-5 4 -8 -5 -8 -12 0 -13 -2 -1 -9 7 -5 14 -20 14 -35 0 -16 4 -23 11 -19 6 4
5 -1 -3 -10 -10 -13 -10 -17 -1 -17 7 0 10 -7 6 -16 -3 -8 -2 -12 4 -9 6 3 10
1 10 -4 0 -6 -4 -11 -10 -11 -5 0 -10 -4 -10 -10 0 -5 6 -7 13 -4 8 3 14 -1
14 -8 0 -7 4 -22 9 -32 5 -13 4 -17 -4 -12 -6 3 -14 2 -17 -4 -4 -6 -1 -9 7
-8 7 2 12 -5 12 -14 -1 -10 2 -16 6 -13 4 3 10 -2 14 -10 3 -8 -2 -19 -11 -24
-14 -7 -13 -10 6 -16 18 -5 20 -10 10 -21 -9 -11 -8 -15 5 -20 9 -3 13 -10 10
-15 -3 -5 0 -9 7 -9 6 0 9 -8 6 -20 -3 -14 0 -20 10 -20 13 0 13 -2 2 -17 -8
-9 -9 -14 -2 -10 7 4 25 -10 44 -35 19 -24 41 -49 49 -56 13 -10 12 -11 -5 -6
-16 5 -17 4 -5 -5 8 -6 22 -11 31 -11 9 0 23 -8 30 -17 13 -17 13 -17 -6 -3
-19 14 -19 14 -6 -3 10 -13 17 -15 27 -6 11 9 14 8 14 -1 0 -7 7 -10 16 -6 9
3 25 -5 41 -22 15 -16 24 -20 20 -10 -5 13 -1 16 16 12 46 -10 87 -12 81 -3
-3 5 2 6 10 3 9 -3 13 -11 9 -18 -4 -6 1 -5 10 2 9 8 25 11 38 7 14 -5 19 -4
15 4 -5 7 -1 9 8 5 9 -3 13 -11 9 -18 -4 -6 0 -5 9 2 22 17 104 12 100 -6 -1
-8 2 -11 8 -7 6 3 8 11 4 17 -3 5 2 8 12 7 11 -2 25 0 31 4 9 5 11 3 7 -6 -3
-8 1 -14 10 -14 8 0 13 4 10 9 -3 4 5 8 17 8 19 0 20 -2 8 -17 -13 -17 -12
-17 7 0 22 18 85 20 113 3 10 -6 12 -5 7 2 -5 8 1 12 14 12 12 0 19 -4 16 -8
-2 -4 6 -8 19 -8 13 0 21 4 19 8 -3 5 -10 5 -16 2 -7 -4 -8 -2 -4 5 4 6 12 9
17 5 15 -9 139 -12 133 -3 -3 5 2 6 10 3 9 -3 13 -11 9 -18 -4 -6 1 -5 10 2
11 9 30 12 57 8 29 -4 39 -2 34 6 -5 7 -3 8 5 4 19 -12 161 -14 154 -2 -4 5
-1 6 6 2 19 -12 161 -14 154 -2 -4 5 -1 6 6 2 17 -11 161 -14 155 -4 -3 4 3 5
12 1 23 -9 118 -8 132 1 7 4 10 2 6 -7 -3 -8 1 -14 10 -14 8 0 13 4 10 9 -3 4
5 8 17 8 19 0 20 -2 8 -17 -13 -17 -13 -17 7 -1 24 21 69 25 58 6 -6 -10 -3
-9 9 0 19 16 63 12 59 -6 -1 -8 2 -11 8 -7 6 3 8 11 4 17 -3 5 2 8 12 7 11 -2
25 0 31 4 9 5 11 3 7 -6 -3 -8 1 -14 10 -14 8 0 13 5 9 10 -3 5 4 6 17 2 15
-5 20 -4 16 4 -5 7 -1 9 8 5 9 -3 13 -11 9 -18 -4 -6 0 -5 9 2 22 17 104 12
100 -6 -1 -8 2 -11 8 -7 6 3 8 11 4 17 -3 5 2 8 12 7 11 -2 25 0 31 4 9 5 11
3 7 -6 -3 -8 1 -14 10 -14 8 0 13 4 10 9 -3 4 5 8 17 8 19 0 20 -2 8 -17 -13
-17 -13 -17 7 0 24 20 69 24 58 5 -6 -10 -3 -9 9 0 19 16 63 12 59 -6 -1 -8 2
-11 8 -7 6 3 8 11 4 17 -3 5 2 8 12 7 11 -2 25 0 31 4 9 5 11 3 7 -6 -3 -8 1
-14 10 -14 8 0 13 5 9 10 -3 5 4 6 17 2 15 -5 20 -4 16 4 -5 7 -1 9 8 5 9 -3
13 -11 9 -18 -4 -6 0 -5 9 2 22 17 104 12 100 -6 -1 -8 2 -11 8 -7 6 3 8 11 4
17 -3 5 2 8 12 7 11 -2 25 0 31 4 9 5 11 3 7 -6 -3 -8 1 -14 10 -14 8 0 13 4
10 9 -3 4 5 8 17 8 19 0 20 -2 8 -17 -13 -17 -13 -17 7 -1 24 21 69 25 58 6
-6 -10 -3 -9 9 0 19 16 63 12 59 -6 -1 -8 2 -11 8 -7 6 3 8 11 4 17 -3 5 2 8
12 7 11 -2 25 0 31 4 8 5 11 3 8 -5 -4 -9 3 -14 17 -15 18 -2 20 0 8 8 -11 7
-3 9 28 5 30 -4 41 -2 36 6 -5 7 -3 8 5 4 19 -12 161 -14 154 -2 -4 5 -1 6 6
2 19 -12 161 -14 154 -2 -4 5 -1 6 6 2 20 -13 161 -14 154 -1 -4 5 3 2 14 -8
21 -18 22 -18 49 -1 27 18 27 18 15 -3 -8 -17 -8 -24 1 -29 6 -4 8 -3 5 3 -4
6 0 16 8 23 12 10 15 10 15 0 0 -10 3 -10 14 -1 12 10 16 8 21 -10 6 -17 9
-19 16 -8 6 9 9 10 9 2 0 -11 37 -29 53 -25 4 1 7 -2 7 -7 0 -5 -3 -11 -7 -14
-5 -2 -3 -3 3 -1 6 1 17 -3 24 -9 10 -9 11 -9 5 3 -7 12 -6 13 7 3 8 -7 18
-10 21 -6 4 3 7 1 7 -5 0 -7 7 -12 15 -12 8 0 15 -5 15 -11 0 -6 7 -9 15 -5 8
3 15 1 15 -5 0 -6 4 -8 9 -5 5 4 11 1 13 -4 2 -6 10 -12 18 -14 8 -2 26 -8 40
-13 14 -6 28 -9 33 -6 4 2 7 -1 7 -7 0 -6 5 -8 12 -4 7 5 9 2 6 -8 -4 -10 1
-15 21 -15 39 -1 81 -11 95 -22 7 -6 17 -7 21 -3 5 4 5 -2 1 -12 -5 -15 -4
-17 8 -7 15 13 41 6 70 -18 13 -10 17 -11 11 -2 -6 10 -2 12 15 6 12 -4 30 -9
39 -10 9 -2 16 -4 16 -5 0 -1 13 -4 30 -6 16 -3 33 -11 37 -17 4 -7 8 -7 8 -2
0 6 5 3 10 -5 5 -8 10 -10 10 -3 0 15 29 10 41 -8 6 -10 9 -10 9 -1 0 6 5 12
11 12 5 0 7 -6 3 -13 -5 -7 0 -6 11 3 14 11 17 11 11 1 -7 -10 -4 -12 13 -6
17 5 20 3 15 -12 -5 -16 -4 -16 10 1 16 20 16 20 17 0 0 -19 1 -19 8 1 8 19 8
19 19 0 6 -11 12 -14 12 -7 0 17 21 11 43 -13 10 -11 16 -15 13 -9 -8 17 20
39 30 23 5 -8 3 -9 -7 -4 -12 8 -12 6 0 -8 14 -18 22 -22 20 -9 -3 20 3 23 18
11 15 -12 16 -12 8 1 -7 13 -6 13 7 2 11 -9 17 -9 20 -2 2 7 15 3 33 -11 17
-12 24 -16 18 -9 -22 23 -14 34 9 14 12 -10 18 -14 15 -7 -5 8 2 11 22 11 19
-1 28 -5 24 -12 -3 -6 0 -5 8 1 20 19 33 16 18 -4 -12 -16 -12 -17 2 -6 9 7
20 9 24 5 5 -4 5 -1 1 6 -4 7 -1 12 9 12 10 0 14 -5 9 -13 -6 -9 -4 -9 7 1 19
17 29 15 22 -5 -5 -15 -3 -15 11 2 10 11 14 13 10 5 -6 -12 -4 -13 7 -2 17 16
32 16 23 0 -6 -10 -4 -10 7 0 15 14 33 17 25 4 -3 -5 1 -9 8 -9 8 0 12 5 10
12 -6 13 44 14 65 1 9 -6 12 -5 7 2 -4 6 1 10 11 10 10 0 26 3 36 7 10 4 17 3
17 -4 0 -6 5 -11 11 -11 5 0 8 4 5 8 -3 5 1 9 9 9 8 0 15 -4 15 -9 0 -5 5 -6
10 -3 6 4 8 10 5 15 -3 4 3 7 12 5 10 -1 25 1 34 6 10 5 21 3 27 -3 9 -9 12
-8 12 3 0 12 2 12 10 -1 8 -13 10 -13 10 -1 0 12 3 12 12 3 7 -7 17 -12 23
-12 5 0 3 4 -5 10 -8 5 -11 12 -7 16 3 4 14 1 24 -7 9 -8 14 -9 10 -3 -6 11 3
14 81 30 6 1 9 -3 6 -9 -3 -7 2 -3 10 7 12 15 16 16 16 5 0 -12 2 -12 10 1 7
12 13 13 28 3 15 -9 19 -8 19 3 0 7 -5 10 -11 7 -6 -3 -5 0 3 8 10 11 15 11
18 2 3 -10 8 -9 20 2 16 16 38 21 28 6 -3 -5 -1 -13 5 -16 6 -4 10 -3 9 2 -1
4 -1 15 0 23 1 12 5 11 18 -5 12 -15 14 -16 10 -3 -3 9 0 19 9 22 10 4 13 1 9
-7 -4 -6 0 -5 7 4 8 10 25 15 43 14 17 -2 24 -1 17 2 -6 3 -9 9 -6 14 3 6 11
6 20 -2 11 -9 15 -8 20 5 3 9 10 13 15 10 5 -3 6 -10 3 -16 -4 -7 -2 -8 5 -4
6 4 9 11 6 16 -3 4 2 13 10 20 8 7 15 10 15 7 0 -4 20 2 44 13 24 10 47 16 50
13 3 -4 6 -1 6 6 0 7 5 9 10 6 6 -3 10 -1 10 4 0 6 5 11 11 11 5 0 7 -6 4 -12
-4 -7 2 -2 13 12 17 21 22 22 36 11 14 -12 16 -11 10 4 -5 13 -4 16 4 11 7 -4
12 -2 12 6 0 10 2 10 9 -1 7 -11 10 -9 16 8 5 18 10 20 21 10 7 -6 11 -16 7
-22 -4 -6 -1 -7 6 -2 9 5 10 10 2 18 -19 19 -12 28 12 16 21 -12 21 -11 7 6
-9 11 -10 16 -2 11 6 -4 12 -2 12 3 0 6 5 11 11 11 5 0 8 -4 5 -8 -3 -5 1 -9
8 -9 9 0 12 7 8 16 -5 14 -4 14 11 2 15 -12 17 -12 11 3 -4 10 0 18 12 22 11
4 27 14 37 22 9 8 17 12 17 7 0 -4 7 -2 15 5 8 6 19 9 24 6 5 -4 13 -1 17 5 4
8 3 9 -4 5 -8 -5 -10 -2 -6 9 5 12 9 13 20 4 12 -10 13 -8 7 7 -6 16 -5 17 9
6 13 -10 18 -10 24 -1 5 8 3 10 -7 4 -8 -4 -5 1 6 12 12 12 31 19 48 18 15 -2
27 2 27 7 0 6 -7 8 -15 4 -8 -3 -15 -1 -15 4 0 9 14 13 25 8 2 -2 11 6 19 17
8 11 25 20 38 20 17 0 22 5 20 20 -2 11 -1 17 4 13 4 -5 13 0 20 10 8 12 24
18 43 17 17 -1 28 2 25 7 -4 5 -13 7 -21 3 -13 -4 -14 -3 -3 10 7 8 16 12 21
9 5 -3 12 2 15 10 3 9 13 16 21 16 8 0 11 5 8 10 -3 6 1 10 10 10 10 0 13 -5
9 -12 -4 -8 -3 -10 2 -5 5 5 10 13 10 18 1 5 2 14 3 19 0 6 8 10 17 10 9 0 12
5 8 13 -4 6 -4 9 0 5 4 -4 21 9 38 28 17 19 41 37 54 40 13 3 21 10 18 15 -3
5 0 9 6 9 6 0 8 5 4 13 -6 9 -4 9 8 -1 13 -10 18 -10 24 -1 5 8 3 9 -6 4 -8
-5 -11 -3 -8 6 3 8 11 13 17 12 6 -2 10 2 8 8 -1 6 4 14 12 17 9 3 11 0 6 -8
-5 -8 -4 -11 3 -7 5 4 8 16 5 27 -4 14 0 20 11 20 9 0 16 -5 16 -12 0 -6 3 -8
6 -5 4 4 2 12 -4 19 -8 10 -5 19 12 34 13 11 28 18 34 16 5 -1 14 2 18 9 5 8
3 9 -5 4 -9 -5 -9 -1 1 14 7 12 16 21 21 21 4 0 5 -5 1 -12 -5 -7 -3 -8 5 -4
7 5 10 14 7 22 -3 7 4 23 15 36 10 13 18 18 17 13 -2 -6 2 -11 7 -12 6 -1 9 6
7 15 -1 9 9 29 22 43 14 15 22 31 18 35 -4 5 1 2 11 -5 15 -12 17 -12 12 2 -4
8 2 23 12 33 11 11 24 32 31 48 7 16 16 26 19 22 3 -3 11 4 17 17 7 12 17 22
23 22 6 0 15 4 20 9 5 6 2 6 -6 1 -11 -6 -13 -4 -8 9 4 10 7 20 7 22 0 3 5 2
10 -1 6 -3 10 2 10 13 0 10 9 28 19 39 11 12 17 24 13 28 -4 5 4 5 18 2 24 -6
24 -5 6 8 -18 14 -18 15 -2 15 9 0 15 4 12 9 -6 10 44 47 57 43 5 -1 5 2 2 8
-5 8 -14 5 -27 -7 -22 -19 -22 -17 2 32 17 35 30 46 45 37 5 -3 4 2 -4 11 -12
15 -11 17 3 17 10 0 15 4 12 9 -6 10 28 84 35 77 3 -3 11 5 18 17 13 20 13 21
-3 8 -14 -12 -16 -12 -10 3 3 9 10 16 16 16 5 0 6 5 3 10 -3 6 -1 10 5 10 6 0
8 5 4 12 -5 8 -2 9 11 4 14 -5 16 -4 6 7 -8 11 -7 22 5 46 16 31 28 43 18 17
-3 -8 -2 -16 3 -19 13 -8 11 37 -1 45 -6 4 0 11 14 17 14 5 19 10 13 10 -7 1
-13 6 -13 12 0 5 3 8 8 6 4 -3 14 2 22 11 13 14 12 15 -3 9 -9 -3 -17 -2 -17
3 0 6 5 10 11 10 6 0 9 6 7 12 -3 7 1 19 9 26 7 8 10 19 6 25 -4 7 0 8 12 3
14 -5 16 -4 6 8 -9 10 -9 20 0 40 11 24 13 24 27 8 8 -9 6 -4 -3 12 -17 28
-17 29 0 22 16 -6 16 -4 4 11 -12 15 -12 16 4 10 13 -5 16 -3 10 6 -14 22 -12
37 5 38 11 0 13 2 4 6 -10 4 -10 8 0 21 11 13 11 14 -1 7 -16 -9 -8 7 18 39 9
11 11 17 5 13 -6 -3 -11 0 -11 8 0 8 4 12 9 9 5 -4 9 0 7 7 -3 25 1 40 9 35 5
-3 9 1 9 9 0 8 -5 12 -10 8 -5 -3 -6 4 -1 18 4 13 8 32 9 42 1 10 8 23 16 28
11 7 11 9 1 9 -7 0 -10 5 -7 10 4 6 12 7 18 3 9 -5 9 -3 1 8 -6 8 -9 23 -7 34
2 11 5 26 5 33 2 15 10 15 27 0 11 -11 11 -9 0 9 -7 12 -18 19 -24 15 -5 -3
-4 2 3 11 8 9 11 21 7 27 -3 5 1 10 9 10 9 0 16 5 16 11 0 6 -8 8 -17 5 -11
-4 -8 2 7 14 14 11 18 18 9 15 -10 -4 -16 0 -16 9 0 8 5 13 10 9 5 -3 6 4 2
17 -5 14 -3 20 3 16 11 -7 11 12 -1 31 -4 6 -3 14 3 18 5 3 10 11 10 16 0 6
-6 7 -12 3 -10 -6 -10 -5 -1 7 17 21 18 586 0 608 -6 8 -7 12 -1 9 6 -5 10 10
10 42 -1 26 -4 46 -8 43 -5 -2 -9 1 -9 6 -1 6 -2 17 -3 24 -1 6 3 18 8 26 9
12 8 13 -3 6 -11 -6 -13 -4 -8 8 3 9 2 19 -4 23 -6 4 -5 12 3 22 8 9 8 13 2 9
-7 -4 -15 0 -18 9 -5 12 -2 15 11 10 15 -6 16 -5 1 11 -8 10 -14 28 -13 40 1
12 -3 19 -8 16 -5 -3 -6 3 -2 16 4 12 2 21 -4 21 -6 0 -11 5 -11 11 0 5 5 7
10 4 6 -3 10 -1 10 4 0 6 -4 11 -10 11 -5 0 -6 7 -3 17 4 11 3 14 -5 9 -16
-10 -15 7 1 23 10 10 9 11 -3 6 -11 -4 -16 2 -18 20 -1 18 2 24 11 20 6 -4 5
-1 -4 7 -22 18 -33 67 -18 84 10 12 9 13 -6 8 -13 -5 -16 -4 -11 4 4 7 2 12
-5 12 -7 0 -5 9 7 22 13 15 14 18 3 10 -14 -10 -18 -10 -22 2 -3 8 -1 17 6 20
7 2 4 5 -6 5 -10 1 -16 5 -12 10 3 5 1 12 -5 16 -6 4 -8 11 -4 16 3 6 -2 19
-13 31 -10 11 -17 22 -15 24 5 7 -11 59 -22 73 -9 12 -8 13 4 6 9 -5 7 1 -5
15 -12 14 -14 20 -5 15 12 -7 12 -5 -1 11 -26 31 -31 54 -11 48 12 -4 11 -2
-3 7 -26 16 -36 31 -31 46 3 6 -2 14 -10 17 -8 3 -14 11 -14 18 0 9 3 9 11 -2
9 -12 10 -12 5 3 -3 10 -6 21 -6 23 0 3 -4 2 -10 -1 -9 -5 -15 15 -11 38 0 4
-4 7 -10 7 -5 0 -7 4 -4 10 3 6 2 10 -4 10 -5 0 -13 10 -17 23 -4 12 -11 25
-16 28 -5 3 -10 13 -12 21 -1 8 -9 26 -17 39 -17 27 -27 51 -25 60 0 4 -8 17
-19 29 -17 18 -17 24 -6 43 11 18 11 20 0 10 -18 -17 -29 -16 -29 3 0 8 5 12
10 9 6 -3 10 -2 10 4 0 5 -10 11 -22 13 -16 2 -22 9 -20 21 2 9 -2 17 -9 17
-9 0 -9 3 0 14 9 11 8 14 -5 12 -10 0 -26 18 -43 49 -14 28 -32 54 -38 58 -7
4 -13 15 -13 23 0 8 -8 18 -17 21 -15 6 -15 7 3 14 18 7 17 8 -3 8 -12 1 -25
6 -29 13 -4 6 -3 8 3 5 5 -3 10 0 10 7 0 9 -7 12 -16 8 -9 -3 -13 -2 -9 3 4 4
-2 16 -13 26 -11 9 -21 21 -22 26 -1 4 -6 7 -10 5 -4 -1 -2 8 4 20 12 22 11
22 -7 8 -10 -8 -16 -11 -12 -6 4 4 -5 19 -20 33 -15 13 -22 22 -17 19 6 -2 11
5 12 17 0 12 -1 16 -4 10 -3 -7 -9 -13 -14 -13 -6 0 -7 5 -4 10 3 6 1 10 -6
10 -12 0 -38 29 -39 43 0 5 5 5 12 1 7 -5 8 -3 4 5 -5 7 -15 10 -23 6 -14 -5
-14 -3 -2 12 11 13 11 15 1 9 -19 -11 -55 27 -40 42 8 8 5 9 -11 5 -12 -3 -21
-2 -20 3 3 20 -1 35 -9 30 -5 -3 -15 6 -22 19 -7 13 -17 22 -21 20 -10 -7 -22
32 -14 47 4 7 0 5 -8 -5 -14 -16 -15 -16 -21 -1 -4 10 -2 21 4 24 8 5 6 9 -5
13 -9 4 -13 3 -10 -3 11 -18 -6 -10 -30 14 -18 18 -21 26 -12 35 9 9 8 11 -5
6 -23 -9 -52 20 -43 43 5 14 4 15 -6 5 -10 -10 -19 -8 -41 14 -15 15 -28 34
-29 42 0 11 -2 12 -6 3 -3 -9 -12 -3 -27 17 -13 17 -26 28 -29 24 -7 -6 -11
12 -8 30 1 5 -4 5 -10 1 -7 -4 -18 1 -26 11 -7 11 -13 15 -13 11 0 -4 -7 0
-17 9 -14 14 -14 18 -2 27 10 7 7 7 -10 3 -18 -6 -30 -1 -50 18 -59 58 -80 75
-85 69 -3 -3 -6 3 -6 14 0 16 -2 17 -11 4 -9 -12 -10 -11 -6 6 3 15 0 21 -12
20 -9 0 -15 5 -13 13 2 11 0 12 -10 4 -15 -12 -42 9 -30 23 4 4 0 5 -9 1 -10
-3 -29 6 -47 23 -17 15 -33 25 -36 22 -3 -3 -6 0 -6 6 0 6 -9 14 -21 17 -11 4
-24 16 -29 28 -8 21 -9 21 -10 2 0 -12 -3 -16 -8 -10 -4 6 -22 21 -40 34 -19
13 -29 27 -25 34 5 9 3 9 -8 0 -16 -13 -37 -2 -58 32 -8 13 -11 14 -7 4 3 -12
-15 -6 -62 22 -37 21 -72 39 -79 39 -7 0 -13 5 -13 11 0 5 5 7 10 4 6 -3 10
-1 10 4 0 15 -13 14 -29 -1 -11 -10 -13 -10 -7 0 5 8 0 12 -12 12 -22 0 -46
23 -35 33 3 4 1 7 -4 7 -6 0 -13 -6 -16 -12 -3 -10 -8 -10 -18 1 -12 12 -12
13 0 6 9 -5 12 -4 7 3 -4 6 -13 9 -21 6 -8 -3 -27 3 -43 15 -16 11 -33 17 -37
13 -5 -4 -5 2 -1 12 5 16 4 17 -9 6 -14 -12 -19 -7 -16 13 1 5 -3 6 -9 2 -15
-9 -83 17 -98 38 -10 13 -17 15 -27 7 -10 -8 -15 -8 -21 1 -4 7 -3 9 3 6 5 -3
10 0 10 8 0 13 -4 12 -19 -2 -17 -15 -18 -15 -18 0 0 10 -5 17 -11 17 -5 0 -7
-6 -3 -12 5 -9 2 -9 -9 1 -9 7 -17 11 -17 7 0 -12 -85 28 -98 46 -10 13 -18
16 -30 9 -18 -10 -62 3 -74 22 -6 9 -8 9 -8 -1 0 -7 -5 -10 -10 -7 -6 4 -8 10
-5 14 2 5 -6 6 -20 4 -15 -3 -37 4 -62 22 -27 20 -31 21 -13 4 21 -18 21 -21
5 -14 -11 4 -26 8 -33 8 -7 0 -11 6 -8 14 4 10 1 10 -14 1 -22 -14 -30 -9 -33
20 0 11 -5 19 -9 16 -4 -3 -5 -11 -2 -18 3 -8 -3 -12 -18 -10 -13 1 -23 3 -23
4 0 1 -11 4 -25 6 -43 6 -55 9 -67 17 -7 5 -17 6 -22 2 -5 -3 -12 -1 -16 5 -3
5 -16 15 -28 20 -21 11 -21 11 -3 -4 19 -16 19 -16 -2 -16 -12 0 -22 5 -22 11
0 5 -5 7 -12 3 -7 -5 -9 -2 -6 8 4 8 1 15 -7 15 -7 0 -11 -6 -8 -13 3 -9 -2
-12 -19 -8 -12 2 -39 7 -58 10 -19 2 -48 6 -63 8 -16 3 -38 13 -50 23 -16 13
-18 14 -9 2 11 -15 9 -17 -18 -15 -16 0 -30 5 -30 11 0 5 -5 3 -10 -5 -7 -11
-10 -12 -10 -2 0 9 -7 11 -21 7 -16 -6 -20 -4 -14 6 6 11 5 11 -5 2 -9 -9 -19
-9 -33 -2 -14 8 -18 8 -13 0 4 -6 0 -11 -9 -11 -10 0 -14 5 -9 13 5 9 4 9 -5
1 -15 -14 -51 -7 -51 10 0 6 -8 2 -17 -9 -12 -16 -14 -16 -10 -3 3 10 2 20 -4
23 -5 4 -8 1 -7 -7 2 -10 -16 -13 -79 -14 -54 0 -80 3 -76 10 3 6 0 5 -8 -1
-15 -15 -33 -18 -25 -5 3 5 -1 9 -9 9 -8 0 -12 -4 -9 -9 3 -4 0 -8 -5 -8 -6 0
-11 6 -11 13 0 8 -3 8 -8 1 -4 -6 -16 -14 -26 -17 -17 -7 -17 -6 -5 10 10 12
10 15 1 9 -7 -4 -20 -2 -30 6 -15 12 -16 11 -3 -4 11 -14 11 -18 1 -18 -8 0
-23 8 -34 18 -20 16 -20 16 -7 -1z m-684 -117 c3 -5 1 -10 -4 -10 -6 0 -11 5
-11 10 0 6 2 10 4 10 3 0 8 -4 11 -10z m-275 -80 c0 -5 -5 -10 -11 -10 -5 0
-7 5 -4 10 3 6 8 10 11 10 2 0 4 -4 4 -10z m2324 2 c3 -5 -1 -9 -9 -9 -8 0
-12 4 -9 9 3 4 7 8 9 8 2 0 6 -4 9 -8z m-1159 -514 c-4 7 0 12 10 12 9 0 14
-4 11 -8 -3 -5 1 -9 9 -9 8 0 12 4 9 9 -3 4 2 8 11 8 9 0 13 -5 9 -11 -5 -8
-1 -8 14 0 24 13 35 14 28 3 -2 -4 4 -8 14 -8 10 0 16 4 13 9 -3 5 0 7 8 5 8
-3 13 -12 11 -19 -2 -11 1 -11 10 1 17 19 51 23 44 4 -3 -7 0 -16 6 -20 6 -4
8 -3 4 4 -3 6 -2 13 3 17 5 3 15 -3 21 -12 11 -17 11 -17 6 0 -5 16 -1 17 29
11 19 -3 54 -7 79 -8 25 -1 49 -6 53 -10 5 -5 2 -6 -6 -1 -10 6 -12 4 -7 -4 5
-7 12 -9 19 -3 17 13 46 11 41 -3 -3 -6 2 -12 10 -12 8 0 12 6 9 14 -4 9 0 11
11 7 9 -3 13 -11 9 -18 -4 -6 1 -5 10 3 15 12 20 12 33 -5 9 -10 13 -14 10 -8
-3 7 3 10 17 8 27 -4 61 -12 65 -14 1 -2 5 -3 10 -4 4 -1 13 -5 20 -9 7 -5 12
-3 12 4 0 10 3 10 12 1 7 -7 22 -12 35 -12 13 0 26 -7 30 -16 4 -12 8 -13 14
-3 6 10 10 10 23 0 8 -7 21 -11 28 -8 22 8 48 -12 41 -31 -6 -16 -6 -16 11 1
22 22 25 22 36 -5 7 -19 9 -19 9 -5 1 10 5 16 11 12 5 -3 6 -13 3 -23 -5 -16
-5 -16 8 0 11 12 20 14 38 7 19 -8 21 -12 11 -24 -9 -10 -9 -15 -1 -15 6 0 11
5 11 10 0 6 9 10 20 10 11 0 20 -5 20 -11 0 -6 7 -9 15 -6 8 4 17 2 20 -3 4
-6 1 -10 -6 -10 -7 0 -9 -3 -6 -6 4 -4 14 -1 24 7 14 12 16 12 8 0 -6 -11 -4
-13 8 -8 11 4 17 1 17 -8 0 -8 8 -15 18 -15 14 0 15 2 2 10 -8 5 -10 10 -4 10
14 0 36 -25 29 -34 -3 -3 1 -2 7 4 16 13 28 13 28 -1 0 -5 -6 -7 -12 -3 -9 5
-9 2 1 -9 14 -18 26 -23 16 -8 -3 5 -1 12 5 16 5 3 10 1 10 -5 0 -6 5 -8 13
-4 7 5 6 0 -3 -11 -14 -17 -14 -18 5 -8 22 11 48 6 40 -7 -3 -5 3 -8 12 -8 26
1 73 -20 73 -32 0 -6 6 -10 13 -8 13 3 117 -49 117 -58 0 -3 -4 -2 -10 1 -16
10 -11 -1 7 -16 11 -10 14 -10 9 -1 -10 17 5 15 34 -5 14 -10 27 -18 30 -18 3
0 4 -3 3 -7 -2 -5 6 -8 18 -8 15 0 19 -4 15 -16 -5 -14 -4 -15 8 -5 11 10 17
8 28 -8 8 -12 18 -18 21 -14 4 3 7 -2 7 -13 0 -16 2 -17 10 -4 5 8 10 10 10 5
0 -6 14 -16 30 -23 17 -8 30 -20 30 -28 0 -9 5 -12 10 -9 6 3 10 1 10 -5 0 -6
4 -9 9 -5 9 5 26 -12 26 -27 0 -3 4 -10 9 -15 5 -5 6 -3 2 5 -4 6 -2 12 3 12
6 0 11 -5 11 -11 0 -5 5 -7 10 -4 9 5 15 -16 11 -38 -1 -5 3 -6 8 -3 5 4 14
-2 20 -11 6 -10 11 -14 11 -9 0 5 -8 18 -17 30 -18 20 -18 20 8 0 15 -10 25
-22 22 -26 -2 -5 3 -8 12 -8 9 0 29 -13 45 -30 16 -16 34 -30 40 -30 5 0 10
-7 10 -16 0 -8 5 -12 10 -9 6 3 10 2 10 -3 0 -5 12 -14 26 -21 23 -10 24 -14
13 -28 -10 -12 -10 -15 -2 -9 7 4 23 0 35 -8 12 -9 19 -16 15 -16 -4 0 -2 -6
5 -14 7 -8 16 -12 20 -10 4 2 9 0 12 -5 4 -5 1 -13 -5 -17 -8 -5 -9 -3 -4 6 5
9 4 11 -4 6 -17 -11 -4 -25 19 -19 16 4 18 1 15 -17 -3 -17 -1 -19 9 -11 14
11 26 5 26 -13 0 -6 -5 -4 -10 4 -7 12 -9 11 -8 -6 2 -16 7 -20 27 -16 15 3
23 1 19 -3 -5 -5 1 -15 12 -22 11 -8 18 -19 14 -24 -3 -5 0 -8 8 -7 7 2 12 -3
10 -9 -1 -7 4 -13 11 -13 22 0 38 -22 26 -36 -8 -9 -4 -16 13 -24 22 -11 22
-10 4 4 -11 9 -15 16 -9 16 17 0 35 -28 27 -41 -5 -9 -2 -10 9 -6 12 5 19 -1
23 -18 3 -14 9 -23 13 -20 4 2 23 -20 42 -50 18 -29 38 -51 44 -47 5 3 4 -2
-4 -11 -8 -10 -11 -20 -7 -24 3 -3 6 -1 6 5 0 6 7 9 15 6 14 -6 13 -8 -2 -20
-17 -12 -16 -13 5 -9 18 3 22 0 18 -10 -3 -9 1 -15 9 -15 8 0 15 -4 15 -9 0
-5 8 -17 17 -27 16 -16 16 -16 -7 -10 -21 7 -21 5 6 -12 17 -11 38 -35 47 -54
9 -20 23 -41 31 -47 8 -7 12 -19 9 -27 -3 -7 2 -17 11 -20 9 -3 16 -10 16 -16
0 -5 -4 -7 -8 -4 -5 3 -9 -1 -9 -8 0 -8 7 -12 15 -8 10 3 13 1 8 -6 -4 -7 -1
-12 7 -12 10 0 13 -8 10 -24 -3 -13 1 -27 7 -31 9 -5 10 -1 6 16 -3 13 1 8 10
-11 13 -28 14 -38 3 -55 -11 -17 -10 -18 3 -7 12 10 18 10 27 -2 8 -10 9 -16
1 -21 -5 -3 -10 -12 -9 -18 0 -9 2 -9 6 1 2 6 8 12 12 12 4 0 8 -6 8 -12 1
-25 8 -42 26 -62 19 -22 22 -36 6 -36 -5 0 -7 4 -4 10 4 6 -1 7 -12 3 -15 -6
-13 -8 9 -18 24 -10 25 -12 10 -22 -15 -10 -14 -11 6 -6 16 4 22 1 22 -11 0
-25 1 -30 16 -50 10 -15 10 -24 2 -40 -10 -19 -10 -20 6 -7 9 8 16 10 15 5 -1
-5 3 -22 10 -38 9 -22 9 -32 -1 -44 -7 -9 -8 -13 -2 -9 10 6 25 -15 38 -57 6
-17 5 -17 -10 -5 -16 13 -16 12 -4 -8 8 -12 18 -19 22 -17 4 3 8 -1 9 -8 0 -7
2 -21 4 -30 2 -10 -2 -18 -8 -18 -6 0 -4 -6 5 -12 8 -7 18 -27 21 -45 5 -27 4
-31 -11 -27 -10 3 -8 0 5 -8 23 -14 27 -26 12 -45 -7 -7 -6 -14 2 -19 8 -5 9
-3 4 6 -6 9 -4 11 5 5 10 -6 9 -11 -6 -23 -16 -12 -16 -14 -2 -9 10 3 20 2 23
-3 4 -6 -2 -11 -12 -11 -17 -1 -17 -2 0 -6 20 -5 23 -23 5 -23 -9 0 -9 -3 1
-9 10 -6 15 -27 15 -58 0 -26 5 -51 11 -56 6 -5 3 -13 -10 -24 -16 -13 -17
-15 -2 -10 20 7 21 3 5 -26 -10 -19 -9 -20 3 -10 12 10 14 1 14 -57 -1 -38 -4
-73 -8 -76 -4 -4 -2 -13 4 -21 7 -8 8 -13 1 -13 -5 0 -13 -8 -17 -17 -5 -15
-4 -16 6 -5 18 17 34 15 19 -3 -10 -12 -10 -18 1 -31 12 -15 11 -16 -11 -10
-19 5 -21 5 -9 -3 22 -14 18 -57 -6 -75 -20 -14 -20 -14 -1 -13 17 2 20 -5 20
-45 1 -25 -2 -44 -6 -42 -4 2 -9 0 -13 -6 -3 -5 -1 -10 4 -10 12 0 10 -27 -2
-47 -5 -8 -3 -13 3 -13 6 0 4 -7 -5 -16 -11 -12 -13 -20 -6 -27 7 -7 5 -15 -7
-24 -9 -8 -11 -12 -4 -8 7 4 12 0 12 -9 0 -9 -4 -16 -10 -16 -5 0 -10 -5 -10
-11 0 -5 4 -8 9 -5 19 12 5 -30 -14 -42 -16 -10 -16 -12 -2 -8 9 3 17 1 17 -4
0 -6 -4 -10 -10 -10 -5 0 -6 -7 -3 -17 5 -12 3 -14 -8 -8 -11 7 -11 5 1 -10 8
-10 10 -16 5 -13 -6 4 -17 3 -25 -3 -13 -7 -12 -9 3 -9 9 0 17 -7 17 -16 0 -8
-4 -13 -9 -10 -5 3 -12 -1 -15 -10 -3 -8 -2 -12 4 -9 21 13 9 -23 -12 -37 -17
-11 -19 -16 -8 -23 9 -5 11 -4 6 3 -4 7 -2 12 3 12 14 0 14 -1 -4 -44 -8 -20
-13 -36 -11 -36 3 0 -1 -15 -9 -34 -8 -18 -11 -37 -7 -42 4 -5 -1 -3 -10 4
-14 11 -16 10 -11 -8 4 -16 2 -19 -11 -14 -9 3 -16 1 -16 -5 0 -6 5 -10 11 -8
22 4 19 -20 -6 -57 -14 -21 -21 -35 -16 -32 5 3 7 -3 4 -14 -3 -11 -12 -20
-21 -20 -12 0 -13 -3 -5 -11 15 -15 5 -39 -16 -39 -14 0 -14 -2 -1 -10 10 -6
11 -10 3 -10 -7 0 -13 -7 -13 -16 0 -10 -5 -14 -16 -10 -8 3 -13 2 -9 -3 3 -5
2 -11 -2 -14 -5 -2 -2 -2 5 -1 17 5 15 -11 -5 -27 -15 -12 -16 -12 -8 1 8 13
7 13 -8 1 -18 -14 -23 -26 -8 -16 5 3 12 1 16 -5 3 -5 1 -10 -5 -10 -6 0 -8
-5 -4 -12 5 -7 2 -9 -8 -5 -12 4 -14 1 -10 -15 4 -17 2 -19 -19 -13 -23 7 -24
7 -4 -9 16 -12 17 -16 5 -17 -8 -1 -19 -1 -23 0 -5 1 -6 -3 -2 -9 3 -6 11 -8
16 -4 6 3 5 -3 -3 -15 -7 -12 -16 -21 -21 -21 -4 0 -5 -5 -1 -12 5 -8 2 -9 -9
-5 -10 3 -17 2 -17 -3 0 -6 6 -10 13 -11 10 0 10 -2 0 -6 -7 -2 -13 -11 -13
-19 0 -8 -5 -14 -11 -14 -5 0 -7 5 -3 12 4 6 3 8 -4 4 -6 -3 -9 -16 -7 -27 3
-15 0 -19 -10 -15 -8 3 -17 0 -21 -6 -4 -7 -3 -8 4 -4 7 4 12 1 12 -9 0 -9 -4
-13 -10 -10 -5 3 -10 -2 -10 -12 0 -10 -14 -33 -30 -52 -17 -18 -30 -37 -30
-40 0 -13 -52 -61 -60 -56 -5 3 -12 0 -16 -6 -4 -8 -3 -9 4 -5 17 10 15 -9 -3
-24 -8 -6 -19 -9 -24 -5 -7 4 -8 -1 -4 -11 5 -14 3 -16 -12 -11 -14 6 -15 4
-7 -5 11 -15 -10 -42 -24 -30 -4 4 -4 -1 -1 -11 4 -11 1 -17 -9 -17 -9 0 -12
5 -8 12 4 6 3 8 -4 5 -5 -4 -8 -17 -4 -29 3 -14 2 -19 -6 -14 -7 4 -12 2 -12
-5 0 -7 -3 -9 -7 -6 -3 4 -11 -3 -17 -15 -6 -12 -17 -23 -25 -26 -9 -3 -11 0
-6 8 5 9 4 11 -4 6 -9 -6 -9 -11 -1 -21 8 -10 8 -15 -1 -21 -8 -5 -10 -3 -5 7
4 8 0 5 -8 -5 -9 -11 -16 -16 -16 -10 0 5 -6 -2 -13 -16 -8 -15 -21 -25 -34
-24 -13 0 -19 -4 -16 -13 3 -7 0 -13 -7 -13 -6 0 -8 -5 -4 -12 4 -6 3 -8 -3
-5 -6 4 -14 -1 -18 -11 -6 -16 -7 -16 -20 1 -11 16 -13 16 -19 2 -3 -9 -2 -13
4 -10 6 3 10 2 10 -4 0 -10 -57 -61 -69 -61 -4 0 -17 -9 -29 -20 -14 -14 -22
-16 -22 -8 -1 7 -8 1 -16 -14 -16 -31 -20 -33 -30 -16 -5 7 -3 8 6 3 9 -5 11
-4 6 4 -4 6 -12 9 -17 5 -5 -3 -7 -9 -4 -14 6 -9 -34 -36 -47 -32 -5 1 -7 -1
-7 -6 3 -19 -2 -25 -11 -12 -8 13 -10 13 -10 -1 0 -10 -11 -20 -25 -23 -14 -4
-25 -11 -25 -17 0 -8 -5 -7 -15 1 -13 11 -14 10 -10 -1 4 -10 -7 -20 -30 -31
-35 -16 -36 -15 -30 6 2 11 -2 6 -10 -12 -9 -19 -20 -30 -26 -26 -6 4 -15 0
-20 -7 -4 -8 -12 -14 -16 -14 -4 -1 -18 -7 -31 -14 -13 -7 -31 -10 -40 -6 -9
3 -13 3 -9 -1 7 -8 -22 -33 -38 -34 -5 0 -4 4 3 9 11 7 10 9 -3 14 -9 4 -14 3
-11 -1 2 -4 1 -14 -5 -22 -6 -10 -9 -11 -9 -2 0 16 -12 15 -36 -4 -18 -14 -18
-15 4 -4 12 6 22 7 22 2 0 -13 -44 -24 -48 -12 -2 6 -8 10 -14 10 -6 0 -8 -7
-4 -15 3 -8 1 -15 -3 -15 -5 0 -12 6 -14 13 -3 7 -6 5 -6 -5 -1 -10 -6 -18
-12 -18 -5 0 -7 6 -4 13 4 6 0 4 -8 -5 -8 -10 -16 -16 -19 -13 -2 3 -24 -4
-47 -16 -36 -17 -45 -18 -59 -7 -9 7 -13 8 -9 2 12 -20 -72 -38 -85 -19 -5 6
-8 3 -8 -7 0 -21 -11 -23 -29 -5 -9 7 -11 7 -8 1 4 -7 0 -15 -9 -18 -8 -3 -12
-2 -9 4 3 6 1 10 -4 10 -6 0 -11 -6 -12 -12 0 -9 -2 -9 -6 1 -5 11 -7 11 -15
0 -7 -11 -11 -11 -15 -1 -6 16 -24 16 -17 -1 3 -9 -8 -12 -38 -12 -24 0 -47
-2 -53 -5 -18 -9 -130 -7 -137 3 -4 7 -11 7 -20 -1 -16 -13 -58 -12 -58 1 0 5
-7 4 -15 -3 -11 -10 -18 -10 -29 -1 -11 9 -15 9 -18 -1 -4 -10 -8 -10 -21 1
-10 7 -17 10 -17 5 0 -5 -8 0 -17 11 -13 16 -15 17 -10 2 6 -15 2 -16 -25 -12
-18 3 -39 11 -47 18 -12 9 -13 9 -7 0 4 -7 3 -13 -3 -13 -5 0 -13 10 -17 22
-5 18 -8 19 -15 6 -10 -18 -71 -14 -78 4 -2 6 -7 5 -12 -3 -7 -11 -9 -11 -9 1
0 9 3 20 8 26 4 5 0 2 -9 -8 -9 -9 -18 -15 -21 -13 -2 2 -19 7 -38 10 -19 3
-37 10 -38 16 -2 5 -8 7 -13 3 -11 -6 -69 17 -69 28 0 5 -5 8 -11 8 -5 0 -7
-6 -3 -12 6 -10 5 -10 -7 -1 -9 7 -24 14 -35 16 -36 5 -46 17 -32 35 9 12 6
11 -10 -2 -22 -19 -22 -19 -23 0 0 10 -3 14 -5 7 -4 -8 -19 -5 -50 12 -24 13
-44 21 -44 19 0 -3 -13 3 -30 12 -24 15 -27 20 -17 33 10 12 9 13 -10 2 -17
-9 -23 -9 -23 0 0 6 -6 9 -14 6 -8 -3 -17 1 -20 9 -3 9 -10 13 -15 10 -5 -3
-12 1 -15 10 -3 8 -10 13 -15 9 -5 -3 -13 0 -17 6 -5 8 -3 9 6 4 8 -5 11 -4 6
3 -4 6 -13 9 -21 5 -8 -3 -15 -1 -15 5 0 6 5 12 12 14 7 3 5 7 -6 11 -10 4
-15 3 -11 -3 3 -6 -1 -10 -10 -10 -9 0 -13 5 -10 10 3 6 1 10 -5 10 -6 0 -8 5
-4 13 5 7 1 7 -12 -3 -10 -8 -16 -10 -11 -5 4 5 -7 15 -24 22 -20 8 -29 18
-26 27 4 9 0 13 -11 12 -20 -3 -55 33 -48 49 3 8 -5 11 -20 9 -13 -1 -22 2
-18 7 3 5 -1 9 -8 9 -18 0 -110 99 -103 111 4 5 -1 6 -10 3 -11 -5 -14 -2 -9
10 4 9 3 16 -2 14 -13 -4 -64 43 -58 54 3 4 0 8 -6 8 -7 0 -9 9 -5 23 7 22 7
22 -9 2 -13 -16 -15 -17 -10 -2 4 12 1 17 -11 17 -9 0 -14 4 -11 9 4 5 0 12
-6 14 -10 4 -9 8 2 17 12 9 10 10 -10 4 -14 -3 -22 -3 -18 1 4 4 0 14 -8 22
-8 8 -12 19 -9 24 4 5 -1 9 -9 9 -14 0 -18 6 -15 26 0 3 -8 12 -18 21 -11 9
-12 12 -3 8 8 -4 6 1 -5 10 -11 9 -19 21 -18 26 2 5 -2 9 -8 9 -5 0 -8 4 -4 9
3 5 -2 16 -11 25 -8 9 -12 22 -8 28 4 7 4 10 -1 6 -10 -9 -48 49 -40 61 2 5
-4 19 -15 31 -14 17 -17 27 -9 36 7 9 6 14 -2 20 -8 5 -9 3 -4 -6 5 -9 4 -11
-3 -6 -7 4 -12 16 -12 27 0 10 -4 19 -9 19 -12 0 -21 39 -10 46 5 3 9 11 8 17
0 9 -2 8 -6 -1 -2 -6 -9 -9 -14 -6 -6 3 -5 12 3 22 11 13 11 14 -1 7 -11 -6
-13 -3 -9 13 4 12 1 25 -4 29 -7 3 -8 1 -4 -5 4 -7 2 -12 -3 -12 -14 0 -14 6
-1 30 7 13 7 21 -2 26 -7 5 -8 3 -3 -6 5 -9 4 -11 -4 -6 -9 6 -9 11 0 22 10
12 10 14 -1 12 -7 -2 -15 3 -18 11 -3 10 0 11 9 5 11 -6 12 -5 2 7 -7 9 -15
26 -17 40 -3 13 -5 24 -6 24 -1 0 -3 10 -4 22 -2 14 2 20 8 16 6 -4 5 1 -3 10
-7 9 -10 17 -6 17 4 0 3 6 -1 12 -11 15 -11 38 -1 55 4 6 3 14 -3 18 -5 3 -10
11 -10 17 0 6 7 5 17 -3 15 -13 15 -12 2 9 -8 12 -17 22 -22 22 -4 0 -5 5 -2
10 5 8 12 7 23 -2 16 -12 16 -11 1 7 -25 31 -28 48 -11 68 14 16 14 17 -1 12
-13 -6 -15 -2 -10 17 3 12 6 39 6 60 1 20 5 34 10 31 4 -2 5 8 1 23 -5 19 -4
25 5 20 6 -4 11 -2 11 3 0 6 -5 11 -10 11 -12 0 -2 48 14 69 9 12 8 13 -4 6
-11 -6 -10 -3 3 12 9 11 17 24 17 29 0 5 -5 2 -10 -6 -6 -9 -10 -10 -10 -3 0
6 5 15 11 18 6 4 8 13 5 21 -3 8 1 14 9 14 8 0 15 5 15 11 0 5 -4 7 -10 4 -17
-10 -11 7 8 22 9 8 12 12 6 9 -7 -3 -9 3 -6 19 2 14 9 25 14 25 5 0 6 5 3 10
-3 6 -2 10 3 10 6 0 9 8 8 18 -1 12 5 16 19 14 l20 -4 -20 16 c-12 9 -15 15
-7 16 8 0 10 5 6 12 -5 8 -1 9 12 4 15 -6 16 -5 7 5 -15 15 2 53 20 42 9 -5 9
-3 0 8 -9 11 -8 18 1 31 7 10 15 15 18 12 3 -2 8 2 12 11 4 10 2 14 -5 9 -7
-4 -10 -1 -7 7 3 8 11 13 18 11 8 -2 10 3 7 13 -4 8 -2 15 3 15 6 0 10 -5 10
-12 0 -6 3 -8 6 -5 4 4 1 14 -7 24 -8 9 -9 14 -3 10 7 -4 14 3 18 18 4 14 11
25 17 25 6 0 7 5 4 10 -6 9 8 14 28 11 5 -1 6 3 3 8 -10 15 5 41 23 41 14 0
14 2 1 10 -13 8 -12 10 5 11 11 1 24 1 28 0 5 -1 6 3 2 9 -3 6 -11 7 -17 4 -5
-4 -4 4 2 17 12 22 13 22 28 3 12 -16 14 -16 9 -1 -8 20 1 47 15 47 6 0 4 -8
-3 -17 -13 -16 -12 -17 3 -4 10 7 16 17 13 21 -2 4 3 16 11 26 9 10 12 13 8 5
-5 -9 -3 -12 4 -7 7 4 12 14 12 22 0 8 8 14 18 14 19 1 63 30 45 30 -7 0 -15
-4 -18 -10 -3 -5 -11 -10 -17 -10 -6 0 5 13 23 30 19 16 40 28 46 25 7 -2 12
-1 12 3 -3 19 2 30 17 36 8 3 13 2 10 -2 -3 -5 1 -9 8 -9 8 0 12 6 9 13 -2 7
6 18 19 25 13 6 27 18 31 26 8 12 12 12 30 -4 12 -9 16 -11 10 -3 -22 24 -14
34 9 14 20 -16 21 -17 9 -1 -12 15 -12 20 -1 30 10 10 11 9 5 -3 -4 -8 2 -5
14 8 17 17 26 20 35 13 16 -13 27 -4 19 15 -4 10 0 12 13 7 13 -5 15 -3 9 8
-5 8 2 5 16 -6 13 -11 18 -13 12 -5 -17 22 21 47 43 29 12 -10 13 -9 9 3 -4 9
1 18 12 22 10 3 25 9 33 13 13 5 13 4 2 -9 -9 -11 -10 -18 -2 -23 6 -4 9 -1 8
7 -2 7 5 12 15 12 14 -2 15 1 6 13 -11 12 -8 13 17 8 22 -5 25 -4 14 4 -13 9
-13 11 3 12 30 3 35 4 43 11 4 4 14 2 22 -4 11 -10 17 -9 27 5 12 17 14 17 31
0 16 -16 17 -16 11 -1 -3 10 -2 20 3 23 6 4 10 2 10 -3 0 -5 7 -9 15 -9 8 0
12 4 9 9 -3 4 -1 8 5 8 5 0 13 -5 16 -11 5 -7 12 -6 23 3 21 17 58 16 54 -1
-1 -7 2 -10 8 -6 6 3 8 10 5 15 -3 4 3 7 12 5 10 -1 17 -9 15 -16 -3 -10 1 -9
15 2 13 12 32 15 68 11 28 -2 65 -5 82 -5 28 -1 32 -4 27 -22 -6 -20 -6 -20 9
0 13 17 18 18 29 6 11 -12 11 -13 -2 -6 -8 5 -11 4 -7 0 10 -12 38 -15 31 -4
-6 11 19 12 30 2 4 -5 12 -9 17 -9 22 -3 23 -5 9 -14 -9 -6 -10 -10 -3 -10 6
0 15 5 18 10 10 16 25 1 18 -18 -5 -14 -3 -14 9 2 14 18 15 18 38 -5 13 -13
20 -19 16 -12 -4 7 1 9 14 6 11 -3 17 -9 14 -14 -3 -5 2 -6 10 -3 11 4 16 0
16 -12 0 -16 2 -17 11 -4 9 13 12 13 22 -3 7 -10 18 -26 25 -35 11 -15 12 -14
2 6 -7 15 -7 22 0 22 5 0 10 -5 10 -12 0 -6 3 -8 7 -5 10 10 33 -13 27 -27 -3
-7 2 -13 10 -13 8 0 13 4 10 9 -3 4 0 8 5 8 6 0 11 -10 11 -22 0 -19 2 -20 10
-8 7 11 10 11 10 2 0 -7 4 -11 9 -8 5 4 21 -7 34 -24 14 -16 30 -30 36 -30 6
0 8 -8 4 -17 -3 -10 -3 -15 2 -11 11 10 45 -10 45 -27 0 -7 4 -17 10 -20 6 -3
8 2 5 12 -3 10 1 5 9 -12 8 -16 15 -26 16 -21 0 5 7 3 16 -5 8 -7 13 -21 11
-31 -3 -10 -2 -16 2 -14 7 5 45 -33 45 -44 0 -3 7 -12 16 -20 9 -8 11 -11 4
-7 -7 5 -15 3 -20 -4 -4 -8 -3 -9 4 -5 7 4 12 3 12 -3 0 -5 9 -13 20 -16 11
-3 20 -15 20 -26 0 -10 5 -19 11 -19 5 0 8 -4 5 -9 -3 -4 4 -19 15 -32 18 -21
19 -24 4 -35 -10 -8 -12 -14 -6 -19 6 -3 11 0 11 7 1 8 6 6 15 -6 11 -15 12
-23 3 -33 -6 -8 -7 -13 -2 -12 21 4 28 -2 14 -11 -13 -8 -12 -10 3 -10 11 0
15 -5 11 -11 -3 -6 0 -15 7 -20 10 -6 11 -9 2 -9 -7 0 -13 -5 -13 -11 0 -5 4
-8 9 -5 15 10 33 -22 27 -46 -3 -13 -3 -17 0 -10 8 18 27 15 20 -4 -3 -8 -2
-13 3 -10 5 3 17 -5 27 -19 10 -13 22 -21 27 -18 5 3 6 -5 2 -18 -4 -17 -4
-20 3 -10 9 12 13 12 26 -2 9 -8 29 -18 46 -22 16 -4 32 -11 35 -16 4 -5 17
-9 31 -9 15 0 23 -4 19 -11 -4 -6 3 -5 14 3 18 11 23 11 31 -2 6 -8 10 -10 10
-3 0 6 8 10 18 8 9 -1 16 -8 14 -15 -1 -6 2 -9 8 -5 6 3 8 11 5 16 -4 5 -3 9
2 9 4 0 19 3 32 7 17 4 22 3 17 -6 -4 -6 -12 -9 -17 -6 -5 4 -9 1 -9 -4 0 -18
15 -12 40 14 18 19 26 22 37 13 11 -9 13 -8 11 2 -2 7 3 15 11 18 9 3 11 0 6
-9 -5 -8 -4 -11 1 -6 5 5 9 14 9 20 0 7 9 11 18 11 10 -1 16 0 13 3 -10 10 58
74 72 68 13 -5 13 -3 1 12 -12 15 -12 16 3 10 10 -3 20 -1 24 5 4 6 3 8 -4 4
-6 -3 -13 -2 -17 4 -3 5 -1 10 5 10 6 0 8 5 5 10 -3 6 2 10 12 10 15 0 16 2 3
10 -13 8 -8 14 10 12 3 0 7 8 7 19 1 11 -2 17 -7 14 -6 -3 -7 1 -4 9 3 9 10
13 15 10 5 -3 5 6 -1 20 -6 17 -6 27 2 32 7 5 8 3 3 -6 -6 -9 -4 -11 4 -5 9 5
9 11 3 17 -6 6 -8 17 -5 24 3 8 1 14 -4 14 -5 0 -8 23 -8 51 0 28 -4 53 -9 56
-5 4 -6 0 -1 -7 5 -9 4 -11 -4 -6 -9 6 -9 11 1 24 7 9 8 13 2 9 -6 -3 -16 5
-23 20 -10 21 -9 28 1 34 12 8 4 13 -15 10 -5 -1 -6 3 -2 9 3 5 1 10 -4 10
-15 0 -14 33 2 50 10 12 9 12 -5 1 -16 -12 -22 -9 -19 12 0 4 -3 7 -7 7 -5 0
-14 11 -20 25 -10 21 -9 23 6 19 12 -4 11 -2 -3 7 -28 17 -41 39 -44 75 0 8
-5 12 -11 9 -5 -3 -10 0 -10 9 0 8 3 16 8 19 4 2 2 3 -4 1 -22 -5 -34 18 -22
40 9 18 9 19 -3 10 -11 -10 -20 -4 -43 30 -16 22 -22 35 -14 28 13 -10 18 -9
29 5 12 16 12 17 -1 6 -13 -10 -22 -7 -49 14 -32 25 -33 27 -15 40 17 13 17
13 -6 11 -20 -2 -24 1 -22 16 2 10 -1 15 -7 12 -5 -4 -15 3 -21 14 -6 11 -15
18 -21 15 -5 -4 -9 1 -9 9 0 9 -4 16 -10 16 -5 0 -10 7 -10 16 0 8 -4 12 -10
9 -5 -3 -10 -1 -10 5 0 17 -26 40 -36 32 -5 -4 -2 1 5 11 12 15 12 17 -3 11
-18 -7 -80 51 -91 87 -4 11 -9 18 -12 16 -2 -3 1 -16 8 -29 11 -21 10 -21 -15
4 -18 17 -25 32 -20 40 6 10 5 11 -7 1 -13 -11 -24 -5 -64 33 -26 25 -44 41
-40 34 6 -9 2 -9 -14 -1 -11 7 -21 18 -21 26 0 8 -5 15 -11 15 -5 0 -7 -5 -3
-12 4 -7 -7 -2 -24 11 -19 13 -29 27 -25 34 4 7 -1 6 -10 -2 -11 -9 -17 -10
-17 -2 0 6 -7 11 -16 11 -8 0 -13 4 -10 9 3 5 -1 12 -10 15 -9 4 -13 2 -8 -5
4 -7 0 -7 -15 1 -13 6 -19 16 -14 23 4 7 0 7 -10 -2 -15 -12 -17 -11 -17 3 0
9 -3 15 -7 15 -5 -1 -15 -1 -23 0 -13 1 -13 2 0 11 8 5 10 10 5 10 -6 0 -16
-5 -23 -12 -9 -9 -12 -9 -12 0 0 7 -9 12 -20 12 -11 0 -20 5 -20 10 0 6 -6 10
-12 9 -7 -1 -22 -1 -33 0 -17 1 -18 3 -5 12 12 9 11 10 -7 6 -17 -4 -23 0 -24
11 0 12 -2 13 -6 3 -5 -11 -7 -11 -14 0 -7 12 -9 11 -9 -1 0 -10 -3 -11 -8 -4
-4 7 -20 14 -37 15 -16 2 -32 7 -35 11 -3 4 -21 9 -40 12 -19 3 -44 7 -55 10
-11 2 -24 5 -28 5 -5 1 -5 6 -1 13 5 7 3 8 -7 2 -20 -12 -38 -14 -44 -4 -3 5
-13 6 -22 3 -9 -4 -14 -2 -11 3 4 5 -18 9 -50 8 -32 0 -61 2 -67 5 -16 9 -29
8 -44 -3 -11 -8 -13 -8 -8 1 6 9 -6 11 -47 8 -43 -4 -58 -1 -72 12 -17 17 -17
17 -11 1 3 -10 2 -20 -3 -23 -6 -4 -10 2 -11 12 0 10 -3 13 -6 6 -3 -9 -11 -9
-31 3 -25 15 -25 15 -8 0 15 -12 16 -16 5 -16 -8 0 -21 6 -28 13 -10 10 -11 9
-6 -3 7 -19 -35 -25 -47 -7 -6 9 -8 8 -8 -3 0 -13 -1 -13 -10 0 -8 13 -10 12
-10 -3 0 -15 -3 -16 -21 -6 -17 8 -20 8 -14 -1 9 -14 -31 -5 -55 14 -9 6 -8 2
3 -10 17 -21 17 -21 -18 -18 -19 1 -33 -2 -29 -7 3 -5 0 -9 -5 -9 -6 0 -11 6
-11 13 0 7 -5 5 -10 -5 -6 -9 -18 -15 -28 -13 -9 2 -17 4 -17 5 0 1 -8 3 -18
5 -9 2 -15 -1 -11 -6 3 -5 10 -6 16 -3 7 5 8 2 4 -5 -5 -7 -14 -10 -22 -7 -7
3 -16 1 -20 -5 -4 -6 -14 -4 -27 8 -12 9 -16 11 -9 3 16 -19 15 -31 -2 -24 -8
3 -17 1 -21 -5 -3 -6 -12 -11 -18 -11 -7 0 -6 4 3 10 8 5 11 10 5 10 -5 0 -21
-9 -35 -20 -31 -25 -48 -26 -29 -2 8 10 4 8 -8 -5 -26 -28 -34 -29 -27 -5 3 9
-1 6 -9 -7 -11 -18 -16 -20 -20 -10 -4 10 -6 9 -6 -4 -1 -13 -7 -16 -27 -13
-16 3 -27 0 -31 -10 -3 -7 -9 -12 -13 -9 -4 3 -10 -1 -13 -9 -4 -9 -17 -13
-40 -11 -24 2 -34 -1 -34 -11 0 -10 4 -11 11 -4 5 5 15 10 21 10 5 0 1 -7 -9
-15 -10 -8 -23 -12 -27 -9 -5 3 -9 1 -9 -5 0 -6 -7 -7 -17 -4 -12 5 -14 3 -8
-8 7 -11 5 -11 -10 1 -15 12 -17 12 -10 1 6 -11 4 -13 -8 -8 -11 4 -14 2 -10
-9 3 -7 0 -14 -7 -14 -7 0 -26 -10 -43 -22 -17 -12 -27 -17 -23 -10 4 7 2 12
-3 12 -6 0 -11 -6 -11 -14 0 -21 -48 -48 -73 -41 -17 5 -19 4 -7 -4 13 -10 13
-12 0 -21 -22 -14 -30 -12 -24 8 5 13 4 14 -4 3 -6 -8 -7 -21 -4 -30 5 -14 4
-14 -11 -2 -15 12 -17 12 -10 -4 5 -14 3 -17 -10 -12 -9 3 -19 1 -23 -5 -4 -7
-3 -8 4 -4 7 4 12 3 12 -2 0 -12 -40 -33 -68 -35 -12 0 -22 -5 -22 -10 0 -5 7
-7 15 -3 8 3 15 1 15 -4 0 -6 -3 -10 -7 -10 -9 0 -52 -35 -105 -86 -24 -23
-42 -33 -50 -28 -8 5 -8 1 2 -11 8 -10 10 -16 4 -12 -7 4 -15 0 -18 -9 -3 -9
-13 -14 -21 -11 -9 4 -12 1 -9 -7 7 -18 -22 -39 -43 -32 -17 6 -17 5 -1 -7 14
-12 13 -16 -18 -45 -19 -18 -39 -30 -46 -26 -7 4 -8 3 -4 -5 4 -6 12 -8 18 -5
7 4 8 2 4 -5 -4 -6 -12 -9 -17 -6 -5 4 -9 1 -9 -5 0 -6 -5 -8 -12 -4 -7 4 -8
3 -4 -4 4 -7 0 -22 -8 -34 -15 -21 -21 -18 -16 7 1 5 -2 7 -6 2 -12 -11 -12
-47 -1 -40 6 4 7 1 3 -6 -5 -7 -14 -10 -21 -7 -7 2 -12 -3 -11 -12 0 -9 -5
-16 -12 -14 -10 2 -11 -4 -7 -19 4 -12 3 -19 -2 -16 -5 3 -15 -3 -22 -15 -10
-16 -10 -19 1 -13 7 4 2 -3 -12 -15 -14 -12 -18 -19 -10 -15 9 4 8 0 -3 -8
-10 -9 -18 -18 -18 -21 3 -21 0 -26 -11 -20 -8 5 -9 2 -5 -9 3 -10 2 -17 -2
-17 -5 0 -11 5 -13 12 -3 8 -7 6 -11 -5 -3 -9 -1 -19 5 -23 7 -5 8 -2 3 6 -6
9 -4 11 4 6 9 -6 9 -12 -3 -25 -9 -10 -16 -23 -16 -30 0 -8 -6 -11 -16 -7 -15
6 -15 4 -3 -11 13 -15 12 -16 -6 -9 -15 5 -17 4 -8 -5 9 -9 7 -21 -9 -50 -11
-22 -25 -39 -32 -39 -6 0 -4 -5 4 -10 12 -7 12 -10 1 -10 -8 0 -11 -6 -7 -16
5 -12 1 -14 -17 -9 -18 5 -19 4 -5 -5 13 -8 14 -15 5 -39 -6 -17 -15 -27 -19
-25 -5 3 -7 -6 -4 -20 3 -15 1 -24 -5 -21 -5 4 -6 11 -3 17 4 6 2 8 -4 5 -5
-4 -8 -17 -4 -29 4 -16 2 -19 -9 -13 -12 8 -12 6 -1 -8 8 -9 10 -21 6 -29 -5
-7 -9 -17 -9 -23 -1 -5 -7 -9 -13 -7 -10 2 -10 -3 -2 -18 9 -16 8 -20 -7 -21
-11 0 -13 -3 -5 -6 6 -2 12 -9 12 -14 0 -6 -4 -8 -9 -5 -5 3 -12 -1 -15 -10
-3 -8 -2 -12 4 -9 6 3 10 -1 10 -9 0 -8 -5 -18 -10 -21 -6 -4 -7 -11 -4 -17 5
-8 1 -9 -12 -4 -10 4 -15 4 -11 0 4 -4 2 -13 -5 -21 -9 -11 -8 -13 1 -11 8 2
15 -5 16 -15 2 -9 0 -15 -5 -12 -5 3 -7 -12 -5 -32 2 -25 -3 -45 -14 -57 -9
-11 -10 -16 -3 -12 6 4 12 2 12 -3 0 -6 -8 -11 -17 -12 -11 0 -13 -3 -5 -6 6
-2 12 -14 12 -24 0 -11 -4 -18 -8 -15 -5 3 -9 -1 -9 -9 0 -8 4 -12 9 -9 4 3 8
0 8 -5 0 -6 -4 -11 -10 -11 -5 0 -10 -5 -10 -11 0 -5 6 -7 13 -4 6 4 4 0 -6
-8 -16 -13 -16 -15 -1 -21 11 -4 13 -10 6 -19 -5 -6 -9 -36 -8 -65 2 -37 -1
-51 -10 -48 -7 3 -10 -2 -7 -15 3 -10 8 -17 12 -14 4 2 7 -19 6 -48 -1 -36 -5
-51 -14 -49 -7 1 -10 -2 -6 -8 3 -6 11 -8 16 -5 5 4 9 2 9 -4 0 -5 -5 -13 -12
-17 -7 -5 -5 -11 7 -21 11 -7 13 -13 6 -13 -7 0 -10 -4 -6 -9 3 -6 -2 -14 -11
-19 -15 -9 -15 -10 5 -17 19 -6 20 -9 9 -23 -10 -12 -10 -14 0 -8 8 4 12 1 12
-9 0 -12 -5 -15 -16 -11 -14 5 -15 4 -4 -9 7 -8 16 -13 20 -10 5 3 7 -10 6
-27 -1 -18 3 -39 9 -47 7 -11 7 -13 -2 -7 -7 4 -13 2 -13 -3 0 -6 4 -11 9 -11
14 0 20 -64 7 -72 -7 -5 -4 -8 7 -8 13 0 17 -8 17 -34 0 -19 5 -38 10 -41 6
-4 8 -10 6 -14 -3 -4 -1 -13 4 -21 5 -9 4 -20 -3 -29 -9 -12 -9 -13 0 -8 13 8
37 -26 26 -36 -3 -4 0 -14 8 -24 8 -9 9 -14 4 -11 -6 4 -11 -2 -11 -12 0 -13
4 -16 11 -10 8 7 12 5 12 -5 0 -8 -4 -15 -9 -15 -4 0 -8 -4 -8 -10 0 -5 7 -7
15 -4 8 4 16 1 16 -5 1 -6 3 -15 4 -21 1 -5 3 -12 4 -15 0 -3 1 -7 1 -10 0 -3
7 -19 15 -35 9 -17 13 -36 9 -42 -4 -7 -3 -8 4 -4 7 4 13 0 14 -11 0 -10 2
-23 2 -30 1 -6 5 -15 10 -20 5 -5 6 -2 1 6 -5 10 -4 12 4 7 6 -4 8 -13 4 -19
-11 -18 -12 -38 -2 -31 5 3 7 10 4 15 -4 5 -1 9 6 9 6 0 9 -8 6 -20 -3 -14 0
-20 10 -20 13 0 13 -2 2 -17 -12 -14 -12 -16 0 -8 11 6 13 4 8 -8 -4 -12 -2
-14 10 -10 11 4 14 2 9 -5 -4 -7 -2 -12 4 -12 6 0 9 -4 5 -9 -3 -5 2 -16 10
-24 11 -12 12 -17 2 -20 -7 -3 -5 -6 5 -6 12 -1 15 -6 11 -18 -3 -10 -3 -15 2
-11 4 4 14 0 21 -10 19 -24 17 -40 -2 -16 -14 18 -15 18 -4 -4 6 -12 15 -22
21 -22 6 0 8 -4 5 -9 -3 -5 3 -11 14 -14 12 -3 20 -14 20 -27 0 -14 -4 -19
-12 -14 -8 4 -10 3 -5 -2 5 -5 13 -10 18 -10 5 -1 13 -2 19 -3 5 0 6 -8 3 -18
-4 -9 -2 -14 3 -11 5 3 18 -6 28 -20 11 -14 14 -22 6 -17 -8 5 -11 3 -8 -6 3
-8 11 -13 17 -11 7 1 9 -2 6 -8 -5 -8 -13 -5 -26 6 -18 16 -19 16 -13 1 3 -10
1 -17 -5 -17 -6 0 -11 6 -11 13 0 8 -3 9 -8 1 -9 -14 -43 -14 -61 0 -11 8 -13
8 -8 0 4 -7 -2 -11 -18 -11 -14 0 -25 5 -25 11 0 6 -5 4 -10 -4 -8 -13 -13
-13 -31 -2 -11 8 -18 9 -14 3 3 -6 -1 -11 -9 -11 -9 0 -16 6 -16 13 0 8 -2 9
-8 1 -9 -15 -65 -15 -74 0 -6 8 -8 7 -8 -1 0 -7 -8 -13 -18 -13 -10 0 -24 6
-31 13 -11 10 -13 10 -7 0 4 -7 2 -13 -3 -13 -6 0 -12 8 -12 18 -1 16 -2 16
-6 0 -5 -21 -23 -24 -24 -5 0 10 -2 10 -6 0 -2 -7 -9 -13 -14 -13 -6 0 -7 6
-3 13 6 9 4 9 -7 1 -23 -17 -59 -15 -60 4 -1 15 -2 15 -6 -1 -5 -20 -23 -23
-24 -4 0 10 -2 10 -6 0 -2 -7 -9 -13 -14 -13 -6 0 -7 5 -3 12 5 7 3 8 -7 2
-21 -13 -80 -14 -72 0 4 6 -2 4 -12 -4 -10 -8 -16 -10 -12 -4 3 6 0 11 -8 11
-8 0 -12 -4 -9 -9 3 -4 -2 -8 -10 -8 -9 0 -16 6 -16 13 0 8 -2 9 -8 1 -4 -7
-20 -12 -37 -12 -16 0 -33 5 -37 12 -6 8 -8 7 -8 -1 0 -17 -32 -17 -49 -1 -11
10 -13 10 -7 0 11 -18 -5 -15 -20 6 -13 16 -14 16 -8 -1 8 -22 -12 -22 -26 1
-11 16 -11 16 -6 0 6 -21 -4 -23 -23 -6 -11 10 -13 10 -7 1 4 -7 2 -13 -3 -13
-6 0 -11 6 -11 13 0 8 -4 7 -10 -3 -9 -13 -11 -13 -20 0 -6 10 -10 11 -10 3 0
-7 -4 -13 -10 -13 -5 0 -7 8 -4 18 5 16 5 16 -6 0 -12 -20 -35 -25 -24 -5 6 9
4 9 -7 -1 -19 -17 -29 -15 -23 6 5 14 4 14 -6 -2 -10 -15 -14 -16 -21 -5 -6
10 -9 11 -9 2 0 -7 -5 -13 -11 -13 -5 0 -7 6 -3 12 5 8 0 7 -11 -2 -10 -8 -16
-10 -12 -4 3 6 0 11 -8 11 -8 0 -12 -4 -9 -9 3 -4 -2 -8 -10 -8 -9 0 -16 6
-16 13 0 8 -2 9 -8 1 -4 -7 -20 -12 -37 -12 -16 0 -33 5 -37 12 -6 8 -8 7 -8
-1 0 -17 -32 -17 -49 -1 -11 10 -13 10 -7 0 4 -6 2 -12 -3 -12 -6 0 -12 8 -12
18 -1 16 -2 16 -6 -1 -5 -20 -23 -23 -24 -4 0 10 -2 10 -6 0 -2 -7 -9 -13 -14
-13 -6 0 -7 6 -3 13 6 9 4 9 -7 1 -23 -17 -59 -15 -60 4 -1 15 -2 15 -6 -1 -5
-20 -23 -23 -24 -4 0 9 -2 9 -6 0 -2 -7 -9 -13 -14 -13 -6 0 -7 5 -3 12 5 7 3
8 -7 2 -21 -13 -80 -14 -72 0 4 6 -2 4 -12 -4 -10 -8 -16 -10 -12 -4 3 6 0 11
-8 11 -8 0 -12 -4 -9 -9 3 -4 -2 -8 -10 -8 -9 0 -16 6 -16 13 0 8 -2 9 -8 1
-4 -7 -20 -12 -37 -12 -16 0 -33 5 -37 12 -6 8 -8 7 -8 -1 0 -7 -5 -13 -11
-13 -5 0 -8 4 -5 8 3 5 -1 9 -9 9 -8 0 -12 -4 -9 -9 8 -13 -10 -10 -25 4 -10
9 -12 9 -7 1 4 -7 -1 -11 -13 -10 -11 0 -18 4 -15 8 2 4 -1 11 -7 15 -7 4 -9
3 -5 -4 10 -17 -13 -25 -31 -10 -12 9 -15 9 -9 0 4 -6 2 -12 -3 -12 -6 0 -11
6 -11 13 0 9 -3 8 -9 -2 -7 -11 -11 -10 -21 5 -10 16 -11 16 -6 2 6 -21 -4
-23 -23 -6 -11 10 -13 10 -7 1 4 -7 2 -13 -3 -13 -6 0 -11 6 -11 13 0 8 -3 8
-8 2 -8 -13 -55 -18 -47 -5 3 5 1 12 -5 15 -6 4 -9 1 -8 -6 2 -6 -3 -14 -11
-17 -8 -2 -11 0 -8 5 3 5 -3 9 -13 9 -10 0 -16 -4 -14 -8 8 -13 -11 -9 -25 4
-11 10 -13 10 -7 1 9 -17 -6 -17 -23 -1 -11 10 -13 10 -7 1 9 -17 -16 -17 -33
0 -10 8 -12 8 -7 0 4 -7 -1 -11 -13 -10 -14 1 -17 5 -10 13 7 8 6 15 -2 20 -8
4 -9 3 -5 -4 4 -7 2 -12 -4 -12 -7 0 -9 8 -5 20 4 11 2 20 -4 20 -6 0 -11 12
-11 26 0 17 4 23 13 18 7 -4 9 -3 4 2 -5 5 -13 10 -18 10 -5 1 -12 2 -15 3 -4
0 -1 8 6 16 10 12 10 15 0 15 -7 0 -10 7 -6 15 3 8 0 15 -7 15 -7 0 -4 7 6 14
18 14 17 14 -2 21 -12 3 -21 11 -21 16 0 6 4 8 8 5 4 -2 8 6 8 20 0 13 -6 24
-13 24 -15 0 -13 21 2 32 6 4 1 8 -10 8 -17 0 -17 2 -5 10 10 6 11 10 3 10 -7
0 -12 10 -12 23 0 12 -2 35 -5 50 -4 18 -3 26 4 22 6 -3 7 0 4 9 -3 9 -11 16
-18 16 -6 0 -4 5 4 10 10 7 11 10 2 10 -8 0 -11 11 -9 35 2 19 0 32 -4 29 -16
-9 -9 14 9 32 16 17 16 18 -2 11 -13 -5 -17 -3 -13 7 3 8 3 17 -1 20 -10 11
-11 36 0 36 6 0 8 -6 5 -13 -3 -8 1 -14 8 -14 10 0 11 5 4 19 -5 10 -15 18
-21 18 -6 0 -5 6 3 17 8 10 9 14 2 10 -6 -4 -14 -3 -18 3 -3 5 -1 10 5 10 7 0
9 8 5 19 -3 10 -7 60 -10 111 -3 84 -2 90 12 74 12 -15 12 -13 -1 9 -12 20
-13 27 -4 27 7 0 5 5 -6 11 -14 9 -15 13 -5 19 10 7 10 12 -2 26 -9 11 -9 15
-1 10 9 -5 11 1 6 28 -3 23 -1 36 6 36 6 0 8 -5 4 -12 -5 -7 -3 -8 6 -3 11 7
10 10 -1 19 -21 16 -17 52 6 71 20 16 20 16 -2 6 -21 -10 -21 -9 -16 42 3 28
9 56 14 62 5 5 9 14 9 20 0 5 -5 3 -10 -5 -8 -13 -10 -13 -10 2 0 9 5 20 11
24 8 5 8 9 -1 14 -8 5 -9 13 -2 26 5 11 7 32 5 47 -2 19 0 26 7 22 6 -3 8 -11
5 -16 -4 -5 -1 -9 4 -9 16 0 14 11 -6 32 -15 17 -15 18 3 19 11 0 13 3 7 6
-21 8 -16 36 5 29 14 -5 14 -4 -2 9 -20 15 -20 15 0 16 16 1 16 2 2 6 -10 2
-15 10 -11 19 3 7 10 11 17 7 6 -4 5 1 -3 11 -11 13 -11 20 -3 28 15 15 16 32
2 23 -7 -4 -7 3 0 20 6 15 8 31 5 35 -3 5 3 23 14 41 15 24 17 36 9 46 -6 7
-6 13 -1 13 5 0 8 14 7 30 -1 17 2 33 7 36 5 3 7 10 3 15 -3 5 0 16 6 24 6 8
9 19 5 25 -4 6 1 18 11 26 11 9 13 13 7 9 -7 -3 -13 -2 -13 3 0 5 10 14 22 21
13 6 15 9 6 7 -13 -4 -17 0 -15 14 2 11 6 22 9 26 4 3 4 13 1 22 -5 14 -2 13
18 -3 17 -14 20 -15 10 -3 -15 20 -9 100 8 106 6 2 8 8 5 13 -3 6 2 20 13 31
10 12 12 18 6 14 -7 -4 -13 -3 -13 2 0 6 7 12 15 16 8 3 15 11 15 18 0 9 -3 8
-10 -2 -5 -8 -10 -10 -10 -4 0 5 6 19 14 29 8 11 11 26 8 35 -5 13 -3 13 10 2
13 -10 18 -10 24 -1 4 7 3 9 -3 6 -13 -8 -24 18 -17 38 4 8 14 15 23 15 9 0
12 3 6 8 -13 9 -13 21 3 50 7 12 10 22 6 22 -3 0 -1 6 5 13 6 8 7 18 3 23 -4
4 2 2 12 -6 18 -14 19 -14 8 6 -9 17 -7 24 8 37 12 10 17 23 13 33 -5 14 -3
16 13 10 14 -5 16 -4 8 4 -16 16 4 80 25 80 14 0 14 2 1 10 -13 8 -8 14 11 12
4 -1 6 7 6 16 0 34 3 43 13 37 6 -3 7 1 4 9 -8 21 5 20 23 -1 10 -12 10 -9 -1
10 -15 24 -15 28 -2 33 9 3 12 12 9 21 -4 10 -2 14 4 10 6 -4 10 1 9 11 0 10
5 16 13 14 12 -3 12 -1 0 14 -12 16 -12 17 3 11 13 -4 15 -2 11 10 -4 10 -2
14 4 10 6 -4 10 1 9 10 0 10 5 18 13 18 8 0 15 8 17 18 1 9 -2 15 -7 11 -5 -3
-6 -10 -3 -16 4 -7 2 -8 -5 -4 -9 6 -9 11 0 22 6 8 19 29 29 47 10 17 22 32
28 32 6 0 14 4 19 9 5 5 3 6 -4 2 -21 -12 -15 8 6 21 10 7 18 21 17 35 -3 27
21 59 38 52 7 -3 19 3 27 13 13 16 12 17 -4 4 -9 -8 -20 -11 -24 -7 -4 3 2 13
13 22 10 8 13 12 5 8 -10 -5 -12 -3 -7 5 5 7 15 10 23 6 13 -4 14 -3 4 9 -10
12 -8 17 8 26 12 6 20 16 18 23 -1 7 7 11 18 10 11 -1 14 0 8 3 -17 8 -17 28
0 21 9 -3 13 3 13 17 -1 17 4 20 24 18 23 -2 23 -2 6 11 -18 13 -18 14 4 30
13 9 28 13 33 10 6 -3 7 -1 3 6 -4 6 -13 9 -19 5 -7 -3 -2 3 10 14 12 11 19
23 15 28 -4 5 1 2 11 -5 15 -12 17 -12 11 4 -6 14 -4 16 6 10 9 -6 11 -4 5 5
-5 7 2 20 17 34 13 11 18 17 11 12 -10 -6 -12 -4 -7 8 3 9 13 16 21 16 8 0 11
5 8 10 -3 6 -2 10 3 10 6 0 19 15 31 33 11 17 21 28 21 22 1 -5 7 5 16 24 8
19 17 31 20 28 10 -9 45 13 39 24 -7 11 20 41 29 32 3 -4 6 4 6 17 0 19 2 21
15 10 9 -7 18 -10 22 -6 3 3 1 6 -5 6 -7 0 -12 5 -12 10 0 6 7 10 16 10 8 0
12 5 9 10 -3 6 -1 10 5 10 6 0 8 5 4 12 -5 8 0 9 14 6 12 -4 25 -1 29 4 3 7 1
8 -5 4 -7 -4 -12 -4 -12 1 1 12 50 70 50 59 0 -5 -8 -19 -17 -30 -15 -18 -14
-18 8 2 14 12 30 19 34 15 5 -5 3 0 -4 10 -8 10 -9 17 -3 17 6 0 14 9 17 21 5
14 13 19 26 16 10 -3 22 0 26 5 3 7 1 8 -5 4 -16 -10 -15 2 2 19 7 8 16 11 20
8 3 -4 6 1 6 9 0 11 7 15 23 12 12 -2 16 -2 10 2 -7 3 -13 10 -13 15 0 6 5 7
10 4 6 -3 10 1 10 9 0 9 4 16 10 16 5 0 7 -8 4 -17 -3 -10 4 -2 15 17 11 19
20 31 21 26 0 -5 14 7 31 27 19 22 37 34 48 32 12 -2 18 2 17 13 -1 11 5 16
18 14 13 -2 17 1 13 10 -3 8 3 20 14 26 15 10 17 9 12 -5 -4 -11 -3 -14 5 -9
7 4 12 14 12 23 0 10 6 13 16 9 8 -3 12 -2 9 4 -3 6 -1 10 5 10 6 0 8 4 5 10
-4 6 1 7 11 3 11 -4 15 -3 10 5 -3 6 3 13 14 17 11 3 20 11 20 16 0 6 5 7 10
4 6 -4 7 -12 4 -18 -4 -7 -4 -9 0 -5 4 3 7 8 5 10 -1 1 3 13 10 26 11 20 15
21 28 10 14 -11 15 -11 11 2 -2 8 7 24 21 36 21 18 29 20 40 11 12 -10 13 -9
6 2 -6 11 -4 13 8 8 12 -4 14 -2 10 11 -6 15 -5 16 12 2 14 -11 17 -12 10 -1
-13 22 34 52 60 39 18 -10 19 -10 6 5 -11 15 -10 18 15 28 16 7 33 11 37 11 4
-1 10 5 14 13 5 14 8 14 24 -1 11 -10 19 -12 19 -6 0 7 -6 12 -12 12 -7 0 0
11 17 24 16 13 33 22 37 20 4 -2 9 0 13 6 3 5 15 10 26 10 11 0 18 4 15 9 -3
5 3 11 15 14 14 4 18 2 12 -7 -4 -6 2 -1 13 12 16 18 28 23 45 18 13 -3 18 -3
11 0 -16 8 -5 25 12 18 7 -3 16 2 20 12 5 14 9 14 23 3 12 -10 15 -10 9 -1
-11 18 21 27 42 11 15 -12 16 -12 5 2 -16 20 -5 33 14 17 7 -6 16 -8 20 -4 3
3 1 6 -5 6 -18 0 -14 17 4 24 9 4 23 1 30 -5 12 -10 13 -8 7 7 -6 17 -5 18 12
4 10 -8 16 -10 12 -3 -8 13 50 46 64 37 5 -3 9 0 9 6 0 6 5 8 10 5 6 -3 10 -1
10 4 0 6 9 11 19 11 11 0 23 5 26 11 4 6 13 8 21 5 8 -3 14 -1 14 4 0 6 5 10
11 10 5 0 7 -6 4 -12 -4 -7 2 -3 12 8 11 14 26 20 41 18 12 -2 22 1 22 7 0 6
7 8 16 5 8 -3 12 -2 9 4 -3 6 -2 10 4 10 5 0 12 -6 14 -12 3 -8 6 -5 6 5 1 10
6 15 11 12 6 -4 7 -11 4 -17 -4 -7 -2 -8 5 -4 6 4 8 12 5 18 -5 7 2 9 19 6 14
-3 25 -1 24 5 -1 5 4 12 12 15 9 3 11 0 6 -9 -5 -8 0 -6 12 4 24 20 40 23 24
3 -9 -11 -9 -16 0 -22 7 -4 9 -3 6 3 -4 6 1 17 11 25 23 19 75 41 67 28 -3 -5
-1 -10 4 -10 6 0 11 6 12 13 0 10 2 10 6 0 2 -7 9 -13 14 -13 6 0 7 5 4 10 -3
6 -4 10 -1 10 2 0 13 3 23 7 16 6 16 5 4 -10 -12 -15 -12 -17 3 -11 9 3 16 10
16 16 0 5 5 6 10 3 6 -3 10 -1 10 4 0 6 5 11 11 11 5 0 8 -4 5 -8 -3 -5 1 -9
9 -9 8 0 11 5 8 10 -3 6 6 8 25 5 22 -3 29 -1 25 9 -3 7 0 13 6 13 6 0 11 -4
11 -10 0 -5 5 -10 11 -10 5 0 8 4 5 8 -3 5 1 9 9 9 8 0 15 -5 15 -11 0 -6 5
-3 11 7 10 17 44 18 69 2 6 -3 13 1 16 9 3 9 10 16 16 16 5 0 6 -5 3 -11 -4
-6 3 -5 15 3 19 11 23 11 27 0 4 -10 8 -9 17 4 11 14 16 15 35 4 16 -8 21 -8
16 -1 -4 8 2 10 19 7 14 -2 27 1 30 7 2 7 5 3 5 -7 1 -20 1 -20 17 0 11 13 17
15 20 7 3 -7 10 -13 15 -13 6 0 8 4 5 8 -3 5 1 9 9 9 8 0 11 -5 8 -11 -4 -6 1
-5 10 3 14 11 17 11 18 0 0 -10 2 -11 6 -1 2 6 12 12 21 12 15 0 15 -2 2 -10
-8 -5 -10 -10 -4 -10 5 0 15 5 22 12 9 9 17 7 35 -10 13 -12 27 -22 32 -22 5
0 -1 7 -13 16 -12 8 -20 20 -16 25 3 6 12 3 21 -8 8 -10 12 -12 8 -5z m-3415
-1098 c0 -5 -5 -10 -11 -10 -5 0 -7 5 -4 10 3 6 8 10 11 10 2 0 4 -4 4 -10z
m350 -724 c0 -3 -4 -8 -10 -11 -5 -3 -10 -1 -10 4 0 6 5 11 10 11 6 0 10 -2
10 -4z m3110 -306 c0 -5 -5 -10 -11 -10 -5 0 -7 5 -4 10 3 6 8 10 11 10 2 0 4
-4 4 -10z m-580 -3380 c0 -5 -5 -10 -11 -10 -5 0 -7 5 -4 10 3 6 8 10 11 10 2
0 4 -4 4 -10z"/>
<path d="M4826 6523 c-6 -14 -5 -15 5 -6 7 7 10 15 7 18 -3 3 -9 -2 -12 -12z"/>
<path d="M4890 6521 c0 -6 4 -13 10 -16 6 -3 7 1 4 9 -7 18 -14 21 -14 7z"/>
<path d="M5135 6460 c-3 -5 -1 -10 4 -10 6 0 11 5 11 10 0 6 -2 10 -4 10 -3 0
-8 -4 -11 -10z"/>
<path d="M3296 6393 c-6 -14 -5 -15 5 -6 7 7 10 15 7 18 -3 3 -9 -2 -12 -12z"/>
<path d="M3210 6359 c0 -5 5 -7 10 -4 6 3 10 8 10 11 0 2 -4 4 -10 4 -5 0 -10
-5 -10 -11z"/>
<path d="M5713 6227 c0 -7 9 -14 20 -14 11 -1 18 -1 16 0 -2 2 -11 8 -20 15
-12 9 -16 9 -16 -1z"/>
<path d="M5755 6200 c-3 -5 -1 -10 4 -10 6 0 11 5 11 10 0 6 -2 10 -4 10 -3 0
-8 -4 -11 -10z"/>
<path d="M2696 6142 c-3 -4 4 -9 15 -9 23 -2 25 3 4 10 -8 4 -16 3 -19 -1z"/>
<path d="M5926 6107 c3 -10 9 -15 12 -12 3 3 0 11 -7 18 -10 9 -11 8 -5 -6z"/>
<path d="M6013 6045 c0 -8 4 -12 9 -9 5 3 6 10 3 15 -9 13 -12 11 -12 -6z"/>
<path d="M2526 6042 c-3 -5 1 -9 9 -9 8 0 12 4 9 9 -3 4 -7 8 -9 8 -2 0 -6 -4
-9 -8z"/>
<path d="M2414 5968 l-19 -23 23 19 c12 11 22 21 22 23 0 8 -8 2 -26 -19z"/>
<path d="M6216 5883 c-6 -14 -5 -15 5 -6 7 7 10 15 7 18 -3 3 -9 -2 -12 -12z"/>
<path d="M6273 5831 c0 -11 5 -18 9 -15 4 3 5 11 1 19 -7 21 -12 19 -10 -4z"/>
<path d="M6347 5789 c7 -7 15 -10 18 -7 3 3 -2 9 -12 12 -14 6 -15 5 -6 -5z"/>
<path d="M2111 5747 c-8 -10 -7 -14 2 -14 8 0 14 6 14 14 0 7 -1 13 -2 13 -2
0 -8 -6 -14 -13z"/>
<path d="M6536 5583 c-6 -14 -5 -15 5 -6 7 7 10 15 7 18 -3 3 -9 -2 -12 -12z"/>
<path d="M6710 5390 c0 -5 5 -10 11 -10 5 0 7 5 4 10 -3 6 -8 10 -11 10 -2 0
-4 -4 -4 -10z"/>
<path d="M1710 5341 c0 -6 4 -13 10 -16 6 -3 7 1 4 9 -7 18 -14 21 -14 7z"/>
<path d="M1647 5296 c-4 -10 -1 -13 8 -9 8 3 12 9 9 14 -7 12 -11 11 -17 -5z"/>
<path d="M4590 5180 c0 -5 5 -10 11 -10 5 0 7 5 4 10 -3 6 -8 10 -11 10 -2 0
-4 -4 -4 -10z"/>
<path d="M4746 5172 c-3 -5 1 -9 9 -9 8 0 12 4 9 9 -3 4 -7 8 -9 8 -2 0 -6 -4
-9 -8z"/>
<path d="M4895 5150 c-3 -6 1 -7 9 -4 18 7 21 14 7 14 -6 0 -13 -4 -16 -10z"/>
<path d="M4970 5135 c14 -8 30 -14 35 -14 6 0 -1 6 -15 14 -14 8 -29 14 -35
14 -5 0 1 -6 15 -14z"/>
<path d="M6870 5146 c0 -2 7 -7 16 -10 8 -3 12 -2 9 4 -6 10 -25 14 -25 6z"/>
<path d="M6890 5100 c0 -5 5 -10 11 -10 5 0 7 5 4 10 -3 6 -8 10 -11 10 -2 0
-4 -4 -4 -10z"/>
<path d="M5550 4889 c0 -5 5 -7 10 -4 6 3 10 8 10 11 0 2 -4 4 -10 4 -5 0 -10
-5 -10 -11z"/>
<path d="M3566 4853 c-6 -14 -5 -15 5 -6 7 7 10 15 7 18 -3 3 -9 -2 -12 -12z"/>
<path d="M5642 4824 c10 -10 20 -15 24 -12 3 4 -5 12 -18 18 -22 12 -22 12 -6
-6z"/>
<path d="M5753 4745 c0 -8 4 -15 9 -15 4 0 8 4 8 9 0 6 -4 12 -8 15 -5 3 -9
-1 -9 -9z"/>
<path d="M3320 4670 c-9 -6 -10 -10 -3 -10 6 0 15 5 18 10 8 12 4 12 -15 0z"/>
<path d="M1206 4662 c-3 -5 1 -9 9 -9 8 0 12 4 9 9 -3 4 -7 8 -9 8 -2 0 -6 -4
-9 -8z"/>
<path d="M3290 4639 c0 -5 5 -7 10 -4 6 3 10 8 10 11 0 2 -4 4 -10 4 -5 0 -10
-5 -10 -11z"/>
<path d="M3253 4605 c0 -8 4 -12 9 -9 5 3 6 10 3 15 -9 13 -12 11 -12 -6z"/>
<path d="M7160 4551 c0 -6 4 -13 10 -16 6 -3 7 1 4 9 -7 18 -14 21 -14 7z"/>
<path d="M3170 4519 c0 -5 5 -7 10 -4 6 3 10 8 10 11 0 2 -4 4 -10 4 -5 0 -10
-5 -10 -11z"/>
<path d="M3120 4480 c0 -5 5 -10 11 -10 5 0 7 5 4 10 -3 6 -8 10 -11 10 -2 0
-4 -4 -4 -10z"/>
<path d="M3108 4453 c7 -3 16 -2 19 1 4 3 -2 6 -13 5 -11 0 -14 -3 -6 -6z"/>
<path d="M4507 4439 c7 -7 15 -10 18 -7 3 3 -2 9 -12 12 -14 6 -15 5 -6 -5z"/>
<path d="M7213 4395 c0 -8 4 -12 9 -9 5 3 6 10 3 15 -9 13 -12 11 -12 -6z"/>
<path d="M6076 4362 c-3 -5 1 -9 9 -9 8 0 12 4 9 9 -3 4 -7 8 -9 8 -2 0 -6 -4
-9 -8z"/>
<path d="M1030 4319 c0 -5 5 -7 10 -4 6 3 10 8 10 11 0 2 -4 4 -10 4 -5 0 -10
-5 -10 -11z"/>
<path d="M5131 4314 c0 -11 3 -14 6 -6 3 7 2 16 -1 19 -3 4 -6 -2 -5 -13z"/>
<path d="M5220 4261 c0 -5 7 -12 16 -15 14 -5 15 -4 4 9 -14 17 -20 19 -20 6z"/>
<path d="M6120 4266 c0 -2 7 -9 15 -16 13 -11 14 -10 9 4 -5 14 -24 23 -24 12z"/>
<path d="M3815 4160 c-3 -5 -1 -10 4 -10 6 0 11 5 11 10 0 6 -2 10 -4 10 -3 0
-8 -4 -11 -10z"/>
<path d="M5383 4105 c0 -8 4 -12 9 -9 5 3 6 10 3 15 -9 13 -12 11 -12 -6z"/>
<path d="M7266 4098 c3 -5 10 -6 15 -3 13 9 11 12 -6 12 -8 0 -12 -4 -9 -9z"/>
<path d="M915 4040 c-3 -5 -1 -10 4 -10 6 0 11 5 11 10 0 6 -2 10 -4 10 -3 0
-8 -4 -11 -10z"/>
<path d="M6270 3911 c0 -6 4 -13 10 -16 6 -3 7 1 4 9 -7 18 -14 21 -14 7z"/>
<path d="M2747 3859 c7 -7 15 -10 18 -7 3 3 -2 9 -12 12 -14 6 -15 5 -6 -5z"/>
<path d="M3555 3861 c-3 -5 -2 -12 3 -15 5 -3 9 1 9 9 0 17 -3 19 -12 6z"/>
<path d="M5595 3691 c-3 -5 -2 -12 3 -15 5 -3 9 1 9 9 0 17 -3 19 -12 6z"/>
<path d="M6179 3633 c-13 -16 -12 -17 4 -4 16 13 21 21 13 21 -2 0 -10 -8 -17
-17z"/>
<path d="M790 3581 c0 -6 4 -13 10 -16 6 -3 7 1 4 9 -7 18 -14 21 -14 7z"/>
<path d="M5770 3546 c0 -3 9 -10 20 -16 11 -6 20 -8 20 -6 0 3 -9 10 -20 16
-11 6 -20 8 -20 6z"/>
<path d="M2641 3453 c7 -12 15 -20 18 -17 3 2 -3 12 -13 22 -17 16 -18 16 -5
-5z"/>
<path d="M755 3379 c-4 -6 -5 -12 -2 -15 2 -3 7 2 10 11 7 17 1 20 -8 4z"/>
<path d="M3330 3100 c6 -11 13 -20 16 -20 2 0 0 9 -6 20 -6 11 -13 20 -16 20
-2 0 0 -9 6 -20z"/>
<path d="M7175 3020 c-3 -5 -1 -10 4 -10 6 0 11 5 11 10 0 6 -2 10 -4 10 -3 0
-8 -4 -11 -10z"/>
<path d="M2595 2960 c3 -5 8 -10 11 -10 2 0 4 5 4 10 0 6 -5 10 -11 10 -5 0
-7 -4 -4 -10z"/>
<path d="M696 2942 c-3 -5 1 -9 9 -9 8 0 12 4 9 9 -3 4 -7 8 -9 8 -2 0 -6 -4
-9 -8z"/>
<path d="M7155 2929 c-4 -6 -5 -12 -2 -15 2 -3 7 2 10 11 7 17 1 20 -8 4z"/>
<path d="M3355 2841 c-3 -5 -2 -12 3 -15 5 -3 9 1 9 9 0 17 -3 19 -12 6z"/>
<path d="M7086 2798 c3 -4 9 -8 15 -8 5 0 9 4 9 8 0 5 -7 9 -15 9 -8 0 -12 -4
-9 -9z"/>
<path d="M695 2720 c-3 -5 -1 -10 4 -10 6 0 11 5 11 10 0 6 -2 10 -4 10 -3 0
-8 -4 -11 -10z"/>
<path d="M3426 2602 c-3 -5 1 -9 9 -9 8 0 12 4 9 9 -3 4 -7 8 -9 8 -2 0 -6 -4
-9 -8z"/>
<path d="M693 2545 c0 -8 4 -12 9 -9 5 3 6 10 3 15 -9 13 -12 11 -12 -6z"/>
<path d="M2694 2482 c4 -3 14 -7 22 -8 9 -1 13 0 10 4 -4 3 -14 7 -22 8 -9 1
-13 0 -10 -4z"/>
<path d="M3481 2453 c-1 -17 16 -25 25 -12 4 7 3 9 -4 5 -5 -3 -13 0 -15 6 -4
9 -6 10 -6 1z"/>
<path d="M6866 2383 c-6 -14 -5 -15 5 -6 7 7 10 15 7 18 -3 3 -9 -2 -12 -12z"/>
<path d="M6835 2360 c-3 -5 -1 -10 4 -10 6 0 11 5 11 10 0 6 -2 10 -4 10 -3 0
-8 -4 -11 -10z"/>
<path d="M3555 2351 c-3 -5 -2 -12 3 -15 5 -3 9 1 9 9 0 17 -3 19 -12 6z"/>
<path d="M6810 2320 c-9 -6 -10 -10 -3 -10 6 0 15 5 18 10 8 12 4 12 -15 0z"/>
<path d="M2776 2263 c-6 -14 -5 -15 5 -6 7 7 10 15 7 18 -3 3 -9 -2 -12 -12z"/>
<path d="M2795 2220 c-3 -5 -1 -10 4 -10 6 0 11 5 11 10 0 6 -2 10 -4 10 -3 0
-8 -4 -11 -10z"/>
<path d="M3633 2215 c0 -8 4 -12 9 -9 5 3 6 10 3 15 -9 13 -12 11 -12 -6z"/>
<path d="M2870 2056 c0 -2 8 -10 18 -17 15 -13 16 -12 3 4 -13 16 -21 21 -21
13z"/>
<path d="M6516 1993 c-6 -14 -5 -15 5 -6 7 7 10 15 7 18 -3 3 -9 -2 -12 -12z"/>
<path d="M6450 1959 c0 -5 5 -7 10 -4 6 3 10 8 10 11 0 2 -4 4 -10 4 -5 0 -10
-5 -10 -11z"/>
<path d="M3860 1926 c0 -2 8 -10 18 -17 15 -13 16 -12 3 4 -13 16 -21 21 -21
13z"/>
<path d="M6395 1890 c-4 -6 -10 -8 -15 -5 -4 3 -11 -2 -14 -10 -4 -13 -2 -13
14 -5 18 10 36 30 26 30 -3 0 -8 -5 -11 -10z"/>
<path d="M3030 1802 c0 -5 7 -9 15 -9 8 0 12 4 9 9 -3 4 -9 8 -15 8 -5 0 -9
-4 -9 -8z"/>
<path d="M6210 1780 c0 -5 5 -10 11 -10 5 0 7 5 4 10 -3 6 -8 10 -11 10 -2 0
-4 -4 -4 -10z"/>
<path d="M2875 1770 c-3 -5 -1 -10 4 -10 6 0 11 5 11 10 0 6 -2 10 -4 10 -3 0
-8 -4 -11 -10z"/>
<path d="M6075 1690 c3 -5 8 -10 11 -10 2 0 4 5 4 10 0 6 -5 10 -11 10 -5 0
-7 -4 -4 -10z"/>
<path d="M5895 1631 c-3 -5 -2 -12 3 -15 5 -3 9 1 9 9 0 17 -3 19 -12 6z"/>
<path d="M5935 1620 c3 -5 8 -10 11 -10 2 0 4 5 4 10 0 6 -5 10 -11 10 -5 0
-7 -4 -4 -10z"/>
<path d="M4370 1600 c0 -5 5 -10 11 -10 5 0 7 5 4 10 -3 6 -8 10 -11 10 -2 0
-4 -4 -4 -10z"/>
<path d="M4573 1515 c0 -7 6 -11 14 -8 7 3 13 6 13 8 0 2 -6 5 -13 8 -8 3 -14
-1 -14 -8z"/>
<path d="M5615 1511 c-3 -5 -2 -12 3 -15 5 -3 9 1 9 9 0 17 -3 19 -12 6z"/>
<path d="M4640 1500 c-23 -7 -23 -8 -3 -9 12 -1 25 4 28 9 3 6 5 10 3 9 -2 -1
-14 -5 -28 -9z"/>
<path d="M5510 1481 c0 -6 4 -13 10 -16 6 -3 7 1 4 9 -7 18 -14 21 -14 7z"/>
<path d="M5233 1433 c0 -8 6 -9 19 -2 10 5 18 11 18 12 0 2 -8 3 -18 3 -10 0
-19 -6 -19 -13z"/>
<path d="M3755 7261 c-3 -5 -2 -12 3 -15 5 -3 9 1 9 9 0 17 -3 19 -12 6z"/>
<path d="M4804 7259 c-4 -7 -3 -9 4 -5 5 3 13 0 15 -6 4 -9 6 -10 6 -1 1 17
-16 25 -25 12z"/>
<path d="M3305 7159 c-4 -6 -4 -13 -1 -16 3 -4 6 -1 6 6 0 7 5 9 12 5 7 -4 8
-3 4 4 -9 15 -13 15 -21 1z"/>
<path d="M3275 7149 c-4 -6 -5 -12 -2 -15 2 -3 7 2 10 11 7 17 1 20 -8 4z"/>
<path d="M3196 7138 c3 -5 10 -6 15 -3 13 9 11 12 -6 12 -8 0 -12 -4 -9 -9z"/>
<path d="M5510 7086 c0 -2 7 -7 16 -10 8 -3 12 -2 9 4 -6 10 -25 14 -25 6z"/>
<path d="M5550 7075 c0 -8 4 -15 10 -15 5 0 7 7 4 15 -4 8 -8 15 -10 15 -2 0
-4 -7 -4 -15z"/>
<path d="M2907 7016 c-4 -10 -1 -13 9 -9 15 6 19 23 5 23 -5 0 -11 -7 -14 -14z"/>
<path d="M2737 6959 c7 -7 15 -10 18 -7 3 3 -2 9 -12 12 -14 6 -15 5 -6 -5z"/>
<path d="M5856 6957 c3 -10 9 -15 12 -12 3 3 0 11 -7 18 -10 9 -11 8 -5 -6z"/>
<path d="M5910 6940 c0 -5 5 -10 11 -10 5 0 7 5 4 10 -3 6 -8 10 -11 10 -2 0
-4 -4 -4 -10z"/>
<path d="M2516 6843 c-6 -14 -5 -15 5 -6 7 7 10 15 7 18 -3 3 -9 -2 -12 -12z"/>
<path d="M6110 6826 c0 -2 8 -10 18 -17 15 -13 16 -12 3 4 -13 16 -21 21 -21
13z"/>
<path d="M2371 6767 c-13 -21 -12 -21 5 -5 10 10 16 20 13 22 -3 3 -11 -5 -18
-17z"/>
<path d="M6217 6759 c7 -7 15 -10 18 -7 3 3 -2 9 -12 12 -14 6 -15 5 -6 -5z"/>
<path d="M6275 6739 c-4 -6 -5 -12 -2 -15 2 -3 7 2 10 11 7 17 1 20 -8 4z"/>
<path d="M6296 6717 c3 -10 9 -15 12 -12 3 3 0 11 -7 18 -10 9 -11 8 -5 -6z"/>
<path d="M2185 6680 c-3 -6 1 -7 9 -4 18 7 21 14 7 14 -6 0 -13 -4 -16 -10z"/>
<path d="M1995 6540 c3 -5 8 -10 11 -10 2 0 4 5 4 10 0 6 -5 10 -11 10 -5 0
-7 -4 -4 -10z"/>
<path d="M1913 6485 c0 -8 4 -12 9 -9 5 3 6 10 3 15 -9 13 -12 11 -12 -6z"/>
<path d="M6607 6489 c7 -7 15 -10 18 -7 3 3 -2 9 -12 12 -14 6 -15 5 -6 -5z"/>
<path d="M6690 6435 c0 -8 2 -15 4 -15 2 0 6 7 10 15 3 8 1 15 -4 15 -6 0 -10
-7 -10 -15z"/>
<path d="M6876 6271 c-3 -4 4 -17 17 -27 22 -19 22 -19 4 2 -9 11 -14 24 -10
27 3 4 4 7 0 7 -3 0 -8 -4 -11 -9z"/>
<path d="M7106 6042 c-3 -5 1 -9 9 -9 8 0 12 4 9 9 -3 4 -7 8 -9 8 -2 0 -6 -4
-9 -8z"/>
<path d="M1296 5965 c-3 -8 -1 -15 4 -15 6 0 10 7 10 15 0 8 -2 15 -4 15 -2 0
-6 -7 -10 -15z"/>
<path d="M1275 5930 c-4 -6 -11 -8 -16 -5 -5 4 -9 1 -9 -4 0 -16 16 -13 30 4
7 8 10 15 7 15 -3 0 -9 -5 -12 -10z"/>
<path d="M7235 5881 c-3 -5 -2 -12 3 -15 5 -3 9 1 9 9 0 17 -3 19 -12 6z"/>
<path d="M1115 5789 c-4 -6 -5 -12 -2 -15 2 -3 7 2 10 11 7 17 1 20 -8 4z"/>
<path d="M970 5581 c0 -7 -5 -9 -12 -5 -7 5 -8 3 -3 -5 5 -9 10 -10 18 -2 6 6
8 14 4 18 -4 3 -7 1 -7 -6z"/>
<path d="M7465 5560 c-3 -6 1 -7 9 -4 18 7 21 14 7 14 -6 0 -13 -4 -16 -10z"/>
<path d="M760 5295 c-7 -9 -11 -17 -9 -20 3 -2 10 5 17 15 14 24 10 26 -8 5z"/>
<path d="M7611 5293 c16 -26 25 -29 35 -10 4 6 3 9 -1 4 -5 -4 -17 1 -28 10
-19 18 -19 17 -6 -4z"/>
<path d="M7636 5247 c3 -10 9 -15 12 -12 3 3 0 11 -7 18 -10 9 -11 8 -5 -6z"/>
<path d="M7656 5198 c3 -5 10 -6 15 -3 13 9 11 12 -6 12 -8 0 -12 -4 -9 -9z"/>
<path d="M579 5003 c-13 -16 -12 -17 4 -4 16 13 21 21 13 21 -2 0 -10 -8 -17
-17z"/>
<path d="M7829 4807 c6 -14 7 -28 3 -33 -4 -4 -2 -4 5 -1 12 7 7 44 -8 53 -5
3 -5 -6 0 -19z"/>
<path d="M406 4702 c-3 -5 1 -9 9 -9 8 0 12 4 9 9 -3 4 -7 8 -9 8 -2 0 -6 -4
-9 -8z"/>
<path d="M300 4430 c-9 -6 -10 -10 -3 -10 6 0 15 5 18 10 8 12 4 12 -15 0z"/>
<path d="M7986 4173 c-6 -14 -5 -15 5 -6 7 7 10 15 7 18 -3 3 -9 -2 -12 -12z"/>
<path d="M200 4160 c-9 -6 -10 -10 -3 -10 6 0 15 5 18 10 8 12 4 12 -15 0z"/>
<path d="M156 4013 c-6 -14 -5 -15 5 -6 7 7 10 15 7 18 -3 3 -9 -2 -12 -12z"/>
<path d="M107 3859 c7 -7 15 -10 18 -7 3 3 -2 9 -12 12 -14 6 -15 5 -6 -5z"/>
<path d="M78 3733 c7 -3 16 -2 19 1 4 3 -2 6 -13 5 -11 0 -14 -3 -6 -6z"/>
<path d="M7956 3158 c3 -5 10 -6 15 -3 13 9 11 12 -6 12 -8 0 -12 -4 -9 -9z"/>
<path d="M7936 3055 c-9 -26 -7 -32 5 -12 6 10 9 21 6 23 -2 3 -7 -2 -11 -11z"/>
<path d="M7835 2731 c-3 -5 -2 -12 3 -15 5 -3 9 1 9 9 0 17 -3 19 -12 6z"/>
<path d="M7735 2491 c-3 -5 -2 -12 3 -15 5 -3 9 1 9 9 0 17 -3 19 -12 6z"/>
<path d="M7610 2241 c0 -6 4 -12 8 -15 5 -3 9 1 9 9 0 8 -4 15 -9 15 -4 0 -8
-4 -8 -9z"/>
<path d="M7509 2073 c-13 -17 -13 -17 6 -3 11 8 22 16 24 17 2 2 0 3 -6 3 -6
0 -17 -8 -24 -17z"/>
<path d="M7446 1963 c-6 -14 -5 -15 5 -6 7 7 10 15 7 18 -3 3 -9 -2 -12 -12z"/>
<path d="M30 1956 c0 -2 8 -10 18 -17 15 -13 16 -12 3 4 -13 16 -21 21 -21 13z"/>
<path d="M7406 1935 c-3 -8 0 -17 6 -21 6 -4 8 -3 4 4 -3 5 -1 12 6 14 8 3 9
6 1 11 -6 4 -13 0 -17 -8z"/>
<path d="M75 1789 c-4 -6 -5 -12 -2 -15 2 -3 7 2 10 11 7 17 1 20 -8 4z"/>
<path d="M70 1726 c0 -2 7 -7 16 -10 8 -3 12 -2 9 4 -6 10 -25 14 -25 6z"/>
<path d="M7166 1645 c-11 -8 -15 -15 -9 -15 6 0 16 7 23 15 16 19 11 19 -14 0z"/>
<path d="M6990 1475 c-7 -9 -10 -18 -6 -22 3 -3 6 -1 6 6 0 7 4 10 8 7 5 -3 9
1 9 9 0 19 -2 19 -17 0z"/>
<path d="M6855 1340 c-3 -5 -1 -10 4 -10 6 0 11 5 11 10 0 6 -2 10 -4 10 -3 0
-8 -4 -11 -10z"/>
<path d="M6774 1298 c-4 -7 -4 -10 1 -6 4 4 15 2 24 -5 14 -11 14 -10 2 6 -16
20 -18 21 -27 5z"/>
<path d="M6697 1235 c-4 -8 -3 -16 1 -19 4 -3 9 4 9 15 2 23 -3 25 -10 4z"/>
<path d="M240 1220 c-12 -7 -10 -9 7 -7 12 0 19 5 17 9 -6 10 -6 10 -24 -2z"/>
<path d="M273 1187 c0 -8 6 -14 14 -14 9 0 10 4 2 14 -6 7 -12 13 -14 13 -1 0
-2 -6 -2 -13z"/>
<path d="M6513 1105 c0 -8 4 -12 9 -9 5 3 6 10 3 15 -9 13 -12 11 -12 -6z"/>
<path d="M6475 1100 c-3 -5 -1 -10 4 -10 6 0 11 5 11 10 0 6 -2 10 -4 10 -3 0
-8 -4 -11 -10z"/>
<path d="M6233 965 c0 -8 4 -12 9 -9 5 3 6 10 3 15 -9 13 -12 11 -12 -6z"/>
<path d="M4090 920 c0 -5 5 -10 11 -10 5 0 7 5 4 10 -3 6 -8 10 -11 10 -2 0
-4 -4 -4 -10z"/>
<path d="M6066 897 c3 -10 9 -15 12 -12 3 3 0 11 -7 18 -10 9 -11 8 -5 -6z"/>
<path d="M4330 841 c0 -6 4 -13 10 -16 6 -3 7 1 4 9 -7 18 -14 21 -14 7z"/>
<path d="M5833 805 c0 -8 4 -12 9 -9 5 3 6 10 3 15 -9 13 -12 11 -12 -6z"/>
<path d="M5510 739 c0 -5 5 -7 10 -4 6 3 10 8 10 11 0 2 -4 4 -10 4 -5 0 -10
-5 -10 -11z"/>
<path d="M5036 693 c-6 -14 -5 -15 5 -6 7 7 10 15 7 18 -3 3 -9 -2 -12 -12z"/>
</g>
</svg>
